<svg width="106" height="24" viewBox="0 0 106 24" fill="none" xmlns="http://www.w3.org/2000/svg">
<g clip-path="url(#clip0_51_2431)">
<path d="M0 0H14.1211V2.49434H8.59042V10.0274H5.53065V2.49434H0V0ZM14.1211 23.7641H2.47088V13.7344H5.53065V21.2674H14.1211V23.7641ZM25.6731 6.76117H21.2196V10.0298H18.1599V0H26.3111C29.4322 0 30.9486 1.48422 30.9486 3.37344C30.9486 4.72901 30.1045 5.73913 28.5856 6.24896L31.6945 10.0274H28.2691L25.6731 6.76117ZM21.2196 21.2674H29.9327V23.7618H18.1599V13.7344H29.6874V16.2287H21.2196V17.5605H28.1342V19.8189H21.2196V21.2674ZM27.7661 3.40917C27.7661 2.81596 27.3735 2.49434 26.4313 2.49434H21.2196V4.324H26.4338C27.376 4.324 27.7661 4.00477 27.7661 3.40917ZM44.3973 8.32877H37.8876L36.8718 10.0274H33.5667L39.8089 0H42.5619L48.8042 10.0274H45.4132L44.3973 8.32877ZM37.6668 23.7641H34.607V13.7344H37.6668V23.7641ZM42.9766 5.95354L41.1413 2.86361L39.3059 5.95354H42.9766ZM53.3558 16.8719C51.0051 16.0881 49.7341 15.8856 48.1907 15.8856C46.245 15.8856 45.818 16.1954 45.818 16.6218C45.818 16.9315 46.0634 17.1078 46.8707 17.1793L51.3364 17.5485C54.4207 17.7987 55.4979 19.0208 55.4979 20.6504C55.4979 22.5753 53.3435 24 48.9759 24C46.9933 24 44.3507 23.595 42.0246 22.8469L43.6391 20.4002C45.9407 21.2198 48.1417 21.589 49.7464 21.589C51.8517 21.589 52.3154 21.2674 52.3154 20.8648C52.3154 20.5432 52.0823 20.2954 51.1646 20.212L46.8216 19.8189C43.8722 19.5569 42.7582 18.4753 42.7582 16.8481C42.7582 15.1257 44.4341 13.4985 48.7919 13.4985C50.6886 13.4985 52.6835 13.8559 54.8501 14.6278L53.3558 16.8719ZM56.818 10.0274H54.0649L47.8227 0H51.2726L55.4831 6.86837L59.6937 0H63.0577L56.818 10.0274ZM69.1159 19.2472V13.7344H72.1757V19.3663C72.1757 22.4324 70.0704 24 65.7887 24C61.507 24 59.4017 22.4324 59.4017 19.3663V13.7344H62.4615V19.2472C62.4615 20.7433 63.416 21.3865 65.7912 21.3865C68.1614 21.3865 69.1159 20.7457 69.1159 19.2472ZM68.7749 7.53306H77.488V10.0274H65.7151V0H77.2426V2.49434H68.7749V3.82609H75.6894V6.08457H68.7749V7.53306ZM84.3412 20.4955H79.8877V23.7641H76.8255V13.7344H84.9767C88.0978 13.7344 89.6142 15.2186 89.6142 17.1078C89.6142 18.4634 88.7701 19.4735 87.2537 19.9833L90.3625 23.7618H86.9347L84.3412 20.4955ZM86.4317 17.1459C86.4317 16.5527 86.0391 16.2311 85.0994 16.2311H79.8852V18.0608H85.0994C86.0416 18.0608 86.4317 17.7391 86.4317 17.1459ZM93.8125 10.0274H82.1623V0H85.222V7.53306H93.8125V10.0274ZM97.2869 21.2674H106V23.7618H94.2271V13.7344H105.755V16.2287H97.2869V17.5605H104.201V19.8189H97.2869V21.2674ZM96.406 3.76653H99.8559V0.831447H102.305V3.76653H105.755V6.02502H102.305V8.9601H99.8559V6.02502H96.406V3.76653Z" fill="#33312F"/>
</g>
<defs>
<clipPath id="clip0_51_2431">
<rect width="106" height="24" fill="white"/>
</clipPath>
</defs>
</svg>
