<svg width="82" height="30" viewBox="0 0 82 30" fill="none" xmlns="http://www.w3.org/2000/svg">
<g id="Vector">
<path fill-rule="evenodd" clip-rule="evenodd" d="M0.0819863 0.327571V3.08462H4.64589V29.6724H8.95018V3.08462H13.3774V0.327571H0.0819863Z" fill="#33312F"/>
<path fill-rule="evenodd" clip-rule="evenodd" d="M0 0.259327V3.16652H4.55024V29.7543H9.0185V3.16652H13.4458V0.245678L0 0.259327ZM0.163973 0.409463L13.3091 0.395814V3.01638H8.86819V29.6042H4.71421V3.01638H0.163973V0.409463Z" fill="#33312F"/>
<path fill-rule="evenodd" clip-rule="evenodd" d="M14.7302 9.11738V7.86169H10.9178V29.6178H14.9215C14.9215 29.6178 14.9762 15.1365 14.9215 13.5669C14.8532 11.6833 17.6954 11.5605 17.6954 11.5605H19.0208V7.67061C16.8755 7.35669 14.7302 9.11738 14.7302 9.11738Z" fill="#33312F"/>
<path fill-rule="evenodd" clip-rule="evenodd" d="M10.9998 29.5359H14.8532C14.8532 28.3894 14.8942 15.0546 14.8532 13.5669C14.7849 11.6288 17.6681 11.4786 17.6954 11.4786H18.9525V7.73885C16.8892 7.47953 14.8122 9.15833 14.7985 9.17197L14.6756 9.28116V7.92994H11.0135V29.5359H10.9998ZM15.0035 29.6861H10.8495V7.7798H14.8122V8.95359C15.3041 8.58508 17.1761 7.31574 19.0345 7.58872L19.1028 7.60237V11.6288H17.6954C17.6954 11.6288 16.9985 11.6697 16.3153 11.929C15.4134 12.2702 14.9762 12.8162 15.0035 13.5532C15.0582 15.1092 15.0035 29.454 15.0035 29.6042V29.6861ZM39.9547 7.86169L37.6864 21.7834L35.2268 7.8071H31.0592L35.3498 29.6861H38.5609L42.5919 7.87534H39.9547V7.86169Z" fill="#33312F"/>
<path fill-rule="evenodd" clip-rule="evenodd" d="M35.4181 29.5905H38.5062L42.4963 7.92994H40.0093L37.6727 22.2338L35.1448 7.86169H31.1411L35.4181 29.5905ZM38.6292 29.7543H35.2815L35.2678 29.6861L30.9635 7.71156H35.2815L35.2951 7.7798L37.6727 21.3057L39.8727 7.7798H42.6739L38.6292 29.7543ZM48.3173 9.17197C48.3173 9.17197 50.0117 9.22657 50.08 12.3658C50.1483 15.505 50.08 17.1975 50.08 17.1975H46.5546V12.3112C46.5546 12.3112 46.4863 9.17197 48.3173 9.17197ZM50.203 20.7052V25.5369C50.203 25.5369 50.1346 28.1711 48.4403 28.1028C46.7322 28.0482 46.5409 25.5369 46.5409 25.5369V18.9581H54.4799C55.1085 7.11101 48.3719 7.54777 48.3719 7.54777C41.813 8.3667 42.264 16.8835 42.264 16.8835C42.264 16.8835 41.4441 30.1092 48.5086 29.8635C55.5594 29.6178 54.4389 20.7188 54.4389 20.7188H50.203V20.7052Z" fill="#33312F"/>
<path fill-rule="evenodd" clip-rule="evenodd" d="M49.998 17.1156C50.0117 16.747 50.0527 15.0955 49.998 12.3658C49.9297 9.37671 48.3583 9.25387 48.3036 9.24022C47.9483 9.24022 47.6477 9.37671 47.3881 9.62238C46.5819 10.4413 46.6092 12.2839 46.6092 12.2975V17.1156H49.998ZM50.1483 17.2657H46.4726V12.2975C46.4726 12.2293 46.4453 10.3731 47.2925 9.51319C47.5794 9.22657 47.921 9.09008 48.3173 9.09008C48.3993 9.09008 50.0937 9.18562 50.162 12.3658C50.2303 15.4641 50.162 17.1702 50.162 17.1975L50.1483 17.2657ZM48.4676 7.61601H48.3856C41.977 8.40764 42.3323 16.788 42.3459 16.8699C42.3459 16.9654 41.8677 25.141 45.0925 28.4304C46.0217 29.3722 47.1695 29.8226 48.5086 29.7816C50.2713 29.7134 51.6787 29.0992 52.6762 27.9254C54.7669 25.4823 54.4253 21.3603 54.3706 20.7734H50.2986V25.5369C50.2986 25.6051 50.2576 27.0792 49.4788 27.8025C49.1918 28.0619 48.8502 28.1847 48.4539 28.1847C47.7297 28.1574 47.1558 27.6934 46.8005 26.8335C46.6366 26.424 46.5272 25.9873 46.4863 25.5505V18.8899H54.4253C54.6576 14.2903 53.8104 11.0146 51.9247 9.14468C50.4626 7.71156 48.8365 7.61601 48.4676 7.61601ZM48.3036 29.9318C46.9918 29.9318 45.8714 29.4677 44.9695 28.5396C41.7037 25.2093 42.182 16.9654 42.182 16.8835C42.182 16.8016 41.813 8.2848 48.3583 7.46588C48.3856 7.46588 50.3259 7.35669 52.0203 9.02184C53.9607 10.919 54.8079 14.263 54.5619 18.9581V19.0264H46.6229V25.5369C46.6229 25.5505 46.8279 27.9663 48.4403 28.0346C48.7955 28.0482 49.1098 27.939 49.3558 27.6934C50.08 27.0109 50.121 25.5505 50.121 25.5369V20.6369H54.4936L54.5073 20.7052C54.5209 20.7461 55.0675 25.3731 52.7855 28.0482C51.7607 29.2493 50.3259 29.8908 48.5086 29.9454C48.4403 29.9318 48.3719 29.9454 48.3036 29.9318ZM66.6412 9.17197C66.6412 9.17197 68.3493 9.22657 68.4039 12.3658C68.4723 15.505 68.4039 17.1975 68.4039 17.1975H64.8649V12.3112C64.8785 12.3112 64.8239 9.17197 66.6412 9.17197ZM68.5406 20.7052V25.5369C68.5406 25.5369 68.4723 28.1711 66.7779 28.1028C65.0698 28.0482 64.8785 25.5369 64.8785 25.5369V18.9581H72.8175C73.4461 7.11101 66.7095 7.54777 66.7095 7.54777C60.1506 8.3667 60.6016 16.8835 60.6016 16.8835C60.6016 16.8835 59.7817 30.1092 66.8462 29.8635C73.9107 29.6178 72.7765 20.7188 72.7765 20.7188H68.5406V20.7052Z" fill="#33312F"/>
<path fill-rule="evenodd" clip-rule="evenodd" d="M68.3356 17.1156C68.3493 16.747 68.3903 15.0955 68.3356 12.3658C68.281 9.36306 66.7369 9.25387 66.6412 9.24022C66.286 9.24022 65.9717 9.37671 65.7257 9.62238C64.9195 10.4413 64.9468 12.2839 64.9468 12.2975V17.1156H68.3356ZM68.4859 17.2657H64.7965V12.2975C64.7965 12.2293 64.7692 10.3731 65.6164 9.51319C65.8897 9.22657 66.2313 9.09008 66.6412 9.09008C66.7096 9.09008 68.4176 9.18562 68.4859 12.3658C68.5543 15.4641 68.4859 17.1702 68.4859 17.1975V17.2657ZM66.7915 7.61601H66.7096C60.3146 8.40764 60.6699 16.788 60.6699 16.8699C60.6699 16.9654 60.1916 25.1547 63.4028 28.4304C64.332 29.3722 65.4798 29.8226 66.8189 29.7816C68.5952 29.7134 69.989 29.0992 70.9865 27.939C73.0772 25.4959 72.7356 21.3603 72.6809 20.7871H68.6089V25.5368C68.6089 25.6051 68.5679 27.0928 67.789 27.8025C67.5158 28.0619 67.1468 28.1984 66.7642 28.1847C66.04 28.1574 65.4661 27.6934 65.1108 26.8335C64.9469 26.424 64.8375 25.9873 64.7965 25.5505V18.8899H72.7355C72.9678 14.2903 72.1343 11.0146 70.235 9.15833C68.7865 7.69791 67.1605 7.61601 66.7915 7.61601ZM66.6412 29.9318C65.3295 29.9318 64.209 29.4677 63.2935 28.5396C60.0277 25.2093 60.5059 16.9654 60.5196 16.8835C60.5059 16.8016 60.1507 8.2848 66.6959 7.46588C66.7232 7.46588 68.6499 7.35669 70.3579 9.02184C72.2983 10.919 73.1591 14.263 72.8995 18.9581V19.0264H64.9605V25.5368C64.9605 25.5505 65.1655 27.9663 66.7779 28.0346C67.1331 28.0482 67.4474 27.939 67.6934 27.6934C68.4176 27.0109 68.4586 25.5505 68.4586 25.5368V20.6369H72.8312L72.8449 20.7052C72.8449 20.7461 73.4051 25.3731 71.1232 28.0482C70.0983 29.2493 68.6636 29.8908 66.8462 29.9454C66.7779 29.9318 66.7096 29.9454 66.6412 29.9318ZM55.6277 29.6724H59.4674V0.0818926H55.6277V29.6724Z" fill="#33312F"/>
<path fill-rule="evenodd" clip-rule="evenodd" d="M55.7097 29.5905H59.3991V0.163785H55.7097V29.5905ZM55.5457 29.7543H59.5494V0H55.5457V29.7543ZM77.6274 8.85805V7.60237H73.815V29.6588H77.8187C77.8187 29.6588 77.805 14.8635 77.8187 13.2939C77.8324 11.4104 80.5926 11.2875 80.5926 11.2875H81.918V7.39763C79.7727 7.11101 77.6274 8.85805 77.6274 8.85805Z" fill="#33312F"/>
<path fill-rule="evenodd" clip-rule="evenodd" d="M77.9007 29.7543H73.733V7.53412H77.7094V8.70792C78.2013 8.3394 80.0733 7.07006 81.9317 7.34304L82 7.35669V11.3831H80.5926C80.5926 11.3831 79.9094 11.424 79.2398 11.6697C78.3516 12.0109 77.9007 12.5705 77.9007 13.3076C77.887 14.8499 77.9007 29.5223 77.9007 29.6724V29.7543ZM27.0008 25.141C27.0008 25.141 26.8369 27.0109 25.3611 27.0246C23.7897 27.0382 23.4071 25.3458 23.4071 25.3458V20.0637C23.4071 20.0637 23.4481 19.3676 23.8444 18.9308C24.2406 18.4941 26.4269 17.3203 27.0008 16.8289V25.141ZM25.4431 7.60237C18.8842 7.7252 19.7724 14.3585 19.7724 14.3585H23.7214V11.4923C23.7214 11.4923 23.9947 9.36306 25.3748 9.36306C26.7549 9.36306 26.9325 11.3967 26.9325 11.3967V14.3176C26.7412 14.6588 25.4431 15.5869 25.4431 15.5869C24.9375 15.9281 24.3499 16.3649 22.7922 17.4022C20.8792 18.6715 20.0457 20.0364 20.0457 20.0364C18.8295 21.9609 19.1711 26.5196 19.8407 27.7889C20.1003 28.3076 21.0978 29.9181 23.4344 29.9181C25.771 29.9181 27.2195 28.4167 27.2195 28.4167V29.6724H30.9362V14.3722C30.9225 7.23385 25.4431 7.60237 25.4431 7.60237Z" fill="#33312F"/>
<path fill-rule="evenodd" clip-rule="evenodd" d="M23.4754 25.3321C23.4891 25.3867 23.5847 25.7689 23.858 26.1374C24.227 26.6697 24.7325 26.9427 25.3611 26.929C25.935 26.9154 26.3723 26.6151 26.6592 26.0282C26.8642 25.5914 26.9188 25.1683 26.9188 25.1137V16.9654C26.6046 17.1975 26.0717 17.525 25.5114 17.8799C24.8145 18.303 24.104 18.7534 23.899 18.9718C23.5164 19.3813 23.4754 20.05 23.4754 20.05V25.3321ZM25.3338 27.0928C23.735 27.0928 23.3388 25.3867 23.3251 25.3594V20.0637C23.3251 20.0227 23.3661 19.3403 23.7897 18.8763C24.0083 18.6442 24.7052 18.2075 25.4431 17.7571C26.058 17.3749 26.7002 16.9927 26.9598 16.7607L27.0828 16.6515V25.1547C27.0828 25.1683 26.8915 27.0792 25.3748 27.1065H25.3338V27.0928ZM25.3748 9.28117C26.8232 9.28117 27.0008 11.3558 27.0008 11.3831V14.3312L26.9872 14.3449C26.7959 14.6861 25.5251 15.6005 25.4704 15.6415C25.2791 15.7643 25.0742 15.9145 24.8282 16.0919C24.3909 16.3922 23.8034 16.8153 22.8195 17.4704C20.9475 18.7261 20.1003 20.0637 20.0867 20.0773C18.8979 21.9609 19.2258 26.4923 19.8817 27.748C20.2096 28.3758 21.2071 29.8362 23.4071 29.8362C25.6071 29.8362 27.1238 28.3758 27.1375 28.3621L27.2741 28.2257V29.5905H30.8405V14.3722C30.8405 11.9563 30.212 10.141 28.9685 8.99454C27.4244 7.56142 25.4568 7.68426 25.4431 7.68426C23.5574 7.7252 22.1226 8.29845 21.1525 9.41765C19.6084 11.2056 19.786 13.8399 19.827 14.2903H23.6257V11.4923C23.6531 11.3967 23.94 9.28117 25.3748 9.28117ZM23.4208 30C21.1388 30 20.1003 28.485 19.7587 27.8298C19.0892 26.5469 18.7475 21.9199 19.9773 19.9955C19.991 19.9818 20.8519 18.6033 22.7512 17.3339C23.7214 16.6788 24.3226 16.2693 24.7462 15.9554C25.0058 15.778 25.1971 15.6415 25.3884 15.505C25.7437 15.2457 26.6729 14.5496 26.8505 14.2766V11.3694C26.8505 11.3558 26.6729 9.41765 25.3748 9.41765C24.0767 9.41765 23.7897 11.465 23.7897 11.4786V14.4268H19.6904L19.6767 14.3585C19.6767 14.3312 19.2941 11.3012 21.0295 9.29481C22.0133 8.14832 23.5028 7.54777 25.4294 7.50682C25.5114 7.50682 27.5064 7.39763 29.0778 8.85805C30.3486 10.0455 30.9908 11.8881 30.9908 14.3585V29.727H27.1238V28.5669C26.7139 28.9627 25.3611 30 23.4208 30ZM18.2146 4.40855C17.873 5.52775 17.0805 5.52775 16.9712 5.52775C16.165 5.52775 15.8097 4.5041 15.8097 3.42584C15.8097 2.72975 15.9737 1.10555 17.0805 1.10555C17.4221 1.10555 17.9687 1.25569 18.16 2.14286L19.2121 1.81529C19.1438 1.52866 18.6792 0.0682439 17.1351 0.0818926C15.7687 0.0818926 14.6346 1.22839 14.6346 3.46679C14.6346 5.90992 16.042 6.6333 17.1078 6.6333C17.9687 6.6333 18.5016 6.18289 18.8295 5.73248C19.1028 5.35032 19.1711 5.02275 19.2531 4.70883L18.2146 4.40855Z" fill="#33312F"/>
<path fill-rule="evenodd" clip-rule="evenodd" d="M17.1625 0.163785H17.1351C15.6594 0.163785 14.7165 1.46042 14.7165 3.48044C14.7165 6.42857 16.7115 6.57871 17.1215 6.57871C17.8047 6.57871 18.3649 6.27844 18.7885 5.70519C19.0345 5.36397 19.1028 5.07734 19.1848 4.77707L18.2966 4.5041C17.9413 5.52775 17.2171 5.60965 16.9985 5.60965C16.083 5.60965 15.755 4.43585 15.755 3.43949C15.755 3.04368 15.8234 1.05096 17.1078 1.05096C17.4358 1.05096 18.0233 1.18744 18.242 2.07461L19.1438 1.78799C19.0208 1.43312 18.5699 0.163785 17.1625 0.163785ZM17.1078 6.72884C16.7252 6.72884 16.0147 6.6333 15.4134 6.03276C14.8122 5.43221 14.5526 4.59964 14.5526 3.48044C14.5526 1.37853 15.5637 0.0136488 17.1351 0.0136488H17.1625C18.5152 0.0136488 19.1301 1.13285 19.2805 1.80164L19.2941 1.86988L18.1053 2.25205L18.0917 2.17015C17.914 1.32393 17.3811 1.18744 17.0942 1.18744C15.96 1.18744 15.9053 3.05732 15.9053 3.42584C15.9053 4.35396 16.1923 5.44586 16.9848 5.44586C17.2445 5.44586 17.8594 5.33667 18.16 4.36761L18.1873 4.28571L19.3761 4.65423L19.3488 4.76342C19.2805 5.07734 19.1985 5.39127 18.9252 5.77343C18.5836 6.22384 18.037 6.72884 17.1078 6.72884ZM20.8382 4.28571C20.8382 4.57234 20.8655 5.78708 21.6444 5.78708C22.4233 5.78708 22.4643 4.55869 22.4643 4.16288C22.4643 3.76706 22.3823 2.71611 21.6581 2.71611C20.9885 2.70246 20.8382 3.56233 20.8382 4.28571ZM23.5028 4.25842C23.5028 5.90992 22.5599 6.60601 21.6581 6.60601C20.8382 6.60601 19.7997 6.00546 19.7997 4.25842C19.7997 2.7434 20.5786 1.93813 21.5487 1.93813C23.1065 1.95177 23.5028 3.20746 23.5028 4.25842Z" fill="#33312F"/>
<path fill-rule="evenodd" clip-rule="evenodd" d="M21.6717 2.78435C21.0568 2.78435 20.9202 3.60328 20.9202 4.28571C20.9202 4.70883 20.9885 5.70519 21.6581 5.70519C22.273 5.70519 22.3959 4.85896 22.3959 4.16288C22.3959 3.8353 22.3413 2.78435 21.6717 2.78435ZM21.6581 5.85532C21.0978 5.85532 20.7699 5.28207 20.7699 4.28571C20.7699 3.20746 21.0842 2.63421 21.6717 2.63421C22.4916 2.63421 22.5599 3.80801 22.5599 4.16288C22.5462 5.5687 22.068 5.85532 21.6581 5.85532ZM21.5624 2.03367C20.5512 2.03367 19.8954 2.90719 19.8954 4.27207C19.8954 5.93722 20.8519 6.53776 21.6717 6.53776C22.8879 6.53776 23.4344 5.39126 23.4344 4.27207C23.4208 3.58963 23.2431 2.03367 21.5624 2.03367ZM21.6717 6.6879C20.7152 6.6879 19.7314 5.93722 19.7314 4.27207C19.7314 2.81165 20.4556 1.88353 21.5624 1.88353C22.1773 1.88353 23.5847 2.11556 23.5847 4.27207C23.5847 5.93722 22.6282 6.6879 21.6717 6.6879ZM26.6182 1.96542C25.8667 1.96542 25.4021 2.44313 25.1971 2.66151V2.04732H24.1586V6.53776H25.1971V3.45314C25.5661 3.07097 25.8394 2.87989 26.14 2.87989C26.4406 2.87989 26.5226 3.15287 26.5226 3.39854V6.53776H27.5474V3.11192C27.5611 2.36124 27.2605 1.96542 26.6182 1.96542Z" fill="#33312F"/>
<path fill-rule="evenodd" clip-rule="evenodd" d="M26.6046 6.45587H27.4791V3.11192C27.4791 2.38854 27.1921 2.03367 26.6182 2.03367C25.894 2.03367 25.4431 2.49773 25.2655 2.70246L25.1288 2.83894V2.10191H24.2543V6.44222H25.1288V3.39854L25.1561 3.3849C25.5251 3.01638 25.812 2.78435 26.1536 2.78435C26.4543 2.78435 26.6046 2.97543 26.6046 3.37125V6.45587ZM27.6431 6.60601H26.4543V3.3849C26.4543 3.07097 26.3723 2.94813 26.1536 2.94813C25.8667 2.94813 25.6071 3.15287 25.2791 3.48044V6.60601H24.0903V1.95177H25.2791V2.45678C25.5251 2.22475 25.9623 1.88353 26.6182 1.88353C27.0828 1.88353 27.6294 2.10191 27.6294 3.11192V6.60601H27.6431ZM30.8132 3.34395C30.6902 3.18016 30.4443 2.90719 30.1026 2.90719C29.3374 2.90719 29.2964 3.97179 29.2964 4.31301C29.2964 4.69518 29.3921 5.66424 30.1026 5.66424C30.4716 5.66424 30.7039 5.37762 30.8132 5.22748V3.34395ZM31.838 6.52411H30.7995V6.01911C30.6766 6.16924 30.294 6.60601 29.6927 6.60601C28.7635 6.60601 28.1623 5.58235 28.1623 4.28571C28.1623 2.98908 28.7772 1.95177 29.6927 1.95177C29.884 1.95177 30.3486 1.97907 30.7995 2.53867V0.10919H31.838V6.52411Z" fill="#33312F"/>
<path fill-rule="evenodd" clip-rule="evenodd" d="M30.089 2.98908C29.4604 2.98908 29.3648 3.82166 29.3648 4.31301C29.3648 4.4495 29.3784 5.596 30.1027 5.596C30.4169 5.596 30.6219 5.36397 30.7312 5.21383V3.3849C30.5262 3.11192 30.3213 2.98908 30.089 2.98908ZM30.1027 5.74613C29.4468 5.74613 29.2145 4.9818 29.2145 4.31301C29.2145 3.3576 29.5287 2.83894 30.1027 2.83894C30.3759 2.83894 30.6356 3.00273 30.8815 3.31665L30.8952 3.3303V5.26842L30.8815 5.28207C30.7585 5.43221 30.4989 5.74613 30.1027 5.74613ZM29.6927 2.03367C28.8592 2.03367 28.2443 2.98908 28.2443 4.28571C28.2443 5.58235 28.8455 6.52411 29.6927 6.52411C30.2666 6.52411 30.6219 6.11465 30.7449 5.96451L30.8815 5.80073V6.44222H31.756V0.191083H30.8815V2.75705L30.7449 2.59327C30.4443 2.22475 30.089 2.03367 29.6927 2.03367ZM29.6791 6.6879C28.7499 6.6879 28.0803 5.67789 28.0803 4.29936C28.0803 2.92084 28.7635 1.88353 29.6927 1.88353C30.1436 1.88353 30.4853 2.10191 30.7312 2.34759V0.0545951H31.92V6.61965H30.7312V6.22384C30.5262 6.41492 30.1846 6.6879 29.6791 6.6879ZM33.4914 3.80801C33.5324 2.97543 33.9697 2.72975 34.3113 2.72975C34.5982 2.72975 35.1175 2.92084 35.1585 3.80801H33.4914ZM35.9783 3.20746C35.7734 2.51137 35.1995 1.96542 34.3113 1.96542C33.1908 1.96542 32.4119 2.86624 32.4119 4.23112C32.4119 5.75978 33.3138 6.60601 34.3523 6.60601C35.4454 6.60601 35.869 5.73248 36.0057 5.45951L35.1585 5.07734C35.0628 5.26843 34.8715 5.70519 34.3523 5.70519C34.0517 5.70519 33.5324 5.52775 33.4914 4.49045H36.074C36.1013 4.09463 36.115 3.69882 35.9783 3.20746Z" fill="#33312F"/>
<path fill-rule="evenodd" clip-rule="evenodd" d="M33.5734 3.72611H35.0765C35.0082 2.85259 34.4206 2.798 34.3113 2.798C34.161 2.81165 33.6554 2.87989 33.5734 3.72611ZM35.2405 3.87625H33.4094V3.79436C33.4504 2.94813 33.9014 2.64786 34.3113 2.64786C34.4616 2.64786 35.1858 2.70246 35.2405 3.79436V3.87625ZM34.3113 2.03367C33.2318 2.03367 32.4939 2.92084 32.4939 4.23112C32.4939 5.81438 33.4504 6.52411 34.3523 6.52411C35.3224 6.52411 35.746 5.81438 35.91 5.48681L35.2131 5.17288C35.1038 5.37762 34.8715 5.77343 34.3659 5.77343C34.161 5.77343 33.4778 5.67789 33.4368 4.49045V4.40855H36.033C36.0467 4.02639 36.0467 3.67152 35.9237 3.22111C35.6777 2.48408 35.0765 2.03367 34.3113 2.03367ZM34.3386 6.6879C33.3684 6.6879 32.3299 5.92357 32.3299 4.23112C32.3299 2.8253 33.1225 1.88353 34.3113 1.88353C35.1448 1.88353 35.8144 2.38853 36.0603 3.18016C36.2106 3.67152 36.197 4.06733 36.1696 4.49045V4.55869H33.5871C33.6554 5.5141 34.1473 5.60964 34.3659 5.60964C34.8169 5.60964 34.9945 5.24113 35.1038 5.05005L35.1448 4.96815L36.1286 5.41856L36.0877 5.48681C35.9237 5.78708 35.4864 6.6879 34.3386 6.6879ZM35.6777 0.163785H34.4616L33.4504 1.47407H34.2293L35.6777 0.163785Z" fill="#33312F"/>
<path fill-rule="evenodd" clip-rule="evenodd" d="M33.6144 1.39217H34.202L35.4864 0.245678H34.5162L33.6144 1.39217ZM34.243 1.54231H33.2865L34.4206 0.0818926H35.8827L34.243 1.54231ZM41.9223 0.21838V4.4495H41.9087L39.5857 0.21838H38.3969V6.53776H39.5174V2.12921H39.5311L41.936 6.53776H43.0428V0.21838H41.9223Z" fill="#33312F"/>
<path fill-rule="evenodd" clip-rule="evenodd" d="M41.977 6.45587H42.9608V0.300273H42.0043V4.53139H41.8814L41.8404 4.49045L39.5447 0.300273H38.4789V6.45587H39.4354V2.04732H39.5584L39.5994 2.08826L41.977 6.45587ZM43.1248 6.60601H41.895L39.5994 2.40218V6.60601H38.3286V0.136488H39.6404L41.854 4.17652V0.136488H43.1248V6.60601ZM46.1446 4.21747C45.762 4.29936 44.7509 4.51774 44.7509 5.21383C44.7509 5.5687 45.0105 5.74613 45.2428 5.74613C45.6117 5.74613 46.008 5.40491 46.1446 5.26843V4.21747ZM47.0738 5.5414C47.0738 5.80073 47.1421 6.21019 47.2105 6.41492H46.2676C46.2266 6.26479 46.1993 6.1283 46.1856 5.97816C46.008 6.1556 45.6527 6.48317 45.0515 6.48317C44.4093 6.48317 43.8217 6.06005 43.8217 5.30937C43.8217 4.20382 44.9285 3.71247 46.1446 3.61692V3.49409C46.1446 3.08462 45.8714 2.8253 45.4888 2.8253C45.0515 2.8253 44.7372 3.05732 44.5049 3.41219L43.9173 2.87989C44.2863 2.37489 44.8739 2.08826 45.5024 2.10191C46.172 2.10191 47.0602 2.33394 47.0602 3.56233V5.5414H47.0738Z" fill="#33312F"/>
<path fill-rule="evenodd" clip-rule="evenodd" d="M46.0763 4.31301C45.6664 4.40855 44.8329 4.62693 44.8329 5.21383C44.8329 5.52775 45.0515 5.67789 45.2428 5.67789C45.5707 5.67789 45.926 5.37762 46.0763 5.24113V4.31301ZM45.2428 5.84167C44.9558 5.84167 44.6689 5.63694 44.6689 5.22748C44.6689 4.4495 45.7347 4.23112 46.131 4.14923L46.2266 4.13558V5.32302L46.1993 5.33667C46.049 5.47316 45.6527 5.84167 45.2428 5.84167ZM45.5024 2.72975C45.9397 2.72975 46.2403 3.03003 46.2403 3.48044V3.67152L46.172 3.68517C45.4888 3.73976 43.9174 4.01274 43.9174 5.30937C43.9174 6.06005 44.5049 6.41492 45.0652 6.41492C45.6254 6.41492 45.967 6.08735 46.131 5.92357L46.2403 5.81438L46.2676 5.96451C46.2813 6.06005 46.295 6.16924 46.3359 6.33303H47.1148C47.0465 6.0737 47.0055 5.80073 47.0055 5.5414V3.54868C47.0055 2.40218 46.1993 2.15651 45.5161 2.15651C44.9285 2.15651 44.4093 2.40218 44.0403 2.85259L44.5049 3.27571C44.7782 2.92084 45.1062 2.72975 45.5024 2.72975ZM45.0515 6.56506C44.3956 6.56506 43.7397 6.1283 43.7397 5.30937C43.7397 4.32666 44.5869 3.68517 46.0627 3.53503V3.48044C46.0627 3.11192 45.8304 2.87989 45.4888 2.87989C45.1471 2.87989 44.8192 3.07097 44.5732 3.43949L44.5186 3.50773L43.8217 2.86624L43.8627 2.81165C44.2453 2.29299 44.8602 1.97907 45.5024 1.99272C46.1173 1.99272 47.1421 2.19745 47.1421 3.53503V5.52775C47.1421 5.77343 47.2105 6.18289 47.2788 6.37398L47.3061 6.48317H46.1993L46.1856 6.42857C46.1583 6.33303 46.1446 6.22384 46.1173 6.1283C45.926 6.31938 45.5844 6.56506 45.0515 6.56506ZM49.6701 3.84895C49.2465 3.75341 48.8502 3.65787 48.8502 3.26206C48.8502 3.00273 49.0825 2.7434 49.4651 2.7434C49.7384 2.7434 49.9433 2.85259 50.285 3.08462L50.3806 3.15287L50.9818 2.60692C50.6812 2.36124 50.203 1.96542 49.4514 1.96542C48.5496 1.96542 47.88 2.60692 47.88 3.3576C47.88 4.46315 48.9049 4.70883 49.3558 4.79072C49.7657 4.85896 50.1073 4.9818 50.1073 5.33667C50.1073 5.66424 49.7657 5.78708 49.4651 5.78708C48.9595 5.78708 48.6452 5.5141 48.4129 5.32302L47.7844 5.80073C48.044 6.101 48.5086 6.61965 49.4514 6.61965C50.7222 6.61965 51.1458 5.80073 51.1458 5.17288C51.1458 4.17652 50.2166 3.97179 49.6701 3.84895Z" fill="#33312F"/>
<path fill-rule="evenodd" clip-rule="evenodd" d="M47.8937 5.80073C48.1396 6.08735 48.5769 6.53776 49.4514 6.53776C50.0527 6.53776 51.0638 6.25114 51.0638 5.17288C51.0638 4.25842 50.1756 4.05368 49.6564 3.93085H49.6427L49.6564 3.84895L49.6291 3.9172C49.1918 3.80801 48.7545 3.71247 48.7545 3.24841C48.7545 2.94813 49.0142 2.64786 49.4378 2.64786C49.7247 2.64786 49.9433 2.7707 50.2986 3.00273L50.3396 3.04368L50.8315 2.59327C50.5446 2.36124 50.0937 2.03367 49.4241 2.03367C48.5906 2.03367 47.9347 2.60692 47.9347 3.3576C47.9347 4.43585 48.9868 4.64058 49.3421 4.70883C49.7657 4.79072 50.162 4.91356 50.162 5.32302C50.162 5.70519 49.7794 5.85532 49.4378 5.85532C48.9322 5.85532 48.6042 5.596 48.3856 5.41856L47.8937 5.80073ZM49.4514 6.6879C48.4539 6.6879 47.962 6.11465 47.7297 5.84167L47.6751 5.77343L48.4129 5.20018L48.4539 5.24113C48.6862 5.43221 48.9868 5.67789 49.4651 5.67789C49.7247 5.67789 50.0253 5.58235 50.0253 5.30937C50.0253 5.06369 49.834 4.94086 49.3284 4.84531C48.3173 4.65423 47.798 4.14923 47.798 3.34395C47.798 2.53867 48.5222 1.86988 49.4378 1.86988C50.2166 1.86988 50.7085 2.27934 51.0092 2.52502L51.0775 2.57962L50.3669 3.23476L50.2166 3.13922C49.875 2.90719 49.6837 2.798 49.4378 2.798C49.1098 2.798 48.9048 3.03003 48.9048 3.24841C48.9048 3.56233 49.1918 3.65787 49.6564 3.76706L49.6427 3.84895L49.6701 3.78071C50.203 3.90355 51.2005 4.13558 51.2005 5.17288C51.2278 5.92357 50.6812 6.6879 49.4514 6.6879ZM54.029 2.85259V2.03367H53.3048V0.573248H52.2663V2.03367H51.6514V2.85259H52.2663V5.24113C52.2663 5.69154 52.4166 6.1283 52.7855 6.38762C53.0725 6.606 53.4414 6.61965 54.029 6.59236V5.66424C53.6327 5.65059 53.3048 5.63694 53.3048 5.24113V2.85259H54.029Z" fill="#33312F"/>
<path fill-rule="evenodd" clip-rule="evenodd" d="M51.7334 2.78435H52.3483V5.25478C52.3483 5.52775 52.4166 6.03276 52.8265 6.33303C53.0862 6.53776 53.4414 6.55141 53.947 6.52411V5.74613C53.6191 5.73248 53.2228 5.69154 53.2228 5.24113V2.7707H53.947V2.10191H53.2228V0.655141H52.3483V2.10191H51.7334V2.78435ZM53.6464 6.6879C53.2638 6.6879 52.9768 6.64695 52.7445 6.45587C52.3893 6.19654 52.198 5.77343 52.198 5.24113V2.92084H51.5694V1.93813H52.198V0.491356H53.3868V1.93813H54.0973V2.90719H53.3868V5.22748C53.3868 5.5141 53.5781 5.5687 54.029 5.58235H54.0973V6.6606H54.029C53.8924 6.6879 53.7557 6.6879 53.6464 6.6879Z" fill="#33312F"/>
</g>
</svg>
