<svg width="121" height="100" viewBox="0 0 121 100" fill="none" xmlns="http://www.w3.org/2000/svg">
<path fill-rule="evenodd" clip-rule="evenodd" d="M0.61998 28.4804V32.5241H7.29887V71.5196H13.5978V32.5241H20.0767V28.4804H0.61998Z" fill="#33312F"/>
<path fill-rule="evenodd" clip-rule="evenodd" d="M0.5 28.3803V32.6442H7.15889V71.6397H13.6978V32.6442H20.1767V28.3603L0.5 28.3803ZM0.73996 28.6005L19.9768 28.5805V32.424H13.4778V71.4195H7.39885V32.424H0.73996V28.6005Z" fill="#33312F"/>
<path fill-rule="evenodd" clip-rule="evenodd" d="M22.0564 41.3722V39.5305H16.4773V71.4395H22.3364C22.3364 71.4395 22.4163 50.2002 22.3364 47.8981C22.2364 45.1356 26.3957 44.9554 26.3957 44.9554H28.3354V39.2502C25.1959 38.7898 22.0564 41.3722 22.0564 41.3722Z" fill="#33312F"/>
<path fill-rule="evenodd" clip-rule="evenodd" d="M16.5973 71.3194H22.2364C22.2364 69.6379 22.2964 50.0801 22.2364 47.8981C22.1364 45.0555 26.3557 44.8353 26.3957 44.8353H28.2354V39.3503C25.2159 38.97 22.1764 41.4322 22.1564 41.4522L21.9764 41.6124V39.6306H16.6173V71.3194H16.5973ZM22.4563 71.5396H16.3774V39.4104H22.1764V41.1319C22.8963 40.5914 25.6358 38.7298 28.3554 39.1301L28.4553 39.1501V45.0555H26.3957C26.3957 45.0555 25.3759 45.1156 24.376 45.4959C23.0562 45.9964 22.4163 46.7971 22.4563 47.8781C22.5363 50.1601 22.4563 71.1993 22.4563 71.4195V71.5396ZM58.9703 39.5305L55.6508 59.949L52.0514 39.4504H45.9524L52.2314 71.5396H56.9306L62.8296 39.5505H58.9703V39.5305Z" fill="#33312F"/>
<path fill-rule="evenodd" clip-rule="evenodd" d="M52.3314 71.3995H56.8506L62.6896 39.6306H59.0502L55.6308 60.6096L51.9314 39.5305H46.0724L52.3314 71.3995ZM57.0306 71.6397H52.1314L52.1114 71.5396L45.8125 39.3103H52.1314L52.1514 39.4104L55.6308 59.2484L58.8503 39.4104H62.9496L57.0306 71.6397ZM71.2082 41.4522C71.2082 41.4522 73.6878 41.5323 73.7878 46.1365C73.8878 50.7407 73.7878 53.2229 73.7878 53.2229H68.6286V46.0564C68.6286 46.0564 68.5287 41.4522 71.2082 41.4522ZM73.9678 58.3676V65.454C73.9678 65.454 73.8678 69.3176 71.3882 69.2175C68.8886 69.1374 68.6087 65.454 68.6087 65.454V55.8053H80.2267C81.1466 38.4295 71.2882 39.0701 71.2882 39.0701C61.6898 40.2712 62.3497 52.7625 62.3497 52.7625C62.3497 52.7625 61.1499 72.1601 71.4882 71.7998C81.8065 71.4395 80.1667 58.3876 80.1667 58.3876H73.9678V58.3676Z" fill="#33312F"/>
<path fill-rule="evenodd" clip-rule="evenodd" d="M73.6678 53.1028C73.6878 52.5623 73.7478 50.1401 73.6678 46.1365C73.5678 41.7525 71.2682 41.5723 71.1882 41.5523C70.6683 41.5523 70.2284 41.7525 69.8484 42.1128C68.6686 43.3139 68.7086 46.0164 68.7086 46.0364V53.1028H73.6678ZM73.8878 53.323H68.5087V46.0364C68.5087 45.9363 68.4687 43.2138 69.7085 41.9527C70.1284 41.5323 70.6283 41.3321 71.2082 41.3321C71.3282 41.3321 73.8078 41.4722 73.9078 46.1365C74.0078 50.6806 73.9078 53.1829 73.9078 53.2229L73.8878 53.323ZM71.4282 39.1702H71.3082C61.9298 40.3312 62.4497 52.6224 62.4697 52.7425C62.4697 52.8826 61.7698 64.8735 66.489 69.6979C67.8488 71.0792 69.5285 71.7398 71.4882 71.6797C74.0677 71.5796 76.1274 70.6788 77.5872 68.9572C80.6467 65.374 80.1467 59.3285 80.0667 58.4677H74.1077V65.4541C74.1077 65.5541 74.0477 67.7161 72.9079 68.7771C72.488 69.1574 71.9881 69.3376 71.4082 69.3376C70.3484 69.2975 69.5085 68.6169 68.9886 67.3558C68.7486 66.7552 68.5887 66.1146 68.5287 65.4741V55.7052H80.1467C80.4867 48.9591 79.2469 44.1547 76.4873 41.4122C74.3477 39.3103 71.9681 39.1702 71.4282 39.1702ZM71.1882 71.8999C69.2685 71.8999 67.6288 71.2193 66.309 69.8581C61.5298 64.9736 62.2297 52.8826 62.2297 52.7625C62.2297 52.6424 61.6898 40.151 71.2682 38.95C71.3082 38.95 74.1477 38.7898 76.6273 41.232C79.4668 44.0146 80.7066 48.919 80.3467 55.8053V55.9054H68.7286V65.4541C68.7286 65.4741 69.0286 69.0173 71.3882 69.1174C71.9081 69.1374 72.368 68.9773 72.728 68.6169C73.7878 67.616 73.8478 65.4741 73.8478 65.4541V58.2675H80.2467L80.2667 58.3676C80.2867 58.4277 81.0866 65.2138 77.7471 69.1374C76.2474 70.899 74.1477 71.8399 71.4882 71.9199C71.3882 71.8999 71.2882 71.9199 71.1882 71.8999ZM98.0238 41.4522C98.0238 41.4522 100.523 41.5323 100.603 46.1365C100.703 50.7407 100.603 53.2229 100.603 53.2229H95.4242V46.0564C95.4442 46.0564 95.3642 41.4522 98.0238 41.4522ZM100.803 58.3676V65.4541C100.803 65.4541 100.703 69.3176 98.2237 69.2175C95.7241 69.1374 95.4442 65.4541 95.4442 65.4541V55.8053H107.062C107.982 38.4295 98.1237 39.0701 98.1237 39.0701C88.5253 40.2712 89.1852 52.7625 89.1852 52.7625C89.1852 52.7625 87.9854 72.1601 98.3237 71.7998C108.662 71.4395 107.002 58.3876 107.002 58.3876H100.803V58.3676Z" fill="#33312F"/>
<path fill-rule="evenodd" clip-rule="evenodd" d="M100.503 53.1028C100.523 52.5623 100.583 50.1401 100.503 46.1365C100.423 41.7325 98.1637 41.5723 98.0238 41.5523C97.5038 41.5523 97.0439 41.7525 96.684 42.1128C95.5042 43.3139 95.5442 46.0164 95.5442 46.0364V53.1028H100.503ZM100.723 53.323H95.3242V46.0364C95.3242 45.9363 95.2842 43.2138 96.524 41.9527C96.9239 41.5323 97.4239 41.3321 98.0238 41.3321C98.1237 41.3321 100.623 41.4722 100.723 46.1365C100.823 50.6806 100.723 53.1829 100.723 53.2229V53.323ZM98.2437 39.1702H98.1237C88.7653 40.3312 89.2852 52.6224 89.2852 52.7425C89.2852 52.8826 88.5853 64.8935 93.2845 69.6979C94.6443 71.0792 96.324 71.7398 98.2837 71.6797C100.883 71.5796 102.923 70.6788 104.383 68.9773C107.442 65.394 106.942 59.3285 106.862 58.4877H100.903V65.4541C100.903 65.5541 100.843 67.7361 99.7035 68.7771C99.3035 69.1574 98.7636 69.3576 98.2037 69.3376C97.1439 69.2975 96.304 68.6169 95.7841 67.3558C95.5442 66.7552 95.3842 66.1147 95.3242 65.4741V55.7052H106.942C107.282 48.9591 106.062 44.1547 103.283 41.4322C101.163 39.2903 98.7836 39.1702 98.2437 39.1702ZM98.0238 71.8999C96.1041 71.8999 94.4643 71.2193 93.1246 69.8581C88.3454 64.9736 89.0452 52.8826 89.0652 52.7625C89.0452 52.6424 88.5253 40.151 98.1037 38.95C98.1437 38.95 100.963 38.7898 103.463 41.232C106.302 44.0146 107.562 48.919 107.182 55.8053V55.9054H95.5642V65.4541C95.5642 65.4741 95.8641 69.0173 98.2237 69.1174C98.7436 69.1374 99.2036 68.9773 99.5635 68.6169C100.623 67.616 100.683 65.4741 100.683 65.4541V58.2675H107.082L107.102 58.3676C107.102 58.4277 107.922 65.2138 104.583 69.1374C103.083 70.899 100.983 71.8399 98.3237 71.9199C98.2237 71.8999 98.1237 71.9199 98.0238 71.8999ZM81.9064 71.5196H87.5255V28.1201H81.9064V71.5196Z" fill="#33312F"/>
<path fill-rule="evenodd" clip-rule="evenodd" d="M82.0264 71.3995H87.4255V28.2402H82.0264V71.3995ZM81.7865 71.6397H87.6455V28H81.7865V71.6397ZM114.101 40.9918V39.1501H108.522V71.4995H114.381C114.381 71.4995 114.361 49.7998 114.381 47.4977C114.401 44.7352 118.44 44.555 118.44 44.555H120.38V38.8499C117.241 38.4295 114.101 40.9918 114.101 40.9918Z" fill="#33312F"/>
<path fill-rule="evenodd" clip-rule="evenodd" d="M114.501 71.6397H108.402V39.05H114.221V40.7716C114.941 40.2311 117.68 38.3694 120.4 38.7698L120.5 38.7898V44.6952H118.44C118.44 44.6952 117.441 44.7552 116.461 45.1156C115.161 45.616 114.501 46.4368 114.501 47.5177C114.481 49.7798 114.501 71.2994 114.501 71.5196V71.6397ZM40.0134 64.8735C40.0134 64.8735 39.7735 67.616 37.6138 67.636C35.3142 67.6561 34.7543 65.1738 34.7543 65.1738V57.4268C34.7543 57.4268 34.8143 56.4058 35.3942 55.7652C35.9741 55.1247 39.1736 53.4031 40.0134 52.6824V64.8735ZM37.7338 39.1501C28.1354 39.3303 29.4352 49.0591 29.4352 49.0591H35.2142V44.8553C35.2142 44.8553 35.6141 41.7325 37.6338 41.7325C39.6535 41.7325 39.9134 44.7152 39.9134 44.7152V48.9991C39.6335 49.4995 37.7338 50.8608 37.7338 50.8608C36.9939 51.3612 36.1341 52.0018 33.8544 53.5232C31.0549 55.3849 29.8351 57.3867 29.8351 57.3867C28.0554 60.2093 28.5553 66.8954 29.5352 68.7571C29.9151 69.5177 31.3749 71.8799 34.7943 71.8799C38.2137 71.8799 40.3334 69.6779 40.3334 69.6779V71.5196H45.7725V49.0792C45.7525 38.6096 37.7338 39.1501 37.7338 39.1501Z" fill="#33312F"/>
<path fill-rule="evenodd" clip-rule="evenodd" d="M34.8543 65.1538C34.8743 65.2338 35.0143 65.7944 35.4142 66.3349C35.9541 67.1156 36.694 67.5159 37.6138 67.4959C38.4537 67.4759 39.0936 67.0355 39.5135 66.1747C39.8135 65.5341 39.8934 64.9136 39.8934 64.8335V52.8826C39.4335 53.2229 38.6536 53.7034 37.8338 54.2238C36.8139 54.8444 35.7741 55.505 35.4742 55.8253C34.9143 56.4258 34.8543 57.4067 34.8543 57.4067V65.1538ZM37.5738 67.7361C35.2342 67.7361 34.6543 65.2338 34.6343 65.1938V57.4268C34.6343 57.3667 34.6943 56.3658 35.3142 55.6852C35.6341 55.3449 36.654 54.7043 37.7338 54.0437C38.6336 53.4832 39.5735 52.9227 39.9534 52.5823L40.1334 52.4222V64.8935C40.1334 64.9136 39.8534 67.7161 37.6338 67.7561H37.5738V67.7361ZM37.6338 41.6124C39.7535 41.6124 40.0134 44.6551 40.0134 44.6952V49.0191L39.9934 49.0391C39.7135 49.5396 37.8538 50.8808 37.7738 50.9409C37.4938 51.121 37.1939 51.3412 36.8339 51.6015C36.1941 52.0419 35.3342 52.6624 33.8944 53.6233C31.1549 55.465 29.9151 57.4268 29.8951 57.4468C28.1554 60.2093 28.6353 66.8553 29.5952 68.697C30.0751 69.6178 31.5348 71.7598 34.7543 71.7598C37.9738 71.7598 40.1934 69.6178 40.2134 69.5978L40.4134 69.3976V71.3995H45.6325V49.0792C45.6325 45.5359 44.7126 42.8735 42.8929 41.192C40.6333 39.0901 37.7538 39.2702 37.7338 39.2702C34.9743 39.3303 32.8746 40.1711 31.4548 41.8126C29.1952 44.4349 29.4552 48.2985 29.5152 48.9591H35.0742V44.8553C35.1142 44.7152 35.5342 41.6124 37.6338 41.6124ZM34.7743 72C31.4348 72 29.9151 69.778 29.4152 68.8171C28.4353 66.9354 27.9354 60.1492 29.7351 57.3267C29.7551 57.3066 31.0149 55.2848 33.7945 53.4231C35.2142 52.4622 36.0941 51.8617 36.714 51.4013C37.0939 51.141 37.3739 50.9409 37.6538 50.7407C38.1737 50.3603 39.5335 49.3394 39.7935 48.939V44.6752C39.7935 44.6551 39.5335 41.8126 37.6338 41.8126C35.7341 41.8126 35.3142 44.8153 35.3142 44.8353V49.1592H29.3152L29.2952 49.0591C29.2952 49.0191 28.7353 44.5751 31.2749 41.6324C32.7146 39.9509 34.8943 39.0701 37.7138 39.01C37.8338 39.01 40.7533 38.8499 43.0529 40.9918C44.9126 42.7334 45.8524 45.4359 45.8524 49.0591V71.5996H40.1934V69.8981C39.5935 70.4786 37.6138 72 34.7743 72ZM27.1556 34.4659C26.6556 36.1074 25.4958 36.1074 25.3359 36.1074C24.1561 36.1074 23.6361 34.606 23.6361 33.0246C23.6361 32.0036 23.8761 29.6215 25.4958 29.6215C25.9958 29.6215 26.7956 29.8417 27.0756 31.1429L28.6153 30.6624C28.5153 30.242 27.8354 28.1001 25.5758 28.1201C23.5762 28.1201 21.9164 29.8016 21.9164 33.0846C21.9164 36.6679 23.9761 37.7288 25.5358 37.7288C26.7956 37.7288 27.5755 37.0682 28.0554 36.4076C28.4553 35.8471 28.5553 35.3667 28.6753 34.9063L27.1556 34.4659Z" fill="#33312F"/>
<path fill-rule="evenodd" clip-rule="evenodd" d="M25.6158 28.2402H25.5758C23.4162 28.2402 22.0364 30.1419 22.0364 33.1046C22.0364 37.4286 24.9559 37.6488 25.5558 37.6488C26.5557 37.6488 27.3755 37.2084 27.9954 36.3676C28.3554 35.8672 28.4553 35.4468 28.5753 35.0064L27.2755 34.606C26.7556 36.1074 25.6958 36.2275 25.3759 36.2275C24.0361 36.2275 23.5562 34.5059 23.5562 33.0446C23.5562 32.4641 23.6561 29.5414 25.5358 29.5414C26.0157 29.5414 26.8756 29.7416 27.1956 31.0428L28.5153 30.6224C28.3354 30.1019 27.6755 28.2402 25.6158 28.2402ZM25.5358 37.869C24.9759 37.869 23.9361 37.7288 23.0562 36.848C22.1764 35.9672 21.7965 34.7461 21.7965 33.1046C21.7965 30.0218 23.2762 28.02 25.5758 28.02H25.6158C27.5955 28.02 28.4953 29.6615 28.7153 30.6424L28.7353 30.7425L26.9956 31.303L26.9756 31.1829C26.7156 29.9418 25.9358 29.7416 25.5158 29.7416C23.8561 29.7416 23.7761 32.4841 23.7761 33.0246C23.7761 34.3858 24.1961 35.9873 25.3559 35.9873C25.7358 35.9873 26.6356 35.8271 27.0756 34.4058L27.1156 34.2857L28.8553 34.8262L28.8153 34.9864C28.7153 35.4468 28.5953 35.9072 28.1954 36.4677C27.6955 37.1283 26.8956 37.869 25.5358 37.869ZM30.9949 34.2857C30.9949 34.7061 31.0349 36.4877 32.1747 36.4877C33.3145 36.4877 33.3745 34.6861 33.3745 34.1056C33.3745 33.525 33.2545 31.9836 32.1947 31.9836C31.2149 31.9636 30.9949 33.2247 30.9949 34.2857ZM34.8943 34.2457C34.8943 36.6679 33.5145 37.6888 32.1947 37.6888C30.9949 37.6888 29.4752 36.808 29.4752 34.2457C29.4752 32.0237 30.615 30.8426 32.0347 30.8426C34.3144 30.8626 34.8943 32.7043 34.8943 34.2457Z" fill="#33312F"/>
<path fill-rule="evenodd" clip-rule="evenodd" d="M32.2147 32.0837C31.3149 32.0837 31.1149 33.2848 31.1149 34.2857C31.1149 34.9063 31.2149 36.3676 32.1947 36.3676C33.0946 36.3676 33.2745 35.1265 33.2745 34.1056C33.2745 33.6251 33.1946 32.0837 32.2147 32.0837ZM32.1947 36.5878C31.3749 36.5878 30.8949 35.747 30.8949 34.2857C30.8949 32.7043 31.3549 31.8635 32.2147 31.8635C33.4145 31.8635 33.5145 33.5851 33.5145 34.1056C33.4945 36.1674 32.7946 36.5878 32.1947 36.5878ZM32.0547 30.9827C30.575 30.9827 29.6152 32.2639 29.6152 34.2657C29.6152 36.7079 31.0149 37.5887 32.2147 37.5887C33.9944 37.5887 34.7943 35.9072 34.7943 34.2657C34.7743 33.2648 34.5143 30.9827 32.0547 30.9827ZM32.2147 37.8089C30.815 37.8089 29.3752 36.7079 29.3752 34.2657C29.3752 32.1237 30.435 30.7625 32.0547 30.7625C32.9546 30.7625 35.0143 31.1028 35.0143 34.2657C35.0143 36.7079 33.6145 37.8089 32.2147 37.8089ZM39.4535 30.8826C38.3537 30.8826 37.6738 31.5833 37.3739 31.9035V31.0027H35.8541V37.5887H37.3739V33.0646C37.9138 32.5041 38.3137 32.2238 38.7536 32.2238C39.1936 32.2238 39.3135 32.6242 39.3135 32.9845V37.5887H40.8133V32.5641C40.8333 31.4631 40.3934 30.8826 39.4535 30.8826Z" fill="#33312F"/>
<path fill-rule="evenodd" clip-rule="evenodd" d="M39.4335 37.4686H40.7133V32.5641C40.7133 31.5032 40.2934 30.9827 39.4535 30.9827C38.3937 30.9827 37.7338 31.6633 37.4738 31.9636L37.2739 32.1638V31.0828H35.9941V37.4486H37.2739V32.9845L37.3139 32.9645C37.8538 32.424 38.2737 32.0837 38.7736 32.0837C39.2135 32.0837 39.4335 32.364 39.4335 32.9445V37.4686ZM40.9533 37.6888H39.2135V32.9645C39.2135 32.5041 39.0936 32.3239 38.7736 32.3239C38.3537 32.3239 37.9738 32.6242 37.4938 33.1046V37.6888H35.7541V30.8626H37.4938V31.6033C37.8538 31.263 38.4937 30.7625 39.4535 30.7625C40.1334 30.7625 40.9333 31.0828 40.9333 32.5641V37.6888H40.9533ZM45.5925 32.9045C45.4125 32.6642 45.0526 32.2639 44.5527 32.2639C43.4328 32.2639 43.3729 33.8253 43.3729 34.3258C43.3729 34.8863 43.5128 36.3076 44.5527 36.3076C45.0926 36.3076 45.4325 35.8872 45.5925 35.667V32.9045ZM47.0922 37.5687H45.5725V36.828C45.3925 37.0482 44.8326 37.6888 43.9528 37.6888C42.593 37.6888 41.7131 36.1874 41.7131 34.2857C41.7131 32.384 42.613 30.8626 43.9528 30.8626C44.2327 30.8626 44.9126 30.9026 45.5725 31.7234V28.1601H47.0922V37.5687Z" fill="#33312F"/>
<path fill-rule="evenodd" clip-rule="evenodd" d="M44.5327 32.384C43.6128 32.384 43.4728 33.6051 43.4728 34.3258C43.4728 34.5259 43.4928 36.2075 44.5527 36.2075C45.0126 36.2075 45.3125 35.8672 45.4725 35.647V32.9645C45.1726 32.5641 44.8726 32.384 44.5327 32.384ZM44.5527 36.4277C43.5928 36.4277 43.2529 35.3066 43.2529 34.3258C43.2529 32.9245 43.7128 32.1638 44.5527 32.1638C44.9526 32.1638 45.3325 32.404 45.6925 32.8644L45.7125 32.8844V35.727L45.6925 35.747C45.5125 35.9672 45.1326 36.4277 44.5527 36.4277ZM43.9528 30.9827C42.733 30.9827 41.8331 32.384 41.8331 34.2857C41.8331 36.1874 42.713 37.5687 43.9528 37.5687C44.7926 37.5687 45.3125 36.9682 45.4925 36.748L45.6925 36.5077V37.4486H46.9723V28.2803H45.6925V32.0437L45.4925 31.8035C45.0526 31.263 44.5327 30.9827 43.9528 30.9827ZM43.9328 37.8089C42.573 37.8089 41.5932 36.3276 41.5932 34.3057C41.5932 32.2839 42.593 30.7625 43.9528 30.7625C44.6127 30.7625 45.1126 31.0828 45.4725 31.4431V28.0801H47.2122V37.7088H45.4725V37.1283C45.1726 37.4086 44.6726 37.8089 43.9328 37.8089ZM49.5118 33.5851C49.5718 32.364 50.2117 32.0036 50.7116 32.0036C51.1316 32.0036 51.8914 32.2839 51.9514 33.5851H49.5118ZM53.1512 32.7043C52.8513 31.6833 52.0114 30.8826 50.7116 30.8826C49.0719 30.8826 47.9321 32.2038 47.9321 34.2056C47.9321 36.4477 49.2519 37.6888 50.7716 37.6888C52.3714 37.6888 52.9913 36.4076 53.1912 36.0073L51.9514 35.4468C51.8115 35.727 51.5315 36.3676 50.7716 36.3676C50.3317 36.3676 49.5718 36.1074 49.5118 34.586H53.2912C53.3312 34.0055 53.3512 33.4249 53.1512 32.7043Z" fill="#33312F"/>
<path fill-rule="evenodd" clip-rule="evenodd" d="M49.6318 33.465H51.8315C51.7315 32.1838 50.8716 32.1037 50.7116 32.1037C50.4917 32.1237 49.7518 32.2238 49.6318 33.465ZM52.0714 33.6852H49.3919V33.5651C49.4518 32.3239 50.1117 31.8835 50.7116 31.8835C50.9316 31.8835 51.9914 31.9636 52.0714 33.5651V33.6852ZM50.7116 30.9827C49.1319 30.9827 48.0521 32.2839 48.0521 34.2056C48.0521 36.5278 49.4518 37.5687 50.7716 37.5687C52.1914 37.5687 52.8113 36.5278 53.0512 36.0473L52.0314 35.5869C51.8714 35.8872 51.5315 36.4677 50.7916 36.4677C50.4917 36.4677 49.4918 36.3276 49.4318 34.586V34.4659H53.2312C53.2512 33.9054 53.2512 33.3849 53.0712 32.7243C52.7113 31.6433 51.8314 30.9827 50.7116 30.9827ZM50.7516 37.8089C49.3319 37.8089 47.8121 36.6879 47.8121 34.2056C47.8121 32.1438 48.9719 30.7625 50.7116 30.7625C51.9314 30.7625 52.9113 31.5032 53.2712 32.6642C53.4912 33.3849 53.4712 33.9654 53.4312 34.586V34.6861H49.6518C49.7518 36.0874 50.4717 36.2275 50.7916 36.2275C51.4515 36.2275 51.7115 35.687 51.8714 35.4067L51.9314 35.2866L53.3712 35.9472L53.3112 36.0473C53.0712 36.4877 52.4314 37.8089 50.7516 37.8089ZM52.7113 28.2402H50.9316L49.4518 30.162H50.5917L52.7113 28.2402Z" fill="#33312F"/>
<path fill-rule="evenodd" clip-rule="evenodd" d="M49.6918 30.0419H50.5517L52.4313 28.3603H51.0116L49.6918 30.0419ZM50.6116 30.2621H49.2119L50.8716 28.1201H53.0112L50.6116 30.2621ZM61.8498 28.3203V34.5259H61.8298L58.4303 28.3203H56.6906V37.5887H58.3304V31.1228H58.3504L61.8698 37.5887H63.4895V28.3203H61.8498Z" fill="#33312F"/>
<path fill-rule="evenodd" clip-rule="evenodd" d="M61.9298 37.4686H63.3695V28.4404H61.9698V34.646H61.7898L61.7298 34.586L58.3704 28.4404H56.8106V37.4686H58.2104V31.0027H58.3904L58.4503 31.0628L61.9298 37.4686ZM63.6095 37.6888H61.8098L58.4503 31.5232V37.6888H56.5907V28.2002H58.5103L61.7498 34.1256V28.2002H63.6095V37.6888ZM68.0288 34.1856C67.4688 34.3057 65.9891 34.626 65.9891 35.647C65.9891 36.1674 66.369 36.4277 66.709 36.4277C67.2489 36.4277 67.8288 35.9272 68.0288 35.727V34.1856ZM69.3885 36.1274C69.3885 36.5077 69.4885 37.1083 69.5885 37.4086H68.2087C68.1487 37.1884 68.1087 36.9882 68.0887 36.768C67.8288 37.0282 67.3089 37.5086 66.429 37.5086C65.4892 37.5086 64.6293 36.8881 64.6293 35.7871C64.6293 34.1656 66.2491 33.445 68.0288 33.3048V33.1247C68.0288 32.5241 67.6288 32.1438 67.0689 32.1438C66.429 32.1438 65.9691 32.4841 65.6292 33.0045L64.7693 32.2238C65.3092 31.4832 66.1691 31.0628 67.0889 31.0828C68.0687 31.0828 69.3685 31.4231 69.3685 33.2248V36.1274H69.3885Z" fill="#33312F"/>
<path fill-rule="evenodd" clip-rule="evenodd" d="M67.9288 34.3258C67.3289 34.4659 66.1091 34.7862 66.1091 35.647C66.1091 36.1074 66.429 36.3276 66.709 36.3276C67.1889 36.3276 67.7088 35.8872 67.9288 35.687V34.3258ZM66.709 36.5678C66.289 36.5678 65.8691 36.2675 65.8691 35.667C65.8691 34.5259 67.4289 34.2056 68.0088 34.0855L68.1487 34.0655V35.8071L68.1087 35.8271C67.8888 36.0273 67.3089 36.5678 66.709 36.5678ZM67.0889 32.0036C67.7288 32.0036 68.1687 32.444 68.1687 33.1046V33.3849L68.0687 33.4049C67.0689 33.485 64.7693 33.8854 64.7693 35.7871C64.7693 36.8881 65.6292 37.4086 66.449 37.4086C67.2689 37.4086 67.7688 36.9281 68.0088 36.6879L68.1687 36.5278L68.2087 36.748C68.2287 36.8881 68.2487 37.0482 68.3087 37.2884H69.4485C69.3485 36.9081 69.2885 36.5077 69.2885 36.1274V33.2047C69.2885 31.5232 68.1087 31.1629 67.1089 31.1629C66.249 31.1629 65.4892 31.5232 64.9493 32.1838L65.6292 32.8044C66.0291 32.2839 66.509 32.0036 67.0889 32.0036ZM66.429 37.6288C65.4692 37.6288 64.5093 36.9882 64.5093 35.7871C64.5093 34.3458 65.7491 33.4049 67.9088 33.1847V33.1046C67.9088 32.5641 67.5688 32.2238 67.0689 32.2238C66.569 32.2238 66.0891 32.5041 65.7291 33.0446L65.6491 33.1447L64.6293 32.2038L64.6893 32.1237C65.2492 31.3631 66.1491 30.9026 67.0889 30.9227C67.9888 30.9227 69.4885 31.2229 69.4885 33.1847V36.1074C69.4885 36.4677 69.5885 37.0682 69.6885 37.3485L69.7285 37.5086H68.1087L68.0887 37.4286C68.0487 37.2884 68.0287 37.1283 67.9888 36.9882C67.7088 37.2684 67.2089 37.6288 66.429 37.6288ZM73.1879 33.6451C72.568 33.505 71.9881 33.3649 71.9881 32.7843C71.9881 32.404 72.328 32.0237 72.8879 32.0237C73.2879 32.0237 73.5878 32.1838 74.0877 32.5241L74.2277 32.6242L75.1076 31.8235C74.6676 31.4631 73.9678 30.8826 72.8679 30.8826C71.5482 30.8826 70.5683 31.8235 70.5683 32.9245C70.5683 34.546 72.0681 34.9063 72.728 35.0264C73.3279 35.1265 73.8278 35.3066 73.8278 35.8271C73.8278 36.3076 73.3279 36.4877 72.8879 36.4877C72.1481 36.4877 71.6881 36.0874 71.3482 35.8071L70.4284 36.5077C70.8083 36.9481 71.4882 37.7088 72.8679 37.7088C74.7276 37.7088 75.3475 36.5077 75.3475 35.5869C75.3475 34.1256 73.9878 33.8253 73.1879 33.6451Z" fill="#33312F"/>
<path fill-rule="evenodd" clip-rule="evenodd" d="M70.5883 36.5077C70.9483 36.9281 71.5882 37.5887 72.8679 37.5887C73.7478 37.5887 75.2275 37.1683 75.2275 35.5869C75.2275 34.2457 73.9278 33.9454 73.1679 33.7652H73.1479L73.1679 33.6451L73.1279 33.7452C72.488 33.5851 71.8481 33.4449 71.8481 32.7643C71.8481 32.3239 72.228 31.8835 72.8479 31.8835C73.2679 31.8835 73.5878 32.0637 74.1077 32.404L74.1677 32.4641L74.8876 31.8035C74.4677 31.4631 73.8078 30.9827 72.8279 30.9827C71.6082 30.9827 70.6483 31.8235 70.6483 32.9245C70.6483 34.5059 72.1881 34.8062 72.708 34.9063C73.3279 35.0264 73.9078 35.2066 73.9078 35.8071C73.9078 36.3676 73.3479 36.5878 72.8479 36.5878C72.1081 36.5878 71.6281 36.2075 71.3082 35.9472L70.5883 36.5077ZM72.8679 37.8089C71.4082 37.8089 70.6883 36.9682 70.3484 36.5678L70.2684 36.4677L71.3482 35.6269L71.4082 35.687C71.7481 35.9672 72.1881 36.3276 72.8879 36.3276C73.2679 36.3276 73.7078 36.1874 73.7078 35.7871C73.7078 35.4268 73.4278 35.2466 72.688 35.1065C71.2082 34.8262 70.4483 34.0855 70.4483 32.9045C70.4483 31.7234 71.5082 30.7425 72.8479 30.7425C73.9877 30.7425 74.7076 31.343 75.1476 31.7034L75.2475 31.7834L74.2077 32.7443L73.9878 32.6042C73.4878 32.2639 73.2079 32.1037 72.8479 32.1037C72.368 32.1037 72.0681 32.444 72.0681 32.7643C72.0681 33.2247 72.488 33.3649 73.1679 33.525L73.1479 33.6451L73.1879 33.545C73.9678 33.7252 75.4275 34.0655 75.4275 35.5869C75.4675 36.6879 74.6676 37.8089 72.8679 37.8089ZM79.5668 32.1838V30.9827H78.507V28.8408H76.9873V30.9827H76.0874V32.1838H76.9873V35.687C76.9873 36.3476 77.2072 36.9882 77.7471 37.3685C78.1671 37.6888 78.707 37.7088 79.5668 37.6688V36.3076C78.9869 36.2875 78.507 36.2675 78.507 35.687V32.1838H79.5668Z" fill="#33312F"/>
<path fill-rule="evenodd" clip-rule="evenodd" d="M76.2074 32.0837H77.1072V35.707C77.1072 36.1074 77.2072 36.848 77.8071 37.2884C78.1871 37.5887 78.707 37.6087 79.4468 37.5687V36.4277C78.9669 36.4076 78.387 36.3476 78.387 35.687V32.0637H79.4468V31.0828H78.387V28.9609H77.1072V31.0828H76.2074V32.0837ZM79.0069 37.8089C78.447 37.8089 78.0271 37.7489 77.6871 37.4686C77.1672 37.0883 76.8873 36.4677 76.8873 35.687V32.2839H75.9674V30.8426H76.8873V28.7207H78.627V30.8426H79.6668V32.2639H78.627V35.667C78.627 36.0874 78.9069 36.1674 79.5668 36.1874H79.6668V37.7689H79.5668C79.3669 37.8089 79.1669 37.8089 79.0069 37.8089Z" fill="#33312F"/>
</svg>
