<svg width="149" height="100" viewBox="0 0 149 100" fill="none" xmlns="http://www.w3.org/2000/svg">
<path d="M0 33H19.8494V36.5337H12.0752V47.2055H7.77421V36.5337H0V33ZM19.8494 66.6659H3.47322V52.457H7.77421V63.1288H19.8494V66.6659ZM36.0877 42.5783H29.8276V47.2089H25.5266V33H36.9844C41.3716 33 43.5032 35.1026 43.5032 37.779C43.5032 39.6994 42.3167 41.1304 40.1817 41.8527L44.5517 47.2055H39.7368L36.0877 42.5783ZM29.8276 63.1288H42.0753V66.6625H25.5266V52.457H41.7303V55.9907H29.8276V57.8773H39.5471V61.0768H29.8276V63.1288ZM39.0297 37.8297C39.0297 36.9893 38.4779 36.5337 37.1534 36.5337H29.8276V39.1257H37.1569C38.4813 39.1257 39.0297 38.6734 39.0297 37.8297ZM62.4075 44.7991H53.2572L51.8292 47.2055H47.1833L55.9578 33H59.8276L68.6021 47.2055H63.8355L62.4075 44.7991ZM52.9467 66.6659H48.6457V52.457H52.9467V66.6659ZM60.4105 41.4342L57.8306 37.0568L55.2507 41.4342H60.4105ZM75.0001 56.9019C71.6959 55.7915 69.9093 55.5047 67.7398 55.5047C65.0047 55.5047 64.4046 55.9434 64.4046 56.5475C64.4046 56.9863 64.7495 57.2361 65.8842 57.3373L72.1615 57.8604C76.497 58.2148 78.0112 59.9462 78.0112 62.2547C78.0112 64.9817 74.9829 67 68.8435 67C66.0567 67 62.342 66.4262 59.0723 65.3665L61.3418 61.9003C64.577 63.0613 67.6708 63.5845 69.9265 63.5845C72.8858 63.5845 73.5377 63.1288 73.5377 62.5585C73.5377 62.1028 73.21 61.7518 71.9201 61.6337L65.8152 61.0768C61.6694 60.7056 60.1036 59.1733 60.1036 56.8682C60.1036 54.428 62.4593 52.1229 68.5848 52.1229C71.251 52.1229 74.0551 52.6291 77.1006 53.7227L75.0001 56.9019ZM79.8668 47.2055H75.9969L67.2225 33H72.0719L77.9905 42.7302L83.9091 33H88.6377L79.8668 47.2055ZM97.1535 60.2668V52.457H101.455V60.4356C101.455 64.7792 98.4952 67 92.4766 67C86.4579 67 83.4986 64.7792 83.4986 60.4356V52.457H87.7996V60.2668C87.7996 62.3863 89.1413 63.2976 92.48 63.2976C95.8118 63.2976 97.1535 62.3897 97.1535 60.2668ZM96.6741 43.6718H108.922V47.2055H92.3731V33H108.577V36.5337H96.6741V38.4203H106.394V41.6198H96.6741V43.6718ZM118.555 62.0353H112.295V66.6659H107.991V52.457H119.448C123.836 52.457 125.967 54.5597 125.967 57.2361C125.967 59.1564 124.781 60.5875 122.649 61.3097L127.019 66.6625H122.201L118.555 62.0353ZM121.494 57.2901C121.494 56.4497 120.942 55.994 119.621 55.994H112.292V58.5861H119.621C120.945 58.5861 121.494 58.1304 121.494 57.2901ZM131.868 47.2055H115.492V33H119.793V43.6718H131.868V47.2055ZM136.752 63.1288H149V66.6625H132.451V52.457H148.655V55.9907H136.752V57.8773H146.472V61.0768H136.752V63.1288ZM135.514 38.3359H140.364V34.1779H143.806V38.3359H148.655V41.5354H143.806V45.6935H140.364V41.5354H135.514V38.3359Z" fill="#33312F"/>
</svg>
