<svg width="152" height="73" viewBox="0 0 152 73" fill="none" xmlns="http://www.w3.org/2000/svg">
<g id="Watermark" clip-path="url(#clip0_396_24)">
<g id="Group">
<path id="Vector" d="M57.1956 72.9045C57.0871 72.6181 56.9466 72.2808 56.7934 71.8799C56.6338 71.4789 56.4614 71.0588 56.2827 70.6197C56.1039 70.1806 55.9124 69.7223 55.7273 69.2641C55.5421 68.8058 55.357 68.3667 55.1782 67.953C55.2484 67.9657 55.3123 67.9721 55.3761 67.9785C55.44 67.9848 55.4974 67.9912 55.5549 67.9912C55.6123 67.9912 55.6698 67.9912 55.7336 67.9785C55.7975 67.9721 55.8613 67.9657 55.9316 67.953C56.0401 68.2712 56.155 68.6022 56.2827 68.9522C56.4104 69.3023 56.5444 69.6587 56.6849 70.0151C56.8253 70.3779 56.9722 70.7406 57.1254 71.1098C57.2722 71.4789 57.4254 71.848 57.5787 72.2172C57.668 72.0199 57.7574 71.7971 57.8596 71.5553C57.9617 71.3134 58.0639 71.0588 58.166 70.7979C58.2681 70.537 58.3703 70.2697 58.4724 69.996C58.5746 69.7223 58.6703 69.4614 58.7661 69.2132C58.8619 68.9649 58.9449 68.7295 59.0215 68.5131C59.0981 68.2967 59.1619 68.1057 59.2194 67.953C59.3279 67.9785 59.4173 67.9912 59.4875 67.9912C59.5577 67.9912 59.6471 67.9785 59.7557 67.953C59.379 68.7931 59.0151 69.6205 58.6703 70.4415C58.3256 71.2625 57.9872 72.0899 57.668 72.9109C57.5914 72.8982 57.5084 72.8982 57.4318 72.8982C57.3361 72.8982 57.2531 72.8982 57.1892 72.9109L57.1956 72.9045Z" fill="#66625E"/>
<path id="Vector_2" d="M66.3633 72.9045C66.2931 72.8918 66.2293 72.8918 66.1718 72.8918H65.7887C65.7313 72.8918 65.6674 72.8918 65.5972 72.9045C65.5653 72.7963 65.5206 72.6627 65.4632 72.5035C65.4057 72.3444 65.3419 72.1853 65.2716 72.0135C65.2014 71.8417 65.1312 71.6698 65.061 71.4916C64.9907 71.3134 64.9205 71.1479 64.8567 70.9888C64.7034 70.9888 64.5438 70.9825 64.3842 70.9761C64.2246 70.9761 64.065 70.9761 63.9054 70.9761C63.7586 70.9761 63.6118 70.9761 63.4649 70.9761C63.3181 70.9761 63.1712 70.9761 63.0244 70.9888C62.8712 71.3643 62.7307 71.7207 62.6031 72.058C62.4754 72.3954 62.386 72.6754 62.3222 72.8981C62.2392 72.8854 62.1498 72.8854 62.054 72.8854C61.9583 72.8854 61.8689 72.8854 61.7859 72.8981C62.1753 72.058 62.5584 71.2179 62.9287 70.3842C63.2989 69.5505 63.6756 68.704 64.0523 67.8448H64.1927C64.3076 68.1248 64.4353 68.4239 64.5694 68.7485C64.7034 69.0731 64.8439 69.4041 64.9843 69.735C65.1248 70.066 65.2652 70.3969 65.4057 70.7215C65.5461 71.0461 65.6802 71.3516 65.8015 71.6316C65.9228 71.9117 66.0377 72.1662 66.1335 72.389C66.2356 72.6117 66.3122 72.7772 66.3761 72.8918L66.3633 72.9045ZM63.1585 70.6642C63.2862 70.6642 63.4138 70.6642 63.5479 70.6706C63.682 70.6706 63.816 70.677 63.9373 70.677C64.0714 70.677 64.2055 70.677 64.3459 70.677C64.48 70.677 64.6141 70.677 64.7481 70.6642L63.9437 68.8313L63.1521 70.6642H63.1585Z" fill="#66625E"/>
<path id="Vector_3" d="M69.3511 68.8822C69.3383 68.5767 69.3256 68.2648 69.3128 67.9466C69.3766 67.9593 69.4341 67.9657 69.4915 67.9721C69.549 67.9784 69.6065 67.9848 69.6639 67.9848C69.7214 67.9848 69.7788 67.9848 69.8363 67.9721C69.8937 67.9657 69.9576 67.9593 70.015 67.9466C70.0023 68.2648 69.9895 68.5767 69.9767 68.8822C69.964 69.1877 69.9576 69.4995 69.9576 69.8177C69.9576 70.4224 69.9576 70.9506 69.964 71.3961C69.964 71.8416 69.9703 72.2426 69.9767 72.5926C70.3215 72.5926 70.6471 72.5926 70.9599 72.5799C71.2727 72.5735 71.6111 72.5481 71.975 72.4972C71.9494 72.5863 71.9367 72.6563 71.9367 72.7136C71.9367 72.7645 71.9494 72.8345 71.975 72.9108C71.7515 72.8981 71.5281 72.8981 71.311 72.8981H69.9767C69.7597 72.8981 69.5362 72.8981 69.3064 72.9108C69.3192 72.6117 69.3319 72.3126 69.3447 72.0007C69.3575 71.6952 69.3639 71.377 69.3639 71.0652V69.8241C69.3639 69.5059 69.3639 69.194 69.3447 68.8885L69.3511 68.8822Z" fill="#66625E"/>
<path id="Vector_4" d="M79.1634 72.9045C79.0931 72.8918 79.0293 72.8918 78.9718 72.8918H78.5888C78.5313 72.8918 78.4675 72.8918 78.3973 72.9045C78.3653 72.7963 78.3207 72.6627 78.2632 72.5035C78.2057 72.3444 78.1419 72.1853 78.0717 72.0135C78.0015 71.8417 77.9312 71.6698 77.861 71.4916C77.7908 71.3134 77.7205 71.1479 77.6567 70.9888C77.5035 70.9888 77.3439 70.9825 77.1843 70.9761C77.0247 70.9761 76.8651 70.9761 76.7055 70.9761C76.5586 70.9761 76.4118 70.9761 76.265 70.9761C76.1181 70.9761 75.9713 70.9761 75.8245 70.9888C75.6712 71.3643 75.5308 71.7207 75.4031 72.058C75.2754 72.3954 75.186 72.6754 75.1222 72.8981C75.0392 72.8854 74.9498 72.8854 74.8541 72.8854C74.7583 72.8854 74.6689 72.8854 74.5859 72.8981C74.9754 72.058 75.3584 71.2179 75.7287 70.3842C76.099 69.5505 76.4756 68.704 76.8523 67.8448H76.9928C77.1077 68.1248 77.2354 68.4239 77.3694 68.7485C77.5035 69.0731 77.6439 69.4041 77.7844 69.735C77.9248 70.066 78.0653 70.3969 78.2057 70.7215C78.3462 71.0461 78.4803 71.3516 78.6016 71.6316C78.7229 71.9117 78.8378 72.1662 78.9335 72.389C79.0357 72.6117 79.1123 72.7772 79.1761 72.8918L79.1634 72.9045ZM75.9521 70.6642C76.0798 70.6642 76.2075 70.6642 76.3416 70.6706C76.4756 70.6706 76.6097 70.677 76.731 70.677C76.8651 70.677 76.9991 70.677 77.1396 70.677C77.2737 70.677 77.4077 70.677 77.5418 70.6642L76.7374 68.8313L75.9458 70.6642H75.9521Z" fill="#66625E"/>
<path id="Vector_5" d="M84.4686 71.0334C83.843 70.3588 83.2109 69.6969 82.5853 69.0286C82.5853 69.1622 82.5789 69.3468 82.5725 69.5696C82.5661 69.7923 82.5661 70.1042 82.5661 70.4924C82.5661 70.5942 82.5661 70.7215 82.5661 70.8679C82.5661 71.0143 82.5661 71.1734 82.5725 71.3389C82.5725 71.5044 82.5725 71.6698 82.5853 71.8353C82.5981 72.0008 82.5981 72.1599 82.5981 72.3063C82.5981 72.4527 82.6108 72.5799 82.6108 72.6881C82.6108 72.7963 82.6172 72.8727 82.6236 72.9109C82.547 72.8982 82.464 72.8982 82.3682 72.8982C82.2725 72.8982 82.1831 72.8982 82.1001 72.9109C82.1129 72.86 82.1192 72.7709 82.132 72.6436C82.1448 72.5163 82.1575 72.3572 82.1639 72.179C82.1703 72.0008 82.1831 71.8035 82.1959 71.5935C82.2086 71.3834 82.215 71.167 82.2278 70.957C82.2342 70.747 82.2405 70.537 82.2469 70.3333C82.2469 70.1296 82.2533 69.9514 82.2533 69.7923C82.2533 69.3277 82.2533 68.9331 82.2533 68.6022C82.2533 68.2712 82.2469 68.023 82.2342 67.8575H82.3491C82.6427 68.1758 82.962 68.5131 83.2939 68.8759C83.6323 69.2386 83.9643 69.595 84.2962 69.9514C84.6282 70.3078 84.941 70.6388 85.2347 70.957C85.5348 71.2752 85.7901 71.5425 86.0136 71.7653V70.7852C86.0136 70.2824 86.0136 69.786 86.0008 69.3086C85.9944 68.8313 85.9753 68.3794 85.9561 67.953C86.0519 67.9785 86.1349 67.9912 86.2051 67.9912C86.2626 67.9912 86.3392 67.9785 86.4349 67.953C86.4222 68.0612 86.4158 68.2203 86.403 68.4303C86.3902 68.6404 86.3775 68.8695 86.3647 69.1113C86.3519 69.3532 86.3392 69.5887 86.3328 69.8178C86.3264 70.0469 86.32 70.2315 86.32 70.3715V70.8043C86.32 70.9697 86.32 71.1416 86.32 71.3198C86.32 71.498 86.32 71.6762 86.3264 71.8608C86.3264 72.039 86.3264 72.2108 86.3328 72.3636C86.3328 72.5227 86.3328 72.6563 86.3328 72.7709V73.0064H86.2306C85.6752 72.3636 85.0815 71.708 84.4558 71.0398L84.4686 71.0334Z" fill="#66625E"/>
<path id="Vector_6" d="M90.9549 68.3221C90.8272 68.3221 90.6996 68.3221 90.5591 68.3221C90.4187 68.3221 90.2846 68.3285 90.1441 68.3348C90.0037 68.3412 89.876 68.3476 89.7483 68.3603C89.6206 68.373 89.5057 68.3794 89.4036 68.3985C89.4291 68.3094 89.4419 68.233 89.4419 68.1693C89.4419 68.1184 89.4291 68.0421 89.4036 67.9466C89.7228 67.9593 90.0356 67.9657 90.3357 67.9721C90.6357 67.9784 90.9485 67.9848 91.2677 67.9848C91.5869 67.9848 91.8998 67.9848 92.1998 67.9721C92.4999 67.9593 92.8127 67.9593 93.1319 67.9466C93.1064 68.0421 93.0936 68.1184 93.0936 68.1757C93.0936 68.2394 93.1064 68.3157 93.1319 68.3985C93.0298 68.3857 92.9148 68.373 92.7872 68.3603C92.6595 68.3476 92.5254 68.3412 92.3913 68.3348C92.2509 68.3285 92.1168 68.3221 91.9764 68.3221C91.8359 68.3221 91.7082 68.3221 91.5806 68.3221C91.5678 68.8185 91.5614 69.3149 91.5614 69.8177V71.0588C91.5614 71.377 91.5614 71.6889 91.5806 71.9944C91.5933 72.2999 91.6061 72.6054 91.6189 72.9045C91.5103 72.8918 91.389 72.8918 91.2614 72.8918C91.1337 72.8918 91.0188 72.8918 90.9038 72.9045C90.9166 72.6054 90.9294 72.3062 90.9421 71.9944C90.9549 71.6889 90.9613 71.3707 90.9613 71.0588V69.8177C90.9613 69.3149 90.9549 68.8185 90.9421 68.3221H90.9549Z" fill="#66625E"/>
<path id="Vector_7" d="M96.1517 68.8822C96.1389 68.5767 96.1261 68.2648 96.1134 67.9466C96.1772 67.9593 96.2347 67.9657 96.2921 67.9721C96.3496 67.9784 96.407 67.9848 96.4645 67.9848C96.5219 67.9848 96.5794 67.9848 96.6369 67.9721C96.6943 67.9657 96.7581 67.9593 96.8156 67.9466C96.8028 68.2648 96.7901 68.5767 96.7773 68.8822C96.7645 69.1877 96.7582 69.4995 96.7582 69.8177V71.0588C96.7582 71.377 96.7582 71.6889 96.7773 71.9944C96.7901 72.2999 96.8028 72.6054 96.8156 72.9045C96.7071 72.8918 96.5858 72.8918 96.4581 72.8918C96.3304 72.8918 96.2155 72.8918 96.1006 72.9045C96.1134 72.6054 96.1261 72.3062 96.1389 71.9944C96.1517 71.6889 96.158 71.3707 96.158 71.0588V69.8177C96.158 69.4995 96.158 69.1877 96.1389 68.8822H96.1517Z" fill="#66625E"/>
</g>
<g id="Group_2">
<path id="Vector_8" d="M41.8544 0.101823C44.191 0.980115 43.725 4.78604 42.9844 6.72083L25.9324 51.1636L25.2557 53.3403C25.8175 50.8645 24.1959 46.6131 24.1895 46.594L9.02717 6.96268C8.18447 4.75422 7.10555 1.19651 9.92734 0.101823H0C3.23037 1.14559 4.41144 4.09868 5.54782 7.04542L23.6979 53.9322H25.6898L43.7761 6.7972C44.689 4.41691 46.5595 0.579156 49.4835 0.095459H41.8544V0.101823Z" fill="#66625E"/>
<path id="Vector_9" d="M90.9548 53.9258H100.652C97.4219 52.882 96.4707 49.9289 95.3279 46.9822L77.1842 0.101807H75.1923L57.106 47.2304C56.1931 49.6107 54.5524 53.4484 51.6221 53.9321H59.2511C56.9145 53.0539 57.1507 49.2479 57.8977 47.3131L60.4194 40.7832H89.9461L92.0848 47.0713C92.7487 49.337 93.7766 52.8375 90.9548 53.9321V53.9258ZM60.7514 39.8795L75.071 2.82578L75.735 0.642783C75.1923 3.12491 76.8586 7.37635 76.8586 7.37635L89.6332 39.9559L60.7514 39.8731V39.8795Z" fill="#66625E"/>
<path id="Vector_10" d="M142.577 53.3466H121.037H119.352C120.801 53.3466 120.801 48.4587 120.801 48.4587V48.4906V7.02631C120.801 4.44235 120.692 0.521866 123.233 0.00634766H115.368C117.909 0.521866 117.8 4.44872 117.8 7.02631V46.8295C117.8 49.1716 118.145 53.0666 115.368 53.9322H151.994V46.9758C151.202 51.1764 148.508 53.353 142.577 53.353V53.3466Z" fill="#66625E"/>
</g>
</g>
<defs>
<clipPath id="clip0_396_24">
<rect width="152" height="73" fill="white"/>
</clipPath>
</defs>
</svg>
