<svg width="18" height="41" viewBox="0 0 18 41" fill="none" xmlns="http://www.w3.org/2000/svg">
<path d="M8.68641 0.852802L7.58885 3.8704L6.31882 7.3472L6.11498 7.9212L4.73519 11.6768L2.30488 18.3024L2.19512 18.5812C1.83449 19.5488 1.31707 20.336 -8.96083e-07 20.5C1.31707 20.664 1.83449 21.4676 2.19512 22.4188L2.30488 22.6976L4.73519 29.3232L6.11498 33.0788L6.31882 33.6528L7.58885 37.1296L9 41L9.40767 39.8848L10.4112 37.1296L11.6812 33.6528L11.885 33.0788L13.2648 29.3232L15.6951 22.6976L15.8049 22.4188C16.1655 21.4512 16.6829 20.664 18 20.5C16.6829 20.336 16.1655 19.5324 15.8049 18.5812L15.6951 18.3024L13.2648 11.6768L11.885 7.9212L11.6812 7.3472L10.4112 3.8704L9 -3.93403e-07L8.68641 0.852802Z" fill="#33312F"/>
</svg>
