<svg width="45" height="23" viewBox="0 0 45 23" fill="none" xmlns="http://www.w3.org/2000/svg">
<g id="Group 8">
<path id="Vector" d="M23.9498 16.3249L24.1596 16.2397L29.1445 14.3542L31.9701 13.2837L32.402 13.1256L35.0178 12.1403L42.9641 9.14778L45 8.36925L42.9641 7.60288L32.6241 3.67371L31.9454 3.41825L22.975 0L23.2465 1.42326C23.518 2.84652 25.5909 3.50341 27.8119 4.44008L31.9701 5.99715L32.6488 6.25261L37.2265 7.96782C37.2265 7.96782 40.5827 9.22077 42.5322 8.79501L40.8171 9.31809L34.9561 11.532C29.8478 13.4541 24.0362 15.6437 23.4069 15.887C23.1354 15.9843 22.827 16.1424 22.5185 16.3249C22.21 16.1424 21.9016 15.9843 21.6301 15.887C21.0008 15.6437 15.1892 13.4541 10.0809 11.532L9.612 11.3617L8.77295 11.678L9.9945 12.1403L12.6104 13.1256L13.0422 13.2837L15.8678 14.3542L20.8527 16.2397L21.0625 16.3249C21.7905 16.6047 22.3828 17.0061 22.5062 18.0279C22.6296 17.0061 23.2342 16.6047 23.9498 16.3249Z" fill="#66625E"/>
<path id="Vector_2" d="M17.2003 17.6386L13.0421 16.0816L12.3635 15.8261L7.78572 14.1109C7.78572 14.1109 4.42954 12.858 2.47999 13.2837L4.1951 12.7606L10.0561 10.5467C15.1644 8.62467 20.976 6.42288 21.6053 6.19175C21.8768 6.09444 22.1852 5.9363 22.4937 5.75383C22.8022 5.9363 23.1107 6.09444 23.3821 6.19175C24.0114 6.43504 29.823 8.62467 34.9313 10.5467L35.4002 10.717C35.684 10.6075 35.9678 10.5102 36.2393 10.4007L35.0177 9.93845L32.4019 8.95312L31.97 8.79498L29.1444 7.72449L24.1595 5.83898L23.9497 5.75383C23.2217 5.47404 22.6294 5.07261 22.5061 4.05078C22.3827 5.07261 21.7781 5.47404 21.0624 5.75383L20.8526 5.83898L15.8677 7.72449L13.0421 8.79498L12.6102 8.95312L9.99439 9.93845L2.04813 12.9309L0.012207 13.7095L2.04813 14.4758L12.3881 18.405L13.0668 18.6605L22.0372 22.0787L21.7657 20.6555C21.4943 19.2322 19.4213 18.5753 17.2003 17.6386Z" fill="#66625E"/>
<path id="Vector_3" d="M38.7687 11.3617L37.9296 11.6779L40.7923 12.7606L42.5074 13.2837C40.5578 12.8457 37.2263 14.0987 37.214 14.1109L32.6362 15.8261L31.9576 16.0815L27.7994 17.6386C25.5784 18.5753 23.5054 19.2322 23.234 20.6554L22.9625 22.0787L31.9329 18.6604L32.6116 18.405L42.9516 14.4758L44.9875 13.7094L42.9516 12.9309L38.7563 11.3495L38.7687 11.3617Z" fill="#66625E"/>
<path id="Vector_4" d="M6.21869 10.7292L7.05774 10.4129L4.19511 9.33025L2.48 8.80717C4.42955 9.2451 7.76106 7.99215 7.78573 7.97998L12.3635 6.26477L13.0421 6.00931L17.2003 4.45225C19.4213 3.51557 21.4943 2.85868 21.7657 1.43542L21.8027 1.25295L22.0248 0L13.0545 3.41825L12.3758 3.67371L2.0358 7.60288L-0.00012207 8.36925L2.0358 9.14778L6.23103 10.7292H6.21869Z" fill="#66625E"/>
</g>
</svg>
