<svg width="31" height="14" viewBox="0 0 31 14" fill="none" xmlns="http://www.w3.org/2000/svg">
<path d="M30.3552 6.7561L28.0736 5.90244L25.4448 4.91463L25.0108 4.7561L22.1712 3.68293L17.1616 1.79268L16.9508 1.70732C16.2192 1.42683 15.624 1.02439 15.5 0C15.376 1.02439 14.7684 1.42683 14.0492 1.70732L13.8384 1.79268L8.8288 3.68293L5.9892 4.7561L5.5552 4.91463L2.9264 5.90244L0 7L0.8432 7.31707L2.9264 8.09756L5.5552 9.08537L5.9892 9.2439L8.8288 10.3171L13.8384 12.2073L14.0492 12.2927C14.7808 12.5732 15.376 12.9756 15.5 14C15.624 12.9756 16.2316 12.5732 16.9508 12.2927L17.1616 12.2073L22.1712 10.3171L25.0108 9.2439L25.4448 9.08537L28.0736 8.09756L31 7L30.3552 6.7561Z" fill="#66625E"/>
</svg>
