<svg width="204" height="43" viewBox="0 0 204 43" fill="none" xmlns="http://www.w3.org/2000/svg">
<path d="M24.9514 36.4547C24.9514 35.5147 24.9514 35.2013 24.9176 34.5747C24.9176 33.8087 24.6815 33.6695 23.6358 33.6695C23.5008 33.6695 23.5008 33.565 23.5008 33.4257C23.5008 33.3561 23.5346 33.2517 23.602 33.2517C23.6695 33.2517 24.749 33.2865 25.5585 33.2865C26.3681 33.2865 27.5151 33.2517 27.6162 33.2517C27.7174 33.2517 27.7174 33.3561 27.7174 33.4257C27.7174 33.5302 27.7175 33.6695 27.5825 33.6695C26.4693 33.6695 26.2332 33.7739 26.2332 34.5747C26.2332 35.2013 26.1995 35.5147 26.1995 36.4547V39.6925C26.1995 40.2496 26.1995 41.12 26.2332 41.7815C26.2332 42.2689 26.6043 42.3385 27.5825 42.3385C29.5728 42.3385 30.5173 42.2689 31.0907 40.3888C31.1919 40.1103 31.1582 40.0059 31.2594 40.0059C31.4955 40.0059 31.5293 40.0407 31.5293 40.18C31.5293 40.2496 31.2594 41.3289 31.057 42.6867C31.057 42.7563 30.9895 42.7911 30.9221 42.7911C30.7871 42.7911 30.6185 42.7563 25.5923 42.7563C23.7032 42.7563 23.6358 42.7911 23.5683 42.7911C23.5009 42.7911 23.4671 42.7563 23.4671 42.617C23.4671 42.4778 23.4671 42.3733 23.7707 42.3733C24.7827 42.3733 24.8502 42.1296 24.8839 41.7815C24.9176 41.12 24.9176 40.2496 24.9176 39.6925L24.9514 36.4547ZM37.8373 38.857C37.8373 40.6325 38.5457 42.1992 40.7046 42.1992C42.2225 42.1992 43.5044 41.3289 43.5044 38.1607V35.5147C43.5044 33.6695 43.1333 33.6695 41.8178 33.6695C41.7166 33.6695 41.7166 33.5998 41.7166 33.4606C41.7166 33.2865 41.7503 33.2517 41.8178 33.2517C42.0539 33.2517 42.8635 33.2865 43.7068 33.2865C44.1116 33.2865 45.191 33.2517 45.3934 33.2517C45.5284 33.2517 45.5621 33.2865 45.5621 33.4954C45.5621 33.5302 45.5621 33.6695 45.4609 33.6695C44.2128 33.6695 43.9767 33.6695 43.9767 35.2362V38.3695C43.9767 41.9555 41.7503 42.8956 40.266 42.8956C37.3988 42.8956 36.5892 40.9111 36.5892 39.4488V36.4199C36.5892 35.4799 36.5892 35.1665 36.5554 34.5398C36.5554 33.7739 36.3193 33.6346 35.2061 33.6346C35.0712 33.6346 35.0712 33.5302 35.0712 33.3909C35.0712 33.3213 35.1049 33.2169 35.1724 33.2169C35.2399 33.2169 36.3868 33.2517 37.1964 33.2517C38.006 33.2517 39.1529 33.2169 39.2541 33.2169C39.3553 33.2169 39.3553 33.3213 39.3553 33.3909C39.3553 33.4954 39.3553 33.6346 39.2203 33.6346C38.1072 33.6346 37.871 33.7391 37.871 34.5398C37.871 35.1665 37.8373 35.4799 37.8373 36.4199V38.857ZM50.9931 39.3444C50.622 39.3444 50.5546 39.3444 50.4534 39.6229C50.116 40.354 49.8799 41.12 49.745 41.9207C49.745 42.0948 49.745 42.4081 50.4196 42.4081C51.1955 42.4081 51.2292 42.443 51.2292 42.5822C51.2292 42.7563 51.1955 42.7911 51.0605 42.7911C50.9593 42.7911 50.7907 42.7563 49.2727 42.7563C48.4969 42.7563 48.3619 42.7911 48.2607 42.7911C48.1933 42.7911 48.1595 42.7215 48.1595 42.5474C48.1595 42.443 48.2945 42.3733 48.6318 42.3733C48.8679 42.3733 49.104 42.1992 49.2727 41.7118C50.0486 39.3444 51.0605 36.4895 52.3087 33.2865C52.3424 33.182 52.4099 33.182 52.5448 33.182C52.646 33.182 52.7135 33.182 52.7809 33.3561C52.8821 33.5998 55.0073 39.6577 55.9181 41.7815C56.053 42.1992 56.4578 42.4778 56.8963 42.4081C56.9975 42.4081 57.2674 42.443 57.2674 42.5474C57.2674 42.6519 57.2336 42.7911 57.1324 42.7911C57.0312 42.7911 56.8963 42.7563 55.3446 42.7563C53.6242 42.7563 53.523 42.7911 53.4218 42.7911C53.3881 42.7911 53.3544 42.6867 53.3544 42.5474C53.3544 42.4081 53.6242 42.3733 53.8941 42.3733C54.4001 42.3733 54.5688 42.3037 54.5688 42.0948C54.2989 41.1548 53.9616 40.2148 53.5905 39.3444H50.9931ZM53.4893 38.8918L52.14 34.9924H52.1063C51.6003 36.211 51.1617 37.4643 50.7907 38.7177C50.7907 38.857 50.8581 38.857 51.2629 38.857L53.4893 38.8918ZM60.7081 33.7043C60.6069 33.7043 60.6069 33.6346 60.6069 33.4954C60.6069 33.3213 60.6407 33.3213 60.7419 33.3213C60.8093 33.3213 61.7201 33.3561 61.9562 33.3561C62.1586 33.3561 62.9008 33.3213 63.1032 33.3213C63.1369 33.3213 63.1706 33.3561 63.2044 33.3909C64.7223 35.1317 66.7463 37.6384 69.6136 40.7022C69.681 39.4836 69.7485 37.1162 69.7485 35.828C69.7485 33.8087 69.2763 33.7043 68.1293 33.7043C67.9944 33.7043 67.9607 33.6346 67.9607 33.5302C67.9607 33.3909 67.9944 33.3213 68.0956 33.3213C68.298 33.3213 69.6136 33.3561 69.9509 33.3561C70.2208 33.3561 71.5701 33.3213 71.6376 33.3213C71.705 33.3213 71.7387 33.4258 71.7387 33.4954C71.7387 33.6695 71.705 33.7391 71.6376 33.7391C70.5918 33.7391 70.3894 33.8783 70.2208 34.8532C70.1533 35.3058 69.9846 41.5377 69.9846 42.8259C69.9846 43 69.9172 43 69.7822 43C69.6473 43 68.6016 41.6074 62.6646 34.9924C62.6646 36.1414 62.6309 37.2903 62.6309 38.4044C62.6309 40.354 62.6646 41.5029 62.6646 41.7815C62.6646 42.2341 62.9682 42.443 63.6766 42.443C64.3175 42.443 64.3175 42.5126 64.3175 42.6518C64.3175 42.8259 64.2838 42.8607 64.1826 42.8607C64.0814 42.8607 64.0139 42.8259 62.4285 42.8259C60.978 42.8259 60.8431 42.8607 60.7756 42.8607C60.6407 42.8607 60.6407 42.7563 60.6407 42.617C60.6407 42.5126 61.0792 42.4778 61.2141 42.4778C61.5177 42.4778 62.0237 42.4081 62.0912 41.8859C62.0912 41.6422 62.2598 39.1355 62.2598 35.271C62.2598 35.0969 62.2598 34.888 62.2261 34.7139C62.1249 34.4702 61.4502 33.7739 61.1804 33.7739L60.7081 33.7043ZM82.8031 39.6229C82.8031 39.3444 82.6344 39.2399 81.6225 39.2399C80.8466 39.2399 80.8466 39.1703 80.8466 38.9962C80.8466 38.8918 80.8466 38.8221 81.0827 38.8221C81.1839 38.8221 81.5213 38.857 83.444 38.857C85.2319 38.857 85.2993 38.8221 85.4005 38.8221C85.5017 38.8221 85.5017 38.857 85.5017 38.9962C85.5017 39.1355 85.5017 39.2399 85.2319 39.2399C84.2199 39.2399 84.1187 39.4836 84.1187 39.8318V41.6422C84.1187 42.0252 84.4897 42.06 84.4897 42.2341C84.4897 42.3385 84.4897 42.3733 84.2536 42.443C82.9043 42.8259 81.5213 43 80.172 42.9304C77.6757 43.0696 75.5506 41.0503 75.4156 38.474C75.4156 38.4044 75.4156 38.3695 75.4156 38.2999C75.2807 35.5843 77.3384 33.2865 79.9696 33.1472C80.037 33.1472 80.1045 33.1472 80.172 33.1472C81.4201 33.0428 82.6682 33.3213 83.7139 34.0176C83.7814 34.0524 83.8488 34.0872 83.95 34.1221C84.0512 34.1221 84.2536 33.8784 84.3548 33.8784C84.456 33.8784 84.456 33.9132 84.456 34.4702C84.456 35.0621 84.456 35.6539 84.5235 36.2458C84.5235 36.3502 84.3885 36.3851 84.2536 36.3851C84.0512 36.1065 83.95 35.7584 83.8826 35.4102C83.5452 34.3658 82.432 33.4954 80.543 33.4954C78.9576 33.4954 76.9673 35.0621 76.9673 38.2651C76.7987 40.4585 78.3841 42.4081 80.5093 42.5822C80.5767 42.5822 80.6779 42.5822 80.7454 42.5822C82.0273 42.5822 82.8706 42.443 82.8706 41.6074L82.8031 39.6229ZM100.074 36.4547C100.074 35.5147 100.074 35.2013 100.041 34.5747C100.041 33.8087 99.8044 33.6695 98.8937 33.6695C98.7587 33.6695 98.7587 33.565 98.7587 33.4257C98.7587 33.3561 98.7924 33.2517 98.8599 33.2517C98.9274 33.2517 99.8719 33.2865 100.681 33.2865C100.783 33.2865 101.828 33.2517 102.503 33.2517C105.573 33.2517 105.91 35.3406 105.91 35.8976C105.978 37.4295 104.797 38.7177 103.313 38.7873C103.178 38.7873 103.009 38.7873 102.874 38.7525C102.368 38.7525 101.828 38.7177 101.322 38.6133C101.322 40.737 101.322 41.0852 101.356 41.5029C101.39 42.0252 101.457 42.3385 102.773 42.3385C103.144 42.3385 103.144 42.4081 103.144 42.5822C103.144 42.6867 103.144 42.7563 103.043 42.7563C102.942 42.7563 102.604 42.7215 100.681 42.7215C98.7924 42.7215 98.725 42.7563 98.6575 42.7563C98.59 42.7563 98.5563 42.7215 98.5563 42.5822C98.5563 42.443 98.5563 42.3385 98.9274 42.3385C99.9394 42.3385 100.007 42.0948 100.041 41.7467C100.074 41.0852 100.074 40.2148 100.074 39.6577V36.4547ZM101.356 37.8821C101.356 38.1955 101.424 38.3695 102.098 38.3695C103.313 38.5088 104.426 37.5688 104.527 36.3154C104.527 36.211 104.527 36.1065 104.527 36.0021C104.628 34.8184 103.751 33.7739 102.604 33.6695C102.537 33.6695 102.469 33.6695 102.402 33.6695C101.424 33.6695 101.322 33.6695 101.322 34.7836L101.356 37.8821ZM111.51 36.4547C111.51 35.5147 111.51 35.2013 111.476 34.5747C111.476 33.8087 111.24 33.6695 110.329 33.6695C110.194 33.6695 110.194 33.565 110.194 33.4257C110.194 33.3561 110.228 33.2517 110.295 33.2517C110.363 33.2517 111.307 33.2865 112.117 33.2865C112.454 33.2865 113.23 33.2517 114.006 33.2517C115.49 33.2517 117.312 33.7739 117.312 35.6888C117.312 36.9769 116.671 37.6036 115.254 38.1607C115.187 38.1955 115.119 38.1955 115.119 38.2651C115.625 39.2748 116.232 40.2148 116.941 41.0503C117.885 42.1993 117.986 42.3733 118.762 42.3733C118.863 42.3733 118.863 42.443 118.863 42.5474C118.863 42.6867 118.83 42.7563 118.695 42.7563C118.357 42.7215 117.986 42.7215 117.649 42.7215C117.345 42.7215 117.042 42.7215 116.738 42.7563C116.637 42.7563 116.57 42.7563 116.502 42.6518C115.423 41.2244 114.579 39.5185 114.141 39.0659C113.804 38.6481 113.298 38.4392 112.792 38.5436V39.6925C112.792 40.2496 112.792 41.12 112.825 41.7815C112.825 42.1296 112.926 42.3733 113.938 42.3733C114.31 42.3733 114.31 42.443 114.31 42.617C114.31 42.7215 114.31 42.7911 114.208 42.7911C114.107 42.7911 114.073 42.7563 112.151 42.7563C110.464 42.7563 110.397 42.7911 110.329 42.7911C110.228 42.7911 110.228 42.7563 110.228 42.617C110.228 42.4778 110.228 42.3733 110.599 42.3733C111.409 42.3733 111.51 42.1296 111.51 41.7815C111.543 41.12 111.543 40.2496 111.543 39.6925L111.51 36.4547ZM113.837 38.1607C114.917 38.2651 115.861 37.4295 115.962 36.3154C115.962 36.1762 115.962 36.0369 115.962 35.8976C116.03 34.7487 115.187 33.7739 114.073 33.7043C113.972 33.7043 113.871 33.7043 113.77 33.7043C112.994 33.7043 112.825 33.7739 112.825 34.6443V38.1607H113.837ZM124.294 39.3444C123.923 39.3444 123.856 39.3444 123.755 39.6229C123.417 40.354 123.181 41.12 123.046 41.9207C123.046 42.0948 123.046 42.4081 123.721 42.4081C124.497 42.4081 124.531 42.443 124.531 42.5822C124.531 42.7563 124.497 42.7911 124.362 42.7911C124.261 42.7911 124.092 42.7563 122.574 42.7563C121.798 42.7563 121.663 42.7911 121.562 42.7911C121.495 42.7911 121.461 42.7215 121.461 42.5474C121.461 42.443 121.596 42.3733 121.933 42.3733C122.169 42.3733 122.405 42.1992 122.574 41.7118C123.35 39.3444 124.328 36.4895 125.61 33.2865C125.644 33.182 125.711 33.182 125.846 33.182C125.947 33.182 126.015 33.182 126.082 33.3561C126.183 33.5998 128.309 39.6577 129.219 41.7815C129.354 42.1992 129.759 42.4778 130.198 42.4081C130.299 42.4081 130.569 42.443 130.569 42.5474C130.569 42.6519 130.535 42.7911 130.434 42.7911C130.333 42.7911 130.198 42.7563 128.646 42.7563C126.926 42.7563 126.824 42.7911 126.723 42.7911C126.689 42.7911 126.656 42.6867 126.656 42.5474C126.656 42.4081 126.926 42.3733 127.195 42.3733C127.701 42.3733 127.87 42.3037 127.87 42.0948C127.6 41.1548 127.263 40.2148 126.892 39.3444H124.294ZM126.757 38.8918L125.408 34.9924H125.374C124.868 36.211 124.429 37.4643 124.058 38.7177C124.058 38.857 124.126 38.857 124.531 38.857L126.757 38.8918ZM134.549 36.4547C134.549 35.5147 134.549 35.2013 134.515 34.5747C134.515 33.8087 134.279 33.6695 133.369 33.6695C133.234 33.6695 133.234 33.565 133.234 33.4257C133.234 33.3561 133.267 33.2517 133.335 33.2517C133.402 33.2517 134.347 33.2865 135.156 33.2865C135.527 33.2865 136.236 33.2517 136.843 33.2517C138.294 33.2517 139.98 33.5998 139.98 35.445C139.946 36.2458 139.508 36.9421 138.8 37.2554C138.091 37.6036 137.754 37.6036 137.754 37.7081C137.754 37.7429 137.821 37.7429 137.99 37.8125C139.339 38.091 140.351 38.857 140.351 40.2844C140.351 41.3985 139.575 42.7215 137.551 42.7215C137.248 42.7215 136.708 42.6867 135.359 42.6867C133.47 42.6867 133.402 42.7215 133.335 42.7215C133.267 42.7215 133.234 42.6867 133.234 42.5474C133.234 42.4081 133.234 42.3037 133.605 42.3037C134.414 42.3037 134.515 42.06 134.515 41.7118C134.549 41.0503 134.549 40.18 134.549 39.6229V36.4547ZM136.809 37.6036C137.72 37.6732 138.53 36.9769 138.597 36.0021C138.597 35.8977 138.597 35.7932 138.597 35.6539C138.665 34.6443 137.956 33.7391 136.978 33.6695C136.877 33.6695 136.776 33.6695 136.674 33.6695C135.865 33.6695 135.797 33.6695 135.797 34.7487V37.5688L136.809 37.6036ZM135.797 41.6422C135.797 42.1992 135.831 42.4081 136.607 42.4081C137.956 42.4081 138.934 41.7466 138.934 40.2844C139.002 39.1007 138.159 38.091 137.012 38.0214C136.911 38.0214 136.776 38.0214 136.674 38.0214H135.797V41.6422ZM146.862 39.3444C146.491 39.3444 146.423 39.3444 146.322 39.6229C145.985 40.354 145.749 41.12 145.614 41.9207C145.614 42.0948 145.614 42.4081 146.288 42.4081C147.064 42.4081 147.098 42.443 147.098 42.5822C147.098 42.7563 147.064 42.7911 146.929 42.7911C146.828 42.7911 146.659 42.7563 145.141 42.7563C144.365 42.7563 144.231 42.7911 144.129 42.7911C144.062 42.7911 144.028 42.7215 144.028 42.5474C144.028 42.443 144.163 42.3733 144.5 42.3733C144.737 42.3733 144.973 42.1992 145.141 41.7118C145.917 39.3444 146.895 36.4895 148.177 33.2865C148.211 33.182 148.278 33.182 148.413 33.182C148.515 33.182 148.582 33.182 148.65 33.3561C148.751 33.5998 150.876 39.6577 151.787 41.7815C151.922 42.1992 152.326 42.4778 152.765 42.4081C152.866 42.4081 153.136 42.443 153.136 42.5474C153.136 42.6519 153.102 42.7911 153.001 42.7911C152.9 42.7911 152.765 42.7563 151.213 42.7563C149.493 42.7563 149.392 42.7911 149.29 42.7911C149.257 42.7911 149.223 42.6867 149.223 42.5474C149.223 42.4081 149.493 42.3733 149.763 42.3733C150.269 42.3733 150.437 42.3037 150.437 42.0948C150.168 41.1548 149.83 40.2148 149.459 39.3444H146.862ZM149.324 38.8918L147.975 34.9924H147.941C147.435 36.211 146.997 37.4643 146.626 38.7177C146.626 38.857 146.693 38.857 147.098 38.857L149.324 38.8918ZM156.307 33.7043C156.206 33.7043 156.206 33.6346 156.206 33.4954C156.206 33.3213 156.239 33.3213 156.341 33.3213C156.408 33.3213 157.319 33.3561 157.555 33.3561C157.757 33.3561 158.499 33.3213 158.702 33.3213C158.736 33.3213 158.769 33.3561 158.803 33.3909C160.321 35.1317 162.345 37.6384 165.212 40.7022C165.28 39.4836 165.347 37.1162 165.347 35.828C165.347 33.8087 164.841 33.7043 163.728 33.7043C163.593 33.7043 163.559 33.6346 163.559 33.5302C163.559 33.3909 163.593 33.3213 163.694 33.3213C163.897 33.3213 165.212 33.3561 165.55 33.3561C165.82 33.3561 167.169 33.3213 167.236 33.3213C167.304 33.3213 167.337 33.4258 167.337 33.4954C167.337 33.6695 167.304 33.7391 167.236 33.7391C166.191 33.7391 165.988 33.8783 165.82 34.8532C165.752 35.3058 165.583 41.5377 165.583 42.8259C165.583 43 165.516 43 165.381 43C165.246 43 164.2 41.6074 158.263 34.9924C158.263 36.1414 158.23 37.2903 158.23 38.4044C158.23 40.354 158.263 41.5029 158.263 41.7815C158.263 42.2341 158.567 42.443 159.275 42.443C159.916 42.443 159.916 42.5126 159.916 42.6518C159.916 42.8259 159.883 42.8607 159.781 42.8607C159.68 42.8607 159.613 42.8259 158.027 42.8259C156.577 42.8259 156.442 42.8607 156.374 42.8607C156.239 42.8607 156.239 42.7563 156.239 42.617C156.239 42.5126 156.678 42.4778 156.813 42.4778C157.116 42.4778 157.622 42.4081 157.69 41.8859C157.69 41.6422 157.825 39.1355 157.825 35.271C157.825 35.0969 157.825 34.888 157.791 34.7139C157.69 34.4702 157.015 33.7739 156.745 33.7739L156.307 33.7043ZM178.166 39.6229C178.166 39.3444 177.997 39.2399 176.985 39.2399C176.209 39.2399 176.209 39.1703 176.209 38.9962C176.209 38.8918 176.209 38.8221 176.445 38.8221C176.547 38.8221 176.884 38.857 178.807 38.857C180.594 38.857 180.662 38.8221 180.763 38.8221C180.864 38.8221 180.864 38.857 180.864 38.9962C180.864 39.1355 180.864 39.2399 180.594 39.2399C179.583 39.2399 179.481 39.4836 179.481 39.8318V41.6422C179.481 42.0252 179.852 42.06 179.852 42.2341C179.852 42.3385 179.852 42.3733 179.65 42.443C178.301 42.8259 176.918 43 175.568 42.9304C173.072 43.0696 170.947 41.0503 170.812 38.474C170.812 38.4044 170.812 38.3695 170.812 38.2999C170.677 35.5843 172.735 33.2865 175.366 33.1472C175.433 33.1472 175.501 33.1472 175.568 33.1472C176.816 33.0428 178.065 33.3213 179.11 34.0176C179.178 34.0524 179.245 34.0872 179.346 34.1221C179.448 34.1221 179.65 33.8784 179.751 33.8784C179.852 33.8784 179.852 33.9132 179.852 34.4702C179.852 35.0621 179.852 35.6539 179.92 36.2458C179.92 36.3502 179.785 36.3851 179.65 36.3851C179.448 36.1065 179.346 35.7584 179.279 35.4102C178.942 34.3658 177.828 33.4954 175.939 33.4954C174.354 33.4954 172.364 35.0621 172.364 38.2651C172.195 40.4585 173.78 42.4081 175.906 42.5822C175.973 42.5822 176.074 42.5822 176.142 42.5822C177.424 42.5822 178.267 42.443 178.267 41.6074L178.166 39.6229ZM8.32109 9.33346C7.68017 9.4379 7.03924 9.47272 6.39832 9.47272C6.09473 9.47272 5.7574 9.47271 5.4538 9.4379V12.3972C5.4538 16.018 5.4538 16.1921 7.7139 16.3662C7.78137 16.3662 7.9163 16.8884 7.68017 16.8536C6.66818 16.7491 5.6562 16.6795 4.64421 16.7143C3.46357 16.6795 2.24919 16.7491 1.06854 16.8536C0.866142 16.8884 0.96734 16.3662 1.03481 16.3662C3.22744 16.1225 3.32864 16.1573 3.32864 12.3972V4.80745C3.32864 1.95258 3.2949 1.08219 1.87813 1.08219C1.57453 1.08219 1.27093 1.11701 0.933607 1.18664C0.798676 1.22146 0.663745 0.803665 0.899875 0.734034C2.92384 0.351064 4.98154 0.211808 7.03924 0.316255C10.6149 0.316255 13.5497 1.46516 13.5497 4.2504C13.4147 6.33932 12.0654 8.14973 10.1427 8.81122C11.4582 12.432 15.3038 16.784 18.0361 16.784C18.1036 16.784 18.2385 17.2714 18.0024 17.2714C12.2678 17.2714 9.40054 13.3024 8.32109 9.33346ZM5.62247 1.04737C5.4538 2.2311 5.42007 3.41482 5.4538 4.56373V8.74159C5.79113 8.7764 5.95979 8.74159 6.39832 8.74159C10.0752 8.74159 11.357 7.38379 11.357 5.29486C11.357 1.88295 9.16441 0.977746 6.73565 0.977746C6.33085 1.01256 6.02726 1.04737 5.62247 1.04737ZM24.749 8.88085C25.0526 3.86742 29.0668 0.00290935 33.9243 0.0377248C39.1191 0.0377248 42.6948 4.00668 42.6948 8.35862C42.6948 12.5713 38.883 17.2366 33.452 17.2366C28.2909 17.2017 24.749 13.2328 24.749 8.88085ZM26.9416 8.04528C26.9416 13.5809 30.551 16.4358 34.0592 16.4358C37.7361 16.4358 40.5022 13.755 40.5022 9.1942C40.5022 3.65854 36.8253 0.768852 33.3846 0.768852C29.674 0.768852 26.9416 3.48445 26.9416 8.04528ZM52.6123 15.5306C52.5785 14.4165 52.6122 13.3024 52.7472 12.2231C52.7472 12.0839 53.1857 12.1187 53.1857 12.1883C53.3544 14.7647 54.7374 16.4358 57.2674 16.4358C58.9203 16.4358 60.5057 15.4958 60.5057 13.4765C60.5057 9.29864 53.152 9.26383 53.152 4.66819C53.2532 2.02221 55.4121 -0.0667237 57.9758 0.00290723C59.0889 -0.0319082 60.2021 0.246622 61.1804 0.803669C61.3828 0.908116 61.5514 1.84813 61.5514 3.55409C61.5514 3.69335 61.0792 3.65854 61.0792 3.58891C60.9105 1.88295 59.46 0.62959 57.8071 0.768852C56.3229 0.62959 55.0073 1.7785 54.8724 3.27557V3.31038C54.8724 7.31415 62.0912 7.24452 62.0912 12.0491C62.1249 14.8343 59.9323 17.1321 57.2336 17.1669C57.1999 17.1669 57.1325 17.1669 57.0987 17.1669C55.4121 17.2366 53.8266 16.6447 52.6123 15.5306ZM86.0077 16.8188C85.0969 16.8188 83.5452 16.6795 81.7574 16.6795C79.2949 16.6795 76.7649 16.7143 75.0108 16.8188C74.7747 16.8536 74.9096 16.3314 74.9771 16.3314C77.4396 16.0528 77.5071 16.1573 77.5071 12.3624V4.80745C77.5071 0.977746 77.4733 1.08219 74.9771 0.768852C74.9096 0.768852 74.741 0.281439 75.0108 0.316255C76.7987 0.455517 79.1937 0.490332 81.6562 0.490332C83.4778 0.490332 85.1307 0.455517 86.5474 0.316255C86.4125 0.803671 86.3451 1.29108 86.3788 1.7785C86.3788 2.02221 86.3788 2.54444 86.4125 2.75334C86.4463 2.8926 86.0077 2.82297 85.974 2.75334C85.7716 1.63924 85.2656 1.3259 82.061 1.3259H79.6997C79.5985 2.44 79.5648 3.5889 79.5648 4.70299V7.94084H82.0947C84.7933 7.94084 84.591 7.73195 84.7259 7.07045C84.7596 7.00082 85.1307 7.07045 85.1981 7.10527C85.0969 7.6275 85.0295 8.14973 85.0632 8.67196C85.0632 8.95049 85.0632 9.4379 85.0969 9.64679C85.1307 9.78606 84.6921 9.75124 84.6584 9.68161C84.5235 8.91567 84.3548 8.60233 82.1284 8.60233H79.5985V12.2928C79.5985 15.5654 80.0033 15.8788 81.1165 15.8788H82.3983C86.1426 15.8788 86.3451 15.5654 86.7161 13.8943C86.7161 13.8595 87.1884 13.8595 87.1546 13.9639C87.0534 14.5906 86.851 15.7743 86.6824 16.2965C86.5474 16.7491 86.4125 16.8188 86.0077 16.8188ZM114.073 17.0277C114.006 17.1321 113.837 17.1669 113.736 17.0973C113.702 17.0625 113.669 17.0277 113.669 16.9929L109.992 6.30451L105.404 17.0277C105.303 17.1321 105.134 17.1669 105.033 17.0973C104.999 17.0625 104.966 17.0625 104.966 17.0277L100.243 4.87707C99.0623 1.84813 98.6912 1.01256 96.7347 0.838487C96.5998 0.838487 96.4986 0.385881 96.7685 0.420697C97.6455 0.525143 98.5226 0.594772 99.3659 0.559957C100.681 0.594772 101.963 0.525143 103.279 0.420697C103.515 0.385881 103.38 0.838487 103.313 0.838487C102.199 0.942933 101.592 1.08219 101.592 1.7785C101.761 2.82296 102.065 3.86743 102.469 4.84226L105.978 13.8246L109.587 5.19042L109.452 4.87707C108.238 1.91776 108.002 1.01256 106.146 0.838487C106.079 0.838487 105.978 0.385881 106.18 0.420697C107.057 0.525143 107.934 0.594772 108.777 0.559957C110.16 0.594772 111.543 0.525143 112.893 0.420697C113.095 0.385881 113.028 0.838487 112.926 0.838487C111.409 0.977749 110.936 1.15183 110.936 1.88295C111.037 2.8926 111.307 3.90225 111.678 4.84226L114.647 13.8246L118.155 4.73781C118.594 3.83261 118.897 2.82296 119.032 1.81332C119.032 1.18664 118.627 0.977749 117.447 0.838487C117.379 0.838487 117.211 0.385881 117.48 0.420697C118.29 0.525143 119.1 0.594772 119.909 0.559957C120.685 0.594772 121.461 0.525143 122.203 0.420697C122.405 0.385881 122.304 0.838487 122.237 0.838487C120.685 0.977749 120.213 2.09183 119.066 4.87707L114.073 17.0277ZM130.468 8.88085C130.771 3.86742 134.785 0.00290935 139.643 0.0377248C144.838 0.0377248 148.413 4.00668 148.413 8.35862C148.413 12.5713 144.602 17.2366 139.171 17.2366C134.583 17.4454 130.67 13.7898 130.468 9.02012C130.468 8.95049 130.468 8.91566 130.468 8.88085ZM132.66 8.04528C132.66 13.5809 136.27 16.4358 139.778 16.4358C143.455 16.4358 146.221 13.755 146.221 9.1942C146.221 3.65854 142.544 0.768852 139.103 0.768852C135.393 0.768852 132.66 3.48445 132.66 8.04528ZM158.331 8.88085C158.634 3.86742 162.649 0.00290935 167.506 0.0377248C172.701 0.0377248 176.277 4.00668 176.277 8.35862C176.277 12.5713 172.465 17.2366 167.068 17.2366C161.873 17.2017 158.331 13.2328 158.331 8.88085ZM160.523 8.04528C160.523 13.5809 164.133 16.4358 167.641 16.4358C171.318 16.4358 174.084 13.755 174.084 9.1942C174.084 3.65854 170.407 0.768852 166.966 0.768852C163.256 0.768852 160.523 3.48445 160.523 8.04528ZM190.411 16.7143C189.095 16.6795 187.78 16.7491 186.464 16.8536C186.228 16.8884 186.363 16.3662 186.43 16.3662C188.589 16.1225 188.724 16.1573 188.724 12.3972V4.84226C188.724 1.04738 188.589 1.04738 186.43 0.803669C186.363 0.803669 186.194 0.351064 186.464 0.385879C187.476 0.525141 189.196 0.525139 190.647 0.525139C191.254 0.525139 193.514 0.420697 194.425 0.420697C200.261 0.420697 203.229 3.90224 203.229 8.35862C203.229 12.9543 199.552 16.8188 194.088 16.8188C193.211 16.8188 190.984 16.7143 190.411 16.7143ZM191.052 1.3259C190.883 2.47481 190.816 3.65854 190.849 4.84226V13.3024C190.849 15.7743 191.22 16.018 194.762 16.018C198.27 16.018 201.003 13.5113 201.003 9.15938C201.003 3.86743 198.169 1.18664 193.649 1.18664C192.772 1.15183 191.895 1.18664 191.052 1.3259Z" fill="#F0EEEA"/>
</svg>
