<svg width="144" height="31" viewBox="0 0 144 31" fill="none" xmlns="http://www.w3.org/2000/svg">
<path d="M17.1986 25.9335C17.1986 25.2777 17.1986 25.0591 17.1746 24.6219C17.1746 24.0875 17.0066 23.9903 16.2628 23.9903C16.1669 23.9903 16.1669 23.9174 16.1669 23.8203C16.1669 23.7717 16.1909 23.6988 16.2388 23.6988C16.2868 23.6988 17.0546 23.7231 17.6304 23.7231C18.2062 23.7231 19.022 23.6988 19.094 23.6988C19.166 23.6988 19.166 23.7717 19.166 23.8203C19.166 23.8932 19.166 23.9903 19.07 23.9903C18.2782 23.9903 18.1103 24.0632 18.1103 24.6219C18.1103 25.0591 18.0863 25.2777 18.0863 25.9335V28.1925C18.0863 28.5811 18.0863 29.1883 18.1103 29.6499C18.1103 29.9899 18.3742 30.0385 19.07 30.0385C20.4856 30.0385 21.1573 29.9899 21.5652 28.6783C21.6372 28.4839 21.6132 28.4111 21.6852 28.4111C21.8531 28.4111 21.8771 28.4354 21.8771 28.5325C21.8771 28.5811 21.6852 29.3341 21.5412 30.2814C21.5412 30.33 21.4932 30.3543 21.4453 30.3543C21.3493 30.3543 21.2293 30.33 17.6544 30.33C16.3108 30.33 16.2628 30.3543 16.2149 30.3543C16.1669 30.3543 16.1429 30.33 16.1429 30.2328C16.1429 30.1357 16.1429 30.0628 16.3588 30.0628C17.0786 30.0628 17.1266 29.8928 17.1506 29.6499C17.1746 29.1883 17.1746 28.5811 17.1746 28.1925L17.1986 25.9335ZM26.3638 27.6095C26.3638 28.8483 26.8676 29.9413 28.4031 29.9413C29.4828 29.9413 30.3945 29.3341 30.3945 27.1237V25.2777C30.3945 23.9903 30.1306 23.9903 29.1949 23.9903C29.1229 23.9903 29.1229 23.9417 29.1229 23.8446C29.1229 23.7231 29.1469 23.6988 29.1949 23.6988C29.3629 23.6988 29.9387 23.7231 30.5385 23.7231C30.8264 23.7231 31.5942 23.6988 31.7381 23.6988C31.8341 23.6988 31.8581 23.7231 31.8581 23.8689C31.8581 23.8932 31.8581 23.9903 31.7861 23.9903C30.8984 23.9903 30.7304 23.9903 30.7304 25.0834V27.2695C30.7304 29.7713 29.1469 30.4271 28.0912 30.4271C26.0519 30.4271 25.476 29.0426 25.476 28.0224V25.9092C25.476 25.2534 25.476 25.0348 25.452 24.5976C25.452 24.0632 25.2841 23.966 24.4923 23.966C24.3964 23.966 24.3964 23.8932 24.3964 23.796C24.3964 23.7474 24.4204 23.6746 24.4683 23.6746C24.5163 23.6746 25.3321 23.6988 25.9079 23.6988C26.4837 23.6988 27.2995 23.6746 27.3715 23.6746C27.4434 23.6746 27.4434 23.7474 27.4434 23.796C27.4434 23.8689 27.4434 23.966 27.3475 23.966C26.5557 23.966 26.3878 24.0389 26.3878 24.5976C26.3878 25.0348 26.3638 25.2534 26.3638 25.9092V27.6095ZM35.7209 27.9496C35.457 27.9496 35.409 27.9496 35.337 28.1439C35.0971 28.654 34.9292 29.1884 34.8332 29.747C34.8332 29.8685 34.8332 30.0871 35.313 30.0871C35.8649 30.0871 35.8889 30.1114 35.8889 30.2085C35.8889 30.33 35.8649 30.3543 35.7689 30.3543C35.6969 30.3543 35.577 30.33 34.4973 30.33C33.9455 30.33 33.8495 30.3543 33.7775 30.3543C33.7295 30.3543 33.7055 30.3057 33.7055 30.1842C33.7055 30.1114 33.8015 30.0628 34.0414 30.0628C34.2094 30.0628 34.3773 29.9413 34.4973 29.6013C35.0491 27.9496 35.7689 25.9578 36.6566 23.7231C36.6806 23.6503 36.7286 23.6503 36.8246 23.6503C36.8966 23.6503 36.9445 23.6503 36.9925 23.7717C37.0645 23.9417 38.576 28.1682 39.2239 29.6499C39.3198 29.9413 39.6077 30.1357 39.9196 30.0871C39.9916 30.0871 40.1836 30.1114 40.1836 30.1842C40.1836 30.2571 40.1596 30.3543 40.0876 30.3543C40.0156 30.3543 39.9196 30.33 38.816 30.33C37.5924 30.33 37.5204 30.3543 37.4484 30.3543C37.4244 30.3543 37.4004 30.2814 37.4004 30.1842C37.4004 30.0871 37.5924 30.0628 37.7843 30.0628C38.1442 30.0628 38.2641 30.0142 38.2641 29.8685C38.0722 29.2126 37.8323 28.5568 37.5684 27.9496H35.7209ZM37.4964 27.6338L36.5367 24.9133H36.5127C36.1528 25.7635 35.8409 26.6379 35.577 27.5124C35.577 27.6095 35.625 27.6095 35.9129 27.6095L37.4964 27.6338ZM42.6308 24.0146C42.5588 24.0146 42.5588 23.966 42.5588 23.8689C42.5588 23.7474 42.5828 23.7474 42.6548 23.7474C42.7028 23.7474 43.3506 23.7717 43.5185 23.7717C43.6625 23.7717 44.1903 23.7474 44.3343 23.7474C44.3583 23.7474 44.3823 23.7717 44.4063 23.796C45.486 25.0105 46.9255 26.7594 48.9649 28.8969C49.0129 28.0467 49.0609 26.395 49.0609 25.4963C49.0609 24.0875 48.725 24.0146 47.9092 24.0146C47.8132 24.0146 47.7892 23.966 47.7892 23.8932C47.7892 23.796 47.8132 23.7474 47.8852 23.7474C48.0292 23.7474 48.9649 23.7717 49.2048 23.7717C49.3968 23.7717 50.3565 23.7474 50.4045 23.7474C50.4524 23.7474 50.4764 23.8203 50.4764 23.8689C50.4764 23.9903 50.4524 24.0389 50.4045 24.0389C49.6607 24.0389 49.5167 24.1361 49.3968 24.8162C49.3488 25.1319 49.2288 29.4798 49.2288 30.3785C49.2288 30.5 49.1808 30.5 49.0849 30.5C48.9889 30.5 48.2451 29.5284 44.0224 24.9133C44.0224 25.7149 43.9984 26.5165 43.9984 27.2937C43.9984 28.654 44.0224 29.4555 44.0224 29.6499C44.0224 29.9656 44.2383 30.1114 44.7422 30.1114C45.198 30.1114 45.198 30.1599 45.198 30.2571C45.198 30.3785 45.174 30.4028 45.1021 30.4028C45.0301 30.4028 44.9821 30.3785 43.8544 30.3785C42.8228 30.3785 42.7268 30.4028 42.6788 30.4028C42.5828 30.4028 42.5828 30.33 42.5828 30.2328C42.5828 30.1599 42.8947 30.1357 42.9907 30.1357C43.2066 30.1357 43.5665 30.0871 43.6145 29.7227C43.6145 29.5527 43.7345 27.8038 43.7345 25.1077C43.7345 24.9862 43.7345 24.8405 43.7105 24.719C43.6385 24.549 43.1587 24.0632 42.9667 24.0632L42.6308 24.0146ZM58.346 28.1439C58.346 27.9496 58.2261 27.8767 57.5063 27.8767C56.9545 27.8767 56.9545 27.8281 56.9545 27.7067C56.9545 27.6338 56.9545 27.5852 57.1224 27.5852C57.1944 27.5852 57.4343 27.6095 58.8019 27.6095C60.0735 27.6095 60.1215 27.5852 60.1935 27.5852C60.2655 27.5852 60.2655 27.6095 60.2655 27.7067C60.2655 27.8038 60.2655 27.8767 60.0735 27.8767C59.3537 27.8767 59.2818 28.0467 59.2818 28.2896V29.5527C59.2818 29.8199 59.5457 29.8442 59.5457 29.9656C59.5457 30.0385 59.5457 30.0628 59.3777 30.1114C58.418 30.3786 57.4343 30.5 56.4746 30.4514C54.6992 30.5486 53.1876 29.1398 53.0916 27.3423C53.0916 27.2937 53.0916 27.2694 53.0916 27.2209C52.9957 25.3263 54.4592 23.7231 56.3307 23.626C56.3786 23.626 56.4266 23.626 56.4746 23.626C57.3623 23.5531 58.2501 23.7474 58.9938 24.2332C59.0418 24.2575 59.0898 24.2818 59.1618 24.3061C59.2338 24.3061 59.3777 24.1361 59.4497 24.1361C59.5217 24.1361 59.5217 24.1603 59.5217 24.549C59.5217 24.9619 59.5217 25.3748 59.5697 25.7878C59.5697 25.8606 59.4737 25.8849 59.3777 25.8849C59.2338 25.6906 59.1618 25.4477 59.1138 25.2048C58.8739 24.4761 58.0821 23.8689 56.7385 23.8689C55.6109 23.8689 54.1953 24.9619 54.1953 27.1966C54.0753 28.7268 55.203 30.0871 56.7145 30.2085C56.7625 30.2085 56.8345 30.2085 56.8825 30.2085C57.7942 30.2085 58.394 30.1114 58.394 29.5284L58.346 28.1439ZM70.6303 25.9335C70.6303 25.2777 70.6303 25.0591 70.6063 24.6219C70.6063 24.0875 70.4384 23.9903 69.7906 23.9903C69.6946 23.9903 69.6946 23.9174 69.6946 23.8203C69.6946 23.7717 69.7186 23.6988 69.7666 23.6988C69.8146 23.6988 70.4863 23.7231 71.0622 23.7231C71.1341 23.7231 71.8779 23.6988 72.3578 23.6988C74.5411 23.6988 74.781 25.1562 74.781 25.5449C74.829 26.6136 73.9893 27.5124 72.9336 27.5609C72.8376 27.5609 72.7177 27.5609 72.6217 27.5366C72.2618 27.5366 71.8779 27.5124 71.518 27.4395C71.518 28.9212 71.518 29.1641 71.542 29.4555C71.566 29.8199 71.614 30.0385 72.5497 30.0385C72.8136 30.0385 72.8136 30.0871 72.8136 30.2085C72.8136 30.2814 72.8136 30.33 72.7417 30.33C72.6697 30.33 72.4298 30.3057 71.0622 30.3057C69.7186 30.3057 69.6706 30.33 69.6226 30.33C69.5746 30.33 69.5506 30.3057 69.5506 30.2085C69.5506 30.1114 69.5506 30.0385 69.8145 30.0385C70.5343 30.0385 70.5823 29.8685 70.6063 29.6256C70.6303 29.1641 70.6303 28.5568 70.6303 28.1682V25.9335ZM71.542 26.9294C71.542 27.148 71.59 27.2695 72.0699 27.2695C72.9336 27.3666 73.7254 26.7108 73.7973 25.8364C73.7973 25.7635 73.7973 25.6906 73.7973 25.6177C73.8693 24.7919 73.2455 24.0632 72.4298 23.9903C72.3818 23.9903 72.3338 23.9903 72.2858 23.9903C71.59 23.9903 71.518 23.9903 71.518 24.7676L71.542 26.9294ZM78.7638 25.9335C78.7638 25.2777 78.7638 25.0591 78.7398 24.6219C78.7398 24.0875 78.5719 23.9903 77.9241 23.9903C77.8281 23.9903 77.8281 23.9174 77.8281 23.8203C77.8281 23.7717 77.8521 23.6988 77.9001 23.6988C77.9481 23.6988 78.6199 23.7231 79.1957 23.7231C79.4356 23.7231 79.9875 23.6988 80.5393 23.6988C81.595 23.6988 82.8906 24.0632 82.8906 25.3991C82.8906 26.2979 82.4347 26.7351 81.427 27.1237C81.379 27.148 81.331 27.148 81.331 27.1966C81.6909 27.901 82.1228 28.5568 82.6267 29.1398C83.2985 29.9413 83.3704 30.0628 83.9223 30.0628C83.9942 30.0628 83.9942 30.1114 83.9942 30.1842C83.9942 30.2814 83.9702 30.33 83.8743 30.33C83.6343 30.3057 83.3704 30.3057 83.1305 30.3057C82.9146 30.3057 82.6986 30.3057 82.4827 30.33C82.4107 30.33 82.3627 30.33 82.3147 30.2571C81.547 29.2612 80.9472 28.071 80.6353 27.7552C80.3953 27.4638 80.0354 27.318 79.6756 27.3909V28.1925C79.6756 28.5811 79.6755 29.1883 79.6995 29.6499C79.6995 29.8928 79.7715 30.0628 80.4913 30.0628C80.7552 30.0628 80.7552 30.1114 80.7552 30.2328C80.7552 30.3057 80.7552 30.3543 80.6833 30.3543C80.6113 30.3543 80.5873 30.33 79.2197 30.33C78.0201 30.33 77.9721 30.3543 77.9241 30.3543C77.8521 30.3543 77.8521 30.33 77.8521 30.2328C77.8521 30.1357 77.8521 30.0628 78.116 30.0628C78.6918 30.0628 78.7638 29.8928 78.7638 29.6499C78.7878 29.1883 78.7878 28.5811 78.7878 28.1925L78.7638 25.9335ZM80.4193 27.1237C81.1871 27.1966 81.8589 26.6136 81.9309 25.8364C81.9309 25.7392 81.9309 25.642 81.9309 25.5449C81.9789 24.7433 81.379 24.0632 80.5873 24.0146C80.5153 24.0146 80.4433 24.0146 80.3713 24.0146C79.8195 24.0146 79.6995 24.0632 79.6995 24.6704V27.1237H80.4193ZM87.8571 27.9496C87.5931 27.9496 87.5452 27.9496 87.4732 28.1439C87.2332 28.654 87.0653 29.1884 86.9693 29.747C86.9693 29.8685 86.9693 30.0871 87.4492 30.0871C88.001 30.0871 88.025 30.1114 88.025 30.2085C88.025 30.33 88.001 30.3543 87.9051 30.3543C87.8331 30.3543 87.7131 30.33 86.6334 30.33C86.0816 30.33 85.9856 30.3543 85.9137 30.3543C85.8657 30.3543 85.8417 30.3057 85.8417 30.1842C85.8417 30.1114 85.9377 30.0628 86.1776 30.0628C86.3455 30.0628 86.5135 29.9413 86.6334 29.6013C87.1853 27.9496 87.8811 25.9578 88.7928 23.7231C88.8168 23.6503 88.8648 23.6503 88.9607 23.6503C89.0327 23.6503 89.0807 23.6503 89.1287 23.7717C89.2007 23.9417 90.7122 28.1682 91.36 29.6499C91.456 29.9413 91.7439 30.1357 92.0558 30.0871C92.1278 30.0871 92.3197 30.1114 92.3197 30.1842C92.3197 30.2571 92.2957 30.3543 92.2237 30.3543C92.1518 30.3543 92.0558 30.33 90.9521 30.33C89.7285 30.33 89.6565 30.3543 89.5845 30.3543C89.5605 30.3543 89.5366 30.2814 89.5366 30.1842C89.5366 30.0871 89.7285 30.0628 89.9204 30.0628C90.2803 30.0628 90.4003 30.0142 90.4003 29.8685C90.2084 29.2126 89.9684 28.5568 89.7045 27.9496H87.8571ZM89.6085 27.6338L88.6488 24.9133H88.6248C88.2649 25.7635 87.953 26.6379 87.6891 27.5124C87.6891 27.6095 87.7371 27.6095 88.025 27.6095L89.6085 27.6338ZM95.1508 25.9335C95.1508 25.2777 95.1508 25.0591 95.1269 24.6219C95.1269 24.0875 94.9589 23.9903 94.3111 23.9903C94.2151 23.9903 94.2151 23.9174 94.2151 23.8203C94.2151 23.7717 94.2391 23.6988 94.2871 23.6988C94.3351 23.6988 95.0069 23.7231 95.5827 23.7231C95.8466 23.7231 96.3505 23.6988 96.7823 23.6988C97.814 23.6988 99.0137 23.9417 99.0137 25.2291C98.9897 25.7878 98.6778 26.2736 98.1739 26.4922C97.6701 26.7351 97.4301 26.7351 97.4301 26.8079C97.4301 26.8322 97.4781 26.8322 97.5981 26.8808C98.5578 27.0751 99.2776 27.6095 99.2776 28.6054C99.2776 29.3827 98.7258 30.3057 97.2862 30.3057C97.0703 30.3057 96.6864 30.2814 95.7267 30.2814C94.3831 30.2814 94.3351 30.3057 94.2871 30.3057C94.2391 30.3057 94.2151 30.2814 94.2151 30.1842C94.2151 30.0871 94.2151 30.0142 94.479 30.0142C95.0549 30.0142 95.1269 29.8442 95.1269 29.6013C95.1508 29.1398 95.1508 28.5325 95.1508 28.1439V25.9335ZM96.7584 26.7351C97.4062 26.7837 97.982 26.2979 98.03 25.6177C98.03 25.5449 98.03 25.472 98.03 25.3748C98.078 24.6704 97.5741 24.0389 96.8783 23.9903C96.8063 23.9903 96.7344 23.9903 96.6624 23.9903C96.0866 23.9903 96.0386 23.9903 96.0386 24.7433V26.7108L96.7584 26.7351ZM96.0386 29.5527C96.0386 29.9413 96.0626 30.0871 96.6144 30.0871C97.5741 30.0871 98.2699 29.6256 98.2699 28.6054C98.3179 27.7795 97.7181 27.0751 96.9023 27.0266C96.8303 27.0266 96.7344 27.0266 96.6624 27.0266H96.0386V29.5527ZM103.908 27.9496C103.644 27.9496 103.596 27.9496 103.524 28.1439C103.284 28.654 103.116 29.1884 103.02 29.747C103.02 29.8685 103.02 30.0871 103.5 30.0871C104.052 30.0871 104.076 30.1114 104.076 30.2085C104.076 30.33 104.052 30.3543 103.956 30.3543C103.884 30.3543 103.764 30.33 102.685 30.33C102.133 30.33 102.037 30.3543 101.965 30.3543C101.917 30.3543 101.893 30.3057 101.893 30.1842C101.893 30.1114 101.989 30.0628 102.229 30.0628C102.397 30.0628 102.565 29.9413 102.685 29.6013C103.236 27.9496 103.932 25.9578 104.844 23.7231C104.868 23.6503 104.916 23.6503 105.012 23.6503C105.084 23.6503 105.132 23.6503 105.18 23.7717C105.252 23.9417 106.763 28.1682 107.411 29.6499C107.507 29.9413 107.795 30.1357 108.107 30.0871C108.179 30.0871 108.371 30.1114 108.371 30.1842C108.371 30.2571 108.347 30.3543 108.275 30.3543C108.203 30.3543 108.107 30.33 107.003 30.33C105.78 30.33 105.708 30.3543 105.636 30.3543C105.612 30.3543 105.588 30.2814 105.588 30.1842C105.588 30.0871 105.78 30.0628 105.972 30.0628C106.331 30.0628 106.451 30.0142 106.451 29.8685C106.259 29.2126 106.02 28.5568 105.756 27.9496H103.908ZM105.66 27.6338L104.7 24.9133H104.676C104.316 25.7635 104.004 26.6379 103.74 27.5124C103.74 27.6095 103.788 27.6095 104.076 27.6095L105.66 27.6338ZM110.626 24.0146C110.554 24.0146 110.554 23.966 110.554 23.8689C110.554 23.7474 110.578 23.7474 110.65 23.7474C110.698 23.7474 111.346 23.7717 111.514 23.7717C111.658 23.7717 112.186 23.7474 112.33 23.7474C112.354 23.7474 112.378 23.7717 112.402 23.796C113.481 25.0105 114.921 26.7594 116.96 28.8969C117.008 28.0467 117.056 26.395 117.056 25.4963C117.056 24.0875 116.696 24.0146 115.905 24.0146C115.809 24.0146 115.785 23.966 115.785 23.8932C115.785 23.796 115.809 23.7474 115.881 23.7474C116.024 23.7474 116.96 23.7717 117.2 23.7717C117.392 23.7717 118.352 23.7474 118.4 23.7474C118.448 23.7474 118.472 23.8203 118.472 23.8689C118.472 23.9903 118.448 24.0389 118.4 24.0389C117.656 24.0389 117.512 24.1361 117.392 24.8162C117.344 25.1319 117.224 29.4798 117.224 30.3785C117.224 30.5 117.176 30.5 117.08 30.5C116.984 30.5 116.24 29.5284 112.018 24.9133C112.018 25.7149 111.994 26.5165 111.994 27.2937C111.994 28.654 112.018 29.4555 112.018 29.6499C112.018 29.9656 112.234 30.1114 112.737 30.1114C113.193 30.1114 113.193 30.1599 113.193 30.2571C113.193 30.3785 113.169 30.4028 113.097 30.4028C113.025 30.4028 112.977 30.3785 111.85 30.3785C110.818 30.3785 110.722 30.4028 110.674 30.4028C110.578 30.4028 110.578 30.33 110.578 30.2328C110.578 30.1599 110.89 30.1357 110.986 30.1357C111.202 30.1357 111.562 30.0871 111.61 29.7227C111.61 29.5527 111.706 27.8038 111.706 25.1077C111.706 24.9862 111.706 24.8405 111.682 24.719C111.61 24.549 111.13 24.0632 110.938 24.0632L110.626 24.0146ZM126.173 28.1439C126.173 27.9496 126.053 27.8767 125.334 27.8767C124.782 27.8767 124.782 27.8281 124.782 27.7067C124.782 27.6338 124.782 27.5852 124.95 27.5852C125.022 27.5852 125.262 27.6095 126.629 27.6095C127.901 27.6095 127.949 27.5852 128.021 27.5852C128.093 27.5852 128.093 27.6095 128.093 27.7067C128.093 27.8038 128.093 27.8767 127.901 27.8767C127.181 27.8767 127.109 28.0467 127.109 28.2896V29.5527C127.109 29.8199 127.373 29.8442 127.373 29.9656C127.373 30.0385 127.373 30.0628 127.229 30.1114C126.269 30.3786 125.286 30.5 124.326 30.4514C122.551 30.5486 121.039 29.1398 120.943 27.3423C120.943 27.2937 120.943 27.2694 120.943 27.2209C120.847 25.3263 122.311 23.7231 124.182 23.626C124.23 23.626 124.278 23.626 124.326 23.626C125.214 23.5531 126.101 23.7474 126.845 24.2332C126.893 24.2575 126.941 24.2818 127.013 24.3061C127.085 24.3061 127.229 24.1361 127.301 24.1361C127.373 24.1361 127.373 24.1603 127.373 24.549C127.373 24.9619 127.373 25.3748 127.421 25.7878C127.421 25.8606 127.325 25.8849 127.229 25.8849C127.085 25.6906 127.013 25.4477 126.965 25.2048C126.725 24.4761 125.933 23.8689 124.59 23.8689C123.462 23.8689 122.047 24.9619 122.047 27.1966C121.927 28.7268 123.054 30.0871 124.566 30.2085C124.614 30.2085 124.686 30.2085 124.734 30.2085C125.646 30.2085 126.245 30.1114 126.245 29.5284L126.173 28.1439ZM5.37015 7.01171C4.91429 7.08458 4.45843 7.10887 4.00256 7.10887C3.78663 7.10887 3.5467 7.10887 3.33077 7.08458V9.14922C3.33077 11.6754 3.33077 11.7968 4.93828 11.9183C4.98627 11.9183 5.08223 12.2826 4.91429 12.2583C4.1945 12.1855 3.47472 12.1369 2.75494 12.1612C1.9152 12.1369 1.05146 12.1855 0.211716 12.2583C0.0677599 12.2826 0.139738 11.9183 0.187723 11.9183C1.74725 11.7482 1.81923 11.7725 1.81923 9.14922V3.85403C1.81923 1.86226 1.79523 1.25502 0.787541 1.25502C0.571607 1.25502 0.355672 1.27931 0.115745 1.32789C0.0197741 1.35218 -0.0761964 1.0607 0.0917526 1.01212C1.53131 0.744928 2.99487 0.647773 4.45843 0.720643C7.00165 0.720643 9.08902 1.52221 9.08902 3.46539C8.99305 4.92278 8.03334 6.18586 6.66575 6.64737C7.60147 9.17351 10.3366 12.2097 12.28 12.2097C12.328 12.2097 12.424 12.5498 12.2561 12.5498C8.17729 12.5498 6.13791 9.78076 5.37015 7.01171ZM3.45073 1.23072C3.33077 2.05658 3.30677 2.88244 3.33077 3.684V6.59878C3.57069 6.62307 3.69066 6.59878 4.00256 6.59878C6.61777 6.59878 7.52949 5.65148 7.52949 4.19409C7.52949 1.81368 5.96997 1.18215 4.24249 1.18215C3.95458 1.20644 3.73864 1.23072 3.45073 1.23072ZM17.0546 6.69594C17.2705 3.1982 20.1257 0.50203 23.5806 0.52632C27.2755 0.52632 29.8187 3.29536 29.8187 6.33159C29.8187 9.27067 27.1075 12.5255 23.2447 12.5255C19.5738 12.5012 17.0546 9.73217 17.0546 6.69594ZM18.6141 6.11299C18.6141 9.97507 21.1813 11.9668 23.6766 11.9668C26.2918 11.9668 28.2592 10.0965 28.2592 6.91456C28.2592 3.05247 25.644 1.03641 23.1967 1.03641C20.5575 1.03641 18.6141 2.93102 18.6141 6.11299ZM36.8726 11.3353C36.8486 10.558 36.8726 9.78075 36.9685 9.02777C36.9685 8.93061 37.2804 8.9549 37.2804 9.00348C37.4004 10.8009 38.3841 11.9668 40.1836 11.9668C41.3592 11.9668 42.4869 11.311 42.4869 9.9022C42.4869 6.98742 37.2565 6.96314 37.2565 3.75687C37.3284 1.91085 38.864 0.453449 40.6874 0.502028C41.4792 0.477738 42.2709 0.672062 42.9667 1.0607C43.1107 1.13357 43.2306 1.78939 43.2306 2.9796C43.2306 3.07676 42.8947 3.05247 42.8947 3.00389C42.7748 1.81369 41.7431 0.939249 40.5674 1.03641C39.5118 0.939249 38.5761 1.74082 38.4801 2.78528V2.80956C38.4801 5.6029 43.6145 5.55432 43.6145 8.90632C43.6385 10.8495 42.079 12.4526 40.1596 12.4769C40.1356 12.4769 40.0876 12.4769 40.0636 12.4769C38.864 12.5255 37.7363 12.1126 36.8726 11.3353ZM60.6253 12.234C59.9775 12.234 58.8739 12.1369 57.6023 12.1369C55.8508 12.1369 54.0513 12.1612 52.8037 12.234C52.6358 12.2583 52.7317 11.894 52.7797 11.894C54.5312 11.6997 54.5792 11.7725 54.5792 9.12493V3.85403C54.5792 1.18215 54.5552 1.25502 52.7797 1.03641C52.7317 1.03641 52.6118 0.696353 52.8037 0.720643C54.0753 0.817802 55.7788 0.842092 57.5303 0.842092C58.8259 0.842092 60.0015 0.817802 61.0092 0.720643C60.9133 1.0607 60.8653 1.40075 60.8893 1.74081C60.8893 1.91084 60.8893 2.27519 60.9133 2.42093C60.9373 2.51809 60.6253 2.46951 60.6014 2.42093C60.4574 1.64366 60.0975 1.42505 57.8182 1.42505H56.1387C56.0667 2.20232 56.0427 3.00388 56.0427 3.78116V6.04012H57.8422C59.7616 6.04012 59.6177 5.89438 59.7136 5.43287C59.7376 5.38429 60.0015 5.43287 60.0495 5.45716C59.9775 5.82151 59.9296 6.18586 59.9536 6.55021C59.9536 6.74453 59.9535 7.08458 59.9775 7.23032C60.0015 7.32748 59.6896 7.30319 59.6656 7.25461C59.5697 6.72024 59.4497 6.50163 57.8662 6.50163H56.0667V9.07635C56.0667 11.3596 56.3546 11.5782 57.1464 11.5782H58.0581C60.7213 11.5782 60.8653 11.3596 61.1292 10.1937C61.1292 10.1694 61.4651 10.1694 61.4411 10.2423C61.3691 10.6795 61.2252 11.5053 61.1052 11.8697C61.0092 12.1855 60.9133 12.234 60.6253 12.234ZM80.5873 12.3798C80.5393 12.4526 80.4193 12.4769 80.3474 12.4283C80.3234 12.4041 80.2994 12.3798 80.2994 12.3555L77.6842 4.89849L74.4212 12.3798C74.3492 12.4526 74.2292 12.4769 74.1572 12.4283C74.1332 12.4041 74.1093 12.4041 74.1093 12.3798L70.7503 3.90261C69.9105 1.78939 69.6466 1.20644 68.255 1.08499C68.159 1.08499 68.0871 0.76922 68.279 0.79351C68.9028 0.866379 69.5266 0.914957 70.1265 0.890667C71.0622 0.914957 71.9739 0.866379 72.9096 0.79351C73.0776 0.76922 72.9816 1.08499 72.9336 1.08499C72.1418 1.15786 71.71 1.25502 71.71 1.74081C71.8299 2.46951 72.0459 3.19821 72.3338 3.87832L74.829 10.1451L77.3962 4.12122L77.3003 3.90261C76.4365 1.83797 76.2686 1.20644 74.949 1.08499C74.901 1.08499 74.829 0.76922 74.973 0.79351C75.5968 0.866379 76.2206 0.914957 76.8204 0.890667C77.8041 0.914957 78.7878 0.866379 79.7475 0.79351C79.8915 0.76922 79.8435 1.08499 79.7715 1.08499C78.6918 1.18215 78.356 1.3036 78.356 1.81369C78.4279 2.51809 78.6199 3.2225 78.8838 3.87832L80.9951 10.1451L83.4904 3.80545C83.8023 3.17391 84.0182 2.46951 84.1142 1.7651C84.1142 1.32789 83.8263 1.18215 82.9865 1.08499C82.9386 1.08499 82.8186 0.76922 83.0105 0.79351C83.5864 0.866379 84.1622 0.914957 84.738 0.890667C85.2898 0.914957 85.8417 0.866379 86.3695 0.79351C86.5135 0.76922 86.4415 1.08499 86.3935 1.08499C85.2898 1.18215 84.9539 1.95942 84.1382 3.90261L80.5873 12.3798ZM92.2477 6.69594C92.4637 3.1982 95.3188 0.50203 98.7737 0.52632C102.469 0.52632 105.012 3.29536 105.012 6.33159C105.012 9.27067 102.301 12.5255 98.4379 12.5255C95.1748 12.6712 92.3917 10.1208 92.2477 6.79311C92.2477 6.74453 92.2477 6.72023 92.2477 6.69594ZM93.8073 6.11299C93.8073 9.97507 96.3745 11.9668 98.8697 11.9668C101.485 11.9668 103.452 10.0965 103.452 6.91456C103.452 3.05247 100.837 1.03641 98.3899 1.03641C95.7507 1.03641 93.8073 2.93102 93.8073 6.11299ZM112.066 6.69594C112.282 3.1982 115.137 0.50203 118.592 0.52632C122.287 0.52632 124.83 3.29536 124.83 6.33159C124.83 9.27067 122.119 12.5255 118.28 12.5255C114.585 12.5012 112.066 9.73217 112.066 6.69594ZM113.625 6.11299C113.625 9.97507 116.192 11.9668 118.688 11.9668C121.303 11.9668 123.27 10.0965 123.27 6.91456C123.27 3.05247 120.655 1.03641 118.208 1.03641C115.569 1.03641 113.625 2.93102 113.625 6.11299ZM134.883 12.1612C133.947 12.1369 133.011 12.1855 132.076 12.2583C131.908 12.2826 132.004 11.9183 132.052 11.9183C133.587 11.7482 133.683 11.7725 133.683 9.14922V3.87832C133.683 1.23073 133.587 1.23073 132.052 1.0607C132.004 1.0607 131.884 0.744928 132.076 0.769218C132.795 0.866378 134.019 0.866376 135.051 0.866376C135.483 0.866376 137.09 0.79351 137.738 0.79351C141.889 0.79351 144 3.22249 144 6.33159C144 9.53785 141.385 12.234 137.498 12.234C136.874 12.234 135.291 12.1612 134.883 12.1612ZM135.339 1.42505C135.219 2.22661 135.171 3.05247 135.195 3.87832V9.78076C135.195 11.5053 135.459 11.6754 137.978 11.6754C140.473 11.6754 142.416 9.9265 142.416 6.89026C142.416 3.19821 140.401 1.32789 137.186 1.32789C136.562 1.3036 135.938 1.32789 135.339 1.42505Z" fill="#19375C"/>
</svg>
