<svg width="80" height="61" viewBox="0 0 80 61" fill="none" xmlns="http://www.w3.org/2000/svg">
<g opacity="0.8" clip-path="url(#clip0_497_4277)">
<path d="M2.77321 54.717L3.01702 54.29C3.05512 54.2214 3.15416 54.229 3.19226 54.2595C3.21512 54.2671 3.58845 54.5416 3.92369 54.5416C4.1294 54.5416 4.28178 54.412 4.28178 54.229C4.28178 54.0155 4.09893 53.8478 3.74845 53.7029C3.30655 53.5275 2.74274 53.1768 2.74274 52.5591C2.74274 52.0483 3.13893 51.5298 3.93893 51.5298C4.47988 51.5298 4.89131 51.8043 5.04369 51.9186C5.10464 51.9568 5.09702 52.0483 5.07416 52.0864L4.8075 52.4829C4.7694 52.5439 4.67797 52.5896 4.63226 52.5515C4.58655 52.5286 4.20559 52.2389 3.89321 52.2389C3.70274 52.2389 3.56559 52.3609 3.56559 52.5058C3.56559 52.6964 3.71797 52.8413 4.1294 53.009C4.53321 53.1691 5.17321 53.4818 5.17321 54.1909C5.17321 54.7246 4.71607 55.2584 3.95417 55.2584C3.28369 55.2584 2.91036 54.9763 2.78845 54.8619C2.73512 54.8085 2.71988 54.7856 2.76559 54.717H2.77321Z" fill="#E1007D"/>
<path d="M6.07988 51.6822C6.07988 51.6289 6.12559 51.5831 6.17893 51.5831H6.80369C6.85702 51.5831 6.90274 51.6289 6.90274 51.6822V55.1059C6.90274 55.1592 6.85702 55.205 6.80369 55.205H6.17893C6.12559 55.205 6.07988 55.1592 6.07988 55.1059V51.6822Z" fill="#E1007D"/>
<path d="M8.8075 53.3521L7.76369 51.7356C7.72559 51.667 7.76369 51.5908 7.85512 51.5908H8.6094C8.6094 51.5908 8.67797 51.6136 8.69321 51.6365L9.2875 52.5973L9.89702 51.6365C9.89702 51.6365 9.94274 51.5908 9.98083 51.5908H10.7351C10.8265 51.5908 10.8723 51.667 10.8265 51.7356L9.77512 53.3521L10.8646 55.0677C10.9104 55.144 10.8646 55.2126 10.7808 55.2126H10.0646C10.0646 55.2126 9.98845 55.1897 9.97321 55.1669L9.29512 54.1223H9.2875L8.62464 55.1669C8.62464 55.1669 8.57893 55.2126 8.53321 55.2126H7.81702C7.72559 55.2126 7.67988 55.1364 7.72559 55.0677L8.81512 53.3521H8.8075Z" fill="#E1007D"/>
<path d="M12.1523 52.3456H11.4132C11.3599 52.3456 11.3142 52.2999 11.3142 52.2465V51.6822C11.3142 51.6289 11.3523 51.5831 11.4132 51.5831H13.7142C13.7751 51.5831 13.8132 51.6289 13.8132 51.6822V52.2465C13.8132 52.2999 13.7751 52.3456 13.7142 52.3456H12.9751V55.1059C12.9751 55.1592 12.9294 55.205 12.8761 55.205H12.2513C12.198 55.205 12.1523 55.1592 12.1523 55.1059V52.3456Z" fill="#E1007D"/>
<path d="M15.4285 53.4665L14.2856 51.7356C14.2475 51.667 14.2856 51.5831 14.3694 51.5831H15.0399C15.078 51.5831 15.1085 51.606 15.1237 51.6289L15.8399 52.6887L16.5561 51.6289C16.5561 51.6289 16.5942 51.5831 16.6399 51.5831H17.3104C17.3942 51.5831 17.4323 51.667 17.3942 51.7356L16.2361 53.4589V55.1059C16.2361 55.1592 16.1904 55.205 16.137 55.205H15.5199C15.4665 55.205 15.4208 55.1592 15.4208 55.1059V53.4589L15.4285 53.4665Z" fill="#E1007D"/>
<path d="M19.4742 51.6822C19.4742 51.6289 19.5123 51.5831 19.5656 51.5831H20.8304C21.8285 51.5831 22.6437 52.399 22.6437 53.3902C22.6437 54.3815 21.8285 55.205 20.8304 55.205H19.5656C19.5123 55.205 19.4742 55.1592 19.4742 55.1059V51.6822ZM20.777 54.4425C21.3637 54.4425 21.7827 53.985 21.7827 53.3902C21.7827 52.7955 21.3561 52.3456 20.777 52.3456H20.2818V54.4425H20.777Z" fill="#E1007D"/>
<path d="M23.5351 51.6822C23.5351 51.6289 23.5732 51.5831 23.6342 51.5831H25.7751C25.8361 51.5831 25.8742 51.6289 25.8742 51.6822V52.2465C25.8742 52.2999 25.8361 52.3456 25.7751 52.3456H24.3427V52.9861H25.5237C25.577 52.9861 25.6227 53.0319 25.6227 53.0853V53.6495C25.6227 53.7105 25.577 53.7486 25.5237 53.7486H24.3427V54.4501H25.7751C25.8361 54.4501 25.8742 54.4959 25.8742 54.5493V55.1135C25.8742 55.1669 25.8361 55.2126 25.7751 55.2126H23.6342C23.5732 55.2126 23.5351 55.1669 23.5351 55.1135V51.6822Z" fill="#E1007D"/>
<path d="M28.4189 51.5374C28.8532 51.5374 29.3332 51.7204 29.6837 52.0254C29.7294 52.0635 29.737 52.1245 29.6913 52.1626L29.2799 52.5973C29.2418 52.6354 29.1808 52.6354 29.1427 52.5973C28.9446 52.4143 28.7161 52.3456 28.4646 52.3456C27.9008 52.3456 27.4437 52.8184 27.4437 53.3902C27.4437 53.9621 27.9008 54.4196 28.4646 54.4196C28.617 54.4196 28.7694 54.3968 28.9218 54.3358V54.0384H28.5942C28.5408 54.0384 28.4951 54.0003 28.4951 53.9469V53.436C28.4951 53.375 28.5332 53.3369 28.5942 53.3369H29.638C29.6913 53.3369 29.7294 53.3826 29.7294 53.436V54.8314C29.7294 54.8314 29.7142 54.9 29.6913 54.9152C29.6913 54.9152 29.158 55.2507 28.4113 55.2507C27.3827 55.2507 26.5523 54.4349 26.5523 53.3979C26.5523 52.3609 27.3827 51.5374 28.4113 51.5374H28.4189Z" fill="#E1007D"/>
<path d="M30.7123 51.6822C30.7123 51.6289 30.7504 51.5831 30.8113 51.5831H32.358C32.9827 51.5831 33.4856 52.0864 33.4856 52.704C33.4856 53.1768 33.1732 53.5656 32.7161 53.741L33.4246 55.0525C33.4627 55.1211 33.4246 55.205 33.3332 55.205H32.6475C32.6094 55.205 32.5713 55.1821 32.5637 55.1592L31.878 53.7868H31.5199V55.1059C31.5199 55.1592 31.4742 55.205 31.4208 55.205H30.8037C30.7504 55.205 30.7046 55.1592 30.7046 55.1059V51.6822H30.7123ZM32.2894 53.131C32.5027 53.131 32.6856 52.9327 32.6856 52.7192C32.6856 52.5057 32.5027 52.3228 32.2894 52.3228H31.5199V53.131H32.2894Z" fill="#E1007D"/>
<path d="M34.438 51.6822C34.438 51.6289 34.4761 51.5831 34.537 51.5831H36.678C36.7313 51.5831 36.777 51.6289 36.777 51.6822V52.2465C36.777 52.2999 36.7389 52.3456 36.678 52.3456H35.2456V52.9861H36.4265C36.4799 52.9861 36.5256 53.0319 36.5256 53.0853V53.6495C36.5256 53.7105 36.4799 53.7486 36.4265 53.7486H35.2456V54.4501H36.678C36.7313 54.4501 36.777 54.4959 36.777 54.5493V55.1135C36.777 55.1669 36.7389 55.2126 36.678 55.2126H34.537C34.4837 55.2126 34.438 55.1669 34.438 55.1135V51.6822Z" fill="#E1007D"/>
<path d="M37.7294 51.6822C37.7294 51.6289 37.7675 51.5831 37.8285 51.5831H39.9694C40.0227 51.5831 40.0685 51.6289 40.0685 51.6822V52.2465C40.0685 52.2999 40.0304 52.3456 39.9694 52.3456H38.537V52.9861H39.718C39.7713 52.9861 39.817 53.0319 39.817 53.0853V53.6495C39.817 53.7105 39.7713 53.7486 39.718 53.7486H38.537V54.4501H39.9694C40.0227 54.4501 40.0685 54.4959 40.0685 54.5493V55.1135C40.0685 55.1669 40.0304 55.2126 39.9694 55.2126H37.8285C37.7751 55.2126 37.7294 55.1669 37.7294 55.1135V51.6822Z" fill="#E1007D"/>
<path d="M40.8075 54.717L41.0513 54.29C41.0894 54.2214 41.1885 54.229 41.2265 54.2595C41.2494 54.2671 41.6227 54.5416 41.9656 54.5416C42.1713 54.5416 42.3237 54.412 42.3237 54.229C42.3237 54.0155 42.1408 53.8478 41.7904 53.7029C41.3484 53.5275 40.7846 53.1768 40.7846 52.5591C40.7846 52.0483 41.1808 51.5298 41.9808 51.5298C42.5218 51.5298 42.9332 51.8043 43.0856 51.9186C43.1465 51.9568 43.1389 52.0483 43.1161 52.0864L42.8494 52.4829C42.8113 52.5439 42.7199 52.5896 42.6742 52.5515C42.6284 52.5286 42.2475 52.2389 41.9351 52.2389C41.7523 52.2389 41.6075 52.3609 41.6075 52.5058C41.6075 52.6964 41.7599 52.8413 42.1713 53.009C42.5751 53.1691 43.2151 53.4818 43.2151 54.1909C43.2151 54.7246 42.758 55.2584 41.9961 55.2584C41.3256 55.2584 40.9523 54.9763 40.8304 54.8619C40.777 54.8085 40.7618 54.7856 40.8075 54.717Z" fill="#E1007D"/>
<path d="M20.3505 19.7106C16.6781 17.629 12.4343 17.9416 10.1257 18.5897C12.6781 14.4494 19.5352 3.65237 20.4648 2.11975H14.5219L5.03619 17.6747C2.94095 21.0907 0 25.1015 0 31.4989C0 39.8635 6.32381 44.957 13.5924 44.957C20.861 44.957 27.1924 39.8635 27.1924 31.4836C27.1924 26.1385 24.4038 22.0058 20.3505 19.7106ZM13.5924 39.8635C9.05905 39.8635 5.38667 36.1196 5.38667 31.4989C5.38667 26.8781 9.05905 23.1343 13.5924 23.1343C18.1257 23.1343 21.7981 26.8781 21.7981 31.4989C21.7981 36.1196 18.1257 39.8635 13.5924 39.8635Z" fill="url(#paint0_linear_497_4277)"/>
<path d="M56.8381 38.5901H56.7162C54.4381 33.428 50.1105 24.1331 47.6419 18.7804H37.5238V11.0715L32.1295 11.8264V18.7575L27.1848 18.7804V23.4545L32.1295 23.4316V35.3571C32.1295 44.6291 39.1924 46.5201 45.1733 43.8666V38.9485C40.9067 41.3428 37.5238 40.6336 37.5238 34.5107V23.4621H43.8933L53.8667 44.8121L45.9733 61H51.7867L71.5352 18.7804H65.9048C63.3829 24.217 59.2 33.245 56.8305 38.5901H56.8381Z" fill="url(#paint1_linear_497_4277)"/>
<path d="M73.1886 0C69.4324 0 66.3848 3.05763 66.3848 6.80913C66.3848 10.5606 69.44 13.6183 73.1886 13.6183C76.9371 13.6183 80 10.5606 80 6.80913C80 3.05763 76.9448 0 73.1886 0ZM73.1886 9.89725C71.4819 9.89725 70.1029 8.51713 70.1029 6.80913C70.1029 5.10113 71.4895 3.721 73.1886 3.721C74.8876 3.721 76.2819 5.10113 76.2819 6.80913C76.2819 8.51713 74.8952 9.89725 73.1886 9.89725Z" fill="url(#paint2_linear_497_4277)"/>
</g>
<defs>
<linearGradient id="paint0_linear_497_4277" x1="80" y1="0.500001" x2="-2.06193e-06" y2="43" gradientUnits="userSpaceOnUse">
<stop stop-color="#52ACE0"/>
<stop offset="1" stop-color="#E20B81"/>
</linearGradient>
<linearGradient id="paint1_linear_497_4277" x1="80" y1="0.500001" x2="-2.06193e-06" y2="43" gradientUnits="userSpaceOnUse">
<stop stop-color="#52ACE0"/>
<stop offset="1" stop-color="#E20B81"/>
</linearGradient>
<linearGradient id="paint2_linear_497_4277" x1="80" y1="0.500001" x2="-2.06193e-06" y2="43" gradientUnits="userSpaceOnUse">
<stop stop-color="#52ACE0"/>
<stop offset="1" stop-color="#E20B81"/>
</linearGradient>
<clipPath id="clip0_497_4277">
<rect width="80" height="61" fill="white"/>
</clipPath>
</defs>
</svg>
