<svg width="80" height="61" viewBox="0 0 80 61" fill="none" xmlns="http://www.w3.org/2000/svg">
<g id="Isolation_Mode" opacity="0.8" clip-path="url(#clip0_1_184)">
<g id="Vector">
<path d="M2.77333 54.717L3.01714 54.29C3.05524 54.2214 3.15429 54.229 3.19238 54.2595C3.21524 54.2672 3.58857 54.5417 3.92381 54.5417C4.12953 54.5417 4.28191 54.412 4.28191 54.229C4.28191 54.0155 4.09905 53.8478 3.74857 53.7029C3.30667 53.5275 2.74286 53.1768 2.74286 52.5592C2.74286 52.0483 3.13905 51.5298 3.93905 51.5298C4.48 51.5298 4.89143 51.8043 5.04381 51.9187C5.10476 51.9568 5.09714 52.0483 5.07429 52.0864L4.80762 52.4829C4.76953 52.5439 4.6781 52.5897 4.63238 52.5515C4.58667 52.5287 4.20572 52.2389 3.89333 52.2389C3.70286 52.2389 3.56572 52.3609 3.56572 52.5058C3.56572 52.6964 3.7181 52.8413 4.12953 53.009C4.53333 53.1692 5.17333 53.4818 5.17333 54.1909C5.17333 54.7247 4.71619 55.2584 3.95429 55.2584C3.28381 55.2584 2.91048 54.9763 2.78857 54.8619C2.73524 54.8085 2.72 54.7857 2.76572 54.717H2.77333Z" fill="#33312F"/>
<path d="M6.08 51.6823C6.08 51.6289 6.12572 51.5832 6.17905 51.5832H6.80381C6.85714 51.5832 6.90286 51.6289 6.90286 51.6823V55.1059C6.90286 55.1593 6.85714 55.205 6.80381 55.205H6.17905C6.12572 55.205 6.08 55.1593 6.08 55.1059V51.6823Z" fill="#33312F"/>
<path d="M8.80762 53.3522L7.76381 51.7357C7.72571 51.667 7.76381 51.5908 7.85524 51.5908H8.60952C8.60952 51.5908 8.6781 51.6137 8.69333 51.6365L9.28762 52.5973L9.89714 51.6365C9.89714 51.6365 9.94286 51.5908 9.98095 51.5908H10.7352C10.8267 51.5908 10.8724 51.667 10.8267 51.7357L9.77524 53.3522L10.8648 55.0678C10.9105 55.144 10.8648 55.2127 10.781 55.2127H10.0648C10.0648 55.2127 9.98857 55.1898 9.97333 55.1669L9.29524 54.1223H9.28762L8.62476 55.1669C8.62476 55.1669 8.57905 55.2127 8.53333 55.2127H7.81714C7.72572 55.2127 7.68 55.1364 7.72572 55.0678L8.81524 53.3522H8.80762Z" fill="#33312F"/>
<path d="M12.1524 52.3457H11.4133C11.36 52.3457 11.3143 52.2999 11.3143 52.2465V51.6823C11.3143 51.6289 11.3524 51.5832 11.4133 51.5832H13.7143C13.7752 51.5832 13.8133 51.6289 13.8133 51.6823V52.2465C13.8133 52.2999 13.7752 52.3457 13.7143 52.3457H12.9752V55.1059C12.9752 55.1593 12.9295 55.205 12.8762 55.205H12.2514C12.1981 55.205 12.1524 55.1593 12.1524 55.1059V52.3457Z" fill="#33312F"/>
<path d="M15.4286 53.4665L14.2857 51.7357C14.2476 51.667 14.2857 51.5832 14.3695 51.5832H15.04C15.0781 51.5832 15.1086 51.606 15.1238 51.6289L15.84 52.6888L16.5562 51.6289C16.5562 51.6289 16.5943 51.5832 16.64 51.5832H17.3105C17.3943 51.5832 17.4324 51.667 17.3943 51.7357L16.2362 53.4589V55.1059C16.2362 55.1593 16.1905 55.205 16.1371 55.205H15.52C15.4667 55.205 15.421 55.1593 15.421 55.1059V53.4589L15.4286 53.4665Z" fill="#33312F"/>
<path d="M19.4743 51.6823C19.4743 51.6289 19.5124 51.5832 19.5657 51.5832H20.8305C21.8286 51.5832 22.6438 52.399 22.6438 53.3903C22.6438 54.3815 21.8286 55.205 20.8305 55.205H19.5657C19.5124 55.205 19.4743 55.1593 19.4743 55.1059V51.6823ZM20.7771 54.4425C21.3638 54.4425 21.7829 53.985 21.7829 53.3903C21.7829 52.7955 21.3562 52.3457 20.7771 52.3457H20.2819V54.4425H20.7771Z" fill="#33312F"/>
<path d="M23.5352 51.6823C23.5352 51.6289 23.5733 51.5832 23.6343 51.5832H25.7752C25.8362 51.5832 25.8743 51.6289 25.8743 51.6823V52.2465C25.8743 52.2999 25.8362 52.3457 25.7752 52.3457H24.3429V52.9862H25.5238C25.5771 52.9862 25.6229 53.0319 25.6229 53.0853V53.6495C25.6229 53.7105 25.5771 53.7487 25.5238 53.7487H24.3429V54.4502H25.7752C25.8362 54.4502 25.8743 54.4959 25.8743 54.5493V55.1135C25.8743 55.1669 25.8362 55.2127 25.7752 55.2127H23.6343C23.5733 55.2127 23.5352 55.1669 23.5352 55.1135V51.6823Z" fill="#33312F"/>
<path d="M28.4191 51.5374C28.8533 51.5374 29.3333 51.7204 29.6838 52.0254C29.7295 52.0635 29.7371 52.1245 29.6914 52.1627L29.28 52.5973C29.2419 52.6354 29.181 52.6354 29.1429 52.5973C28.9448 52.4143 28.7162 52.3457 28.4648 52.3457C27.901 52.3457 27.4438 52.8184 27.4438 53.3903C27.4438 53.9622 27.901 54.4197 28.4648 54.4197C28.6171 54.4197 28.7695 54.3968 28.9219 54.3358V54.0384H28.5943C28.541 54.0384 28.4952 54.0003 28.4952 53.9469V53.436C28.4952 53.375 28.5333 53.3369 28.5943 53.3369H29.6381C29.6914 53.3369 29.7295 53.3827 29.7295 53.436V54.8314C29.7295 54.8314 29.7143 54.9 29.6914 54.9153C29.6914 54.9153 29.1581 55.2508 28.4114 55.2508C27.3829 55.2508 26.5524 54.4349 26.5524 53.3979C26.5524 52.3609 27.3829 51.5374 28.4114 51.5374H28.4191Z" fill="#33312F"/>
<path d="M30.7124 51.6823C30.7124 51.6289 30.7505 51.5832 30.8114 51.5832H32.3581C32.9829 51.5832 33.4857 52.0864 33.4857 52.704C33.4857 53.1768 33.1733 53.5657 32.7162 53.741L33.4248 55.0525C33.4629 55.1212 33.4248 55.205 33.3333 55.205H32.6476C32.6095 55.205 32.5714 55.1822 32.5638 55.1593L31.8781 53.7868H31.52V55.1059C31.52 55.1593 31.4743 55.205 31.421 55.205H30.8038C30.7505 55.205 30.7048 55.1593 30.7048 55.1059V51.6823H30.7124ZM32.2895 53.131C32.5029 53.131 32.6857 52.9328 32.6857 52.7193C32.6857 52.5058 32.5029 52.3228 32.2895 52.3228H31.52V53.131H32.2895Z" fill="#33312F"/>
<path d="M34.4381 51.6823C34.4381 51.6289 34.4762 51.5832 34.5371 51.5832H36.6781C36.7314 51.5832 36.7771 51.6289 36.7771 51.6823V52.2465C36.7771 52.2999 36.739 52.3457 36.6781 52.3457H35.2457V52.9862H36.4267C36.48 52.9862 36.5257 53.0319 36.5257 53.0853V53.6495C36.5257 53.7105 36.48 53.7487 36.4267 53.7487H35.2457V54.4502H36.6781C36.7314 54.4502 36.7771 54.4959 36.7771 54.5493V55.1135C36.7771 55.1669 36.739 55.2127 36.6781 55.2127H34.5371C34.4838 55.2127 34.4381 55.1669 34.4381 55.1135V51.6823Z" fill="#33312F"/>
<path d="M37.7295 51.6823C37.7295 51.6289 37.7676 51.5832 37.8286 51.5832H39.9695C40.0229 51.5832 40.0686 51.6289 40.0686 51.6823V52.2465C40.0686 52.2999 40.0305 52.3457 39.9695 52.3457H38.5371V52.9862H39.7181C39.7714 52.9862 39.8171 53.0319 39.8171 53.0853V53.6495C39.8171 53.7105 39.7714 53.7487 39.7181 53.7487H38.5371V54.4502H39.9695C40.0229 54.4502 40.0686 54.4959 40.0686 54.5493V55.1135C40.0686 55.1669 40.0305 55.2127 39.9695 55.2127H37.8286C37.7752 55.2127 37.7295 55.1669 37.7295 55.1135V51.6823Z" fill="#33312F"/>
<path d="M40.8076 54.717L41.0514 54.29C41.0895 54.2214 41.1886 54.229 41.2267 54.2595C41.2495 54.2672 41.6229 54.5417 41.9657 54.5417C42.1714 54.5417 42.3238 54.412 42.3238 54.229C42.3238 54.0155 42.141 53.8478 41.7905 53.7029C41.3486 53.5275 40.7848 53.1768 40.7848 52.5592C40.7848 52.0483 41.181 51.5298 41.981 51.5298C42.5219 51.5298 42.9333 51.8043 43.0857 51.9187C43.1467 51.9568 43.139 52.0483 43.1162 52.0864L42.8495 52.4829C42.8114 52.5439 42.72 52.5897 42.6743 52.5515C42.6286 52.5287 42.2476 52.2389 41.9352 52.2389C41.7524 52.2389 41.6076 52.3609 41.6076 52.5058C41.6076 52.6964 41.76 52.8413 42.1714 53.009C42.5752 53.1692 43.2152 53.4818 43.2152 54.1909C43.2152 54.7247 42.7581 55.2584 41.9962 55.2584C41.3257 55.2584 40.9524 54.9763 40.8305 54.8619C40.7771 54.8085 40.7619 54.7857 40.8076 54.717Z" fill="#33312F"/>
</g>
<g id="Vector_2">
<path d="M20.3505 19.7106C16.6781 17.629 12.4343 17.9416 10.1257 18.5897C12.6781 14.4494 19.5352 3.65237 20.4648 2.11975H14.5219L5.03619 17.6747C2.94095 21.0907 0 25.1015 0 31.4989C0 39.8635 6.32381 44.957 13.5924 44.957C20.861 44.957 27.1924 39.8635 27.1924 31.4836C27.1924 26.1385 24.4038 22.0058 20.3505 19.7106ZM13.5924 39.8635C9.05905 39.8635 5.38667 36.1196 5.38667 31.4989C5.38667 26.8781 9.05905 23.1343 13.5924 23.1343C18.1257 23.1343 21.7981 26.8781 21.7981 31.4989C21.7981 36.1196 18.1257 39.8635 13.5924 39.8635Z" fill="#33312F"/>
<path d="M56.8381 38.5901H56.7162C54.4381 33.428 50.1105 24.1331 47.6419 18.7804H37.5238V11.0715L32.1295 11.8264V18.7575L27.1848 18.7804V23.4545L32.1295 23.4316V35.3571C32.1295 44.6291 39.1924 46.5201 45.1733 43.8666V38.9485C40.9067 41.3428 37.5238 40.6336 37.5238 34.5107V23.4621H43.8933L53.8667 44.8121L45.9733 61H51.7867L71.5352 18.7804H65.9048C63.3829 24.217 59.2 33.245 56.8305 38.5901H56.8381Z" fill="#33312F"/>
<path d="M73.1886 0C69.4324 0 66.3848 3.05763 66.3848 6.80913C66.3848 10.5606 69.44 13.6183 73.1886 13.6183C76.9371 13.6183 80 10.5606 80 6.80913C80 3.05763 76.9448 0 73.1886 0ZM73.1886 9.89725C71.4819 9.89725 70.1029 8.51713 70.1029 6.80913C70.1029 5.10113 71.4895 3.721 73.1886 3.721C74.8876 3.721 76.2819 5.10113 76.2819 6.80913C76.2819 8.51713 74.8952 9.89725 73.1886 9.89725Z" fill="#33312F"/>
</g>
</g>
<defs>
<clipPath id="clip0_1_184">
<rect width="80" height="61" fill="white"/>
</clipPath>
</defs>
</svg>
