<svg width="182" height="41" viewBox="0 0 182 41" fill="none" xmlns="http://www.w3.org/2000/svg">
<g id="Group">
<g id="Isolation Mode">
<g id="Group_2">
<g id="Group_3">
<path id="Vector" d="M6.97525 23.7911C5.64801 21.8264 2.82992 20.9714 0.648163 20.5712C3.4299 19.7344 6.77525 21.5353 8.97519 23.0088C12.066 25.0826 14.8659 27.4475 18.2295 29.1393C23.0475 31.5587 30.6836 34.4511 34.9926 29.6668C35.3017 29.3212 35.8289 28.4844 36.3016 28.4298C36.7744 28.3753 37.0107 28.3025 37.4652 28.1388C38.7561 27.684 39.8652 26.7562 39.9015 25.3009C39.9379 22.5722 37.2471 19.9527 35.3017 18.4792C32.5927 16.4054 29.8109 14.2043 27.5928 11.6029C26.3383 10.1294 25.6656 8.4922 25.6656 6.52755C25.6656 3.19854 28.3382 0.906445 31.4472 0.233368C35.0108 -0.530665 38.7925 0.633576 41.5197 2.96206C41.956 3.32588 42.3196 3.85343 42.4469 4.41736C42.556 4.87214 42.5015 5.32692 42.3196 5.74532C42.1742 6.07276 41.4833 6.65488 41.7197 6.89137C42.3742 7.54626 42.9742 8.25572 43.5014 9.01975C43.7741 9.40176 44.5559 10.3295 44.2832 10.8934C43.9923 11.4574 42.2833 9.16528 42.1742 9.05613C40.7924 7.50987 39.2834 6.05457 37.5561 4.89033C35.338 3.39865 32.6836 2.50728 30.1927 4.01715C28.211 5.21777 28.1201 7.58264 29.2291 9.36538C30.9563 12.1305 33.6654 13.895 36.138 15.9142C38.8652 18.1336 41.7015 20.8077 42.7924 24.2458C43.556 26.6835 43.6651 29.4485 42.9196 31.9044C42.3196 33.8872 41.1015 35.6154 39.447 36.8524C38.0652 37.8893 35.7926 37.8711 34.1199 38.0166C31.32 38.2349 28.5019 38.1803 25.7201 37.7801C24.9747 37.671 24.1565 37.6164 23.4657 37.2708C23.102 37.0889 22.7566 36.8706 22.4111 36.7069C22.1202 36.5795 21.8475 36.4158 21.5748 36.2521C18.484 34.4329 16.1022 31.8498 13.4478 29.5031C10.3933 26.8108 6.41163 23.7001 2.19357 23.3545C3.79352 23.1907 5.4662 23.3545 7.01161 23.7911" fill="#F0EEEA"/>
<g id="Group_4">
<path id="Vector_2" d="M15.1386 37.5073C12.3387 37.7984 10.6479 38.1804 10.6479 38.5988C10.6479 39.5629 19.7567 40.327 30.9745 40.327C42.1924 40.327 51.3012 39.5447 51.3012 38.5988C51.3012 38.1986 49.6285 37.8166 46.8468 37.5255C50.883 37.8893 53.392 38.3987 53.392 38.9626C53.392 40.0905 43.356 41 30.9745 41C18.5931 41 8.55701 40.0905 8.55701 38.9626C8.55701 38.3987 11.0842 37.8893 15.1568 37.5073H15.1386Z" fill="#B1B1B1"/>
<path id="Vector_3" d="M18.175 37.125C15.9568 37.3251 14.6296 37.598 14.6296 37.889C14.6296 38.5621 21.8294 39.1078 30.7019 39.1078C39.5743 39.1078 46.7741 38.5621 46.7741 37.889C46.7741 37.598 45.4651 37.3433 43.2469 37.125C46.4468 37.3797 48.4286 37.7435 48.4286 38.1437C48.4286 38.9441 40.4834 39.5808 30.6837 39.5808C20.884 39.5808 12.9388 38.9441 12.9388 38.1437C12.9388 37.7435 14.9387 37.3797 18.1568 37.125H18.175Z" fill="#B1B1B1"/>
</g>
<g id="Group_5">
<path id="Vector_4" d="M28.5201 31.5586C33.1745 31.686 35.6108 27.6657 35.6108 27.6657C38.5016 21.7172 34.1017 19.0249 34.1017 19.0249C32.0472 17.2421 23.5566 16.8237 23.5566 16.8237C12.466 15.4594 11.4479 0.997314 11.4479 0.997314C9.82972 1.83411 9.39337 4.32632 9.39337 4.32632C8.84793 13.0399 19.9931 19.4978 19.9931 19.4978C8.93884 15.1865 7.44798 4.67195 7.44798 4.67195C6.13892 6.0181 6.19347 7.83723 6.19347 7.83723C5.68439 16.2234 19.4476 22.9178 19.4476 22.9178C5.75712 18.4609 4.72078 9.45625 4.72078 9.45625C4.72078 9.45625 2.97538 13.6766 6.15711 18.2972C6.15711 18.2972 8.06614 21.4079 12.9205 24.9916C12.9205 24.9916 20.4112 30.9765 28.5383 31.5586H28.5201Z" fill="url(#paint0_linear_51_9018)"/>
<g id="Group_6">
<path id="Vector_5" d="M37.0834 21.1714C37.0834 21.1714 38.7016 23.7182 36.5016 27.7021C36.5016 27.7021 42.156 27.029 37.0834 21.1714Z" fill="#F0EEEA"/>
<path id="Vector_6" d="M39.8106 18.4246C39.8106 18.4246 45.9377 23.9547 44.3741 30.5218C44.3741 30.5218 50.7194 26.6288 48.4467 22.4266C48.4467 22.4266 46.5922 19.2796 39.8106 18.4246Z" fill="#F0EEEA"/>
<path id="Vector_7" d="M32.0836 17.0604C32.0836 17.0604 28.3746 16.4055 27.6837 16.3145C27.6837 16.3145 19.4112 9.82024 21.9384 4.36286C21.9384 4.36286 22.5929 2.88937 23.5929 2.32544C23.5929 2.32544 21.9202 10.0203 32.1017 17.0422L32.0836 17.0604Z" fill="url(#paint1_linear_51_9018)"/>
<path id="Vector_8" d="M26.5928 16.2781C26.5928 16.2781 24.6474 16.1144 23.3565 15.9324C23.3565 15.9324 16.7022 11.3482 18.4294 7.61903C18.4294 7.61903 18.7385 6.78224 19.5566 5.92725C19.5566 5.92725 19.3567 10.9298 26.5928 16.2781Z" fill="url(#paint2_linear_51_9018)"/>
</g>
<path id="Vector_9" d="M16.8477 9.07422C16.8477 9.07422 15.7022 11.0571 16.884 12.5124C16.884 12.5124 18.7385 15.0591 22.1929 15.9141C22.1929 15.9141 17.1749 12.8034 16.8477 9.07422Z" fill="url(#paint3_linear_51_9018)"/>
</g>
</g>
<g id="Group_7">
<g id="Group_8">
<path id="Vector_10" d="M73.0156 5.79221L71.069 7.39343C70.5558 6.84875 70.0844 6.43532 69.6675 6.16955C69.2506 5.90377 68.6445 5.76924 67.8556 5.76924C66.9898 5.76924 66.2874 5.96611 65.7519 6.36642C65.2131 6.76344 64.9437 7.28187 64.9437 7.91186C64.9437 8.45654 65.181 8.93887 65.6525 9.35558C66.1207 9.77557 66.9224 10.2317 68.0544 10.7304C69.1865 11.2324 70.0684 11.6951 70.6969 12.1249C71.3287 12.5515 71.8482 13.0272 72.2523 13.5424C72.6564 14.0641 72.9578 14.6088 73.1534 15.1863C73.3523 15.7605 73.4517 16.3675 73.4517 17.0073C73.4517 18.5068 72.9193 19.7832 71.8546 20.8397C70.7867 21.893 69.5008 22.4246 67.9903 22.4246C66.4799 22.4246 65.2099 22.0144 64.0779 21.1843C62.9522 20.3607 62.08 19.1237 61.4771 17.4765L63.8822 16.7809C64.7577 18.8087 66.0982 19.8193 67.9037 19.8193C68.7824 19.8193 69.5104 19.5502 70.0876 19.0187C70.6681 18.4806 70.9631 17.8079 70.9631 16.9909C70.9631 16.502 70.8092 16.0098 70.5077 15.5177C70.1999 15.0255 69.8247 14.6153 69.3693 14.2971C68.9203 13.9788 68.1956 13.608 67.2142 13.1979C66.2265 12.7811 65.4665 12.4005 64.9341 12.0593C64.4018 11.7115 63.9432 11.3046 63.5519 10.8288C63.1671 10.3531 62.8785 9.88057 62.6989 9.40808C62.5193 8.93231 62.4295 8.43029 62.4295 7.89217C62.4295 6.60594 62.9362 5.50018 63.9496 4.59129C64.963 3.68569 66.1912 3.22632 67.6408 3.22632C68.5996 3.22632 69.5713 3.4396 70.5558 3.86287C71.5404 4.28614 72.3613 4.93582 73.0156 5.79877V5.79221Z" fill="#F0EEEA"/>
<path id="Vector_11" d="M85.7375 6.21558L90.4581 17.2994L94.89 6.81932H96.9585L90.4549 22.2803L85.7343 11.1702L81.0105 22.2803L74.494 6.81932H76.5689L81.0297 17.4176L85.7343 6.21886L85.7375 6.21558Z" fill="#F0EEEA"/>
<path id="Vector_12" d="M102.285 6.21558L109.219 21.8111H107.115L105.415 17.9655H99.1874L97.5037 21.8111H95.4192L102.288 6.21558H102.285ZM102.282 10.9044L99.9346 16.2593H104.655L102.282 10.9044Z" fill="#F0EEEA"/>
<path id="Vector_13" d="M110.944 6.19238L121.79 17.6044V6.79612H123.797V22.5065L112.948 11.1437V21.8141H110.947V6.19238H110.944Z" fill="#F0EEEA"/>
<path id="Vector_14" d="M135.255 3.78418H137.632V19.3731H143.372V21.8078H135.255V3.78418Z" fill="#F0EEEA"/>
<path id="Vector_15" d="M150.973 6.21558L157.903 21.8111H155.802L154.099 17.9655H147.875L146.188 21.8111H144.1L150.973 6.21558ZM150.969 10.9044L148.622 16.2593H153.343L150.969 10.9044Z" fill="#F0EEEA"/>
<path id="Vector_16" d="M159.747 6.79639H161.748V12.8928L167.972 6.79639H170.766L163.672 13.7591L170.811 21.8111H168.255L161.741 14.4842V21.8111H159.74V6.79639H159.747Z" fill="#F0EEEA"/>
<path id="Vector_17" d="M173.219 6.79639H181.352V8.84713H175.204V12.5975H181.352V14.622H175.204V19.7801H181.352V21.8111H173.219V6.79639Z" fill="#F0EEEA"/>
</g>
<g id="Group_9">
<path id="Vector_18" d="M72.4255 36.4615V29.3413H74.8724C75.2444 29.3413 75.5779 29.4332 75.8793 29.6202C76.1808 29.8072 76.4181 30.0599 76.5945 30.3749C76.7709 30.6932 76.8606 31.0442 76.8606 31.4347C76.8606 31.776 76.7933 32.0877 76.6618 32.3698C76.5303 32.652 76.3475 32.885 76.1166 33.0753C75.8857 33.2656 75.626 33.3936 75.3342 33.4658L77.0242 36.4615H76.0589L74.3977 33.538H73.2593V36.4615H72.4255ZM73.2625 32.6816H74.789C75.0135 32.6816 75.2219 32.6258 75.4111 32.5109C75.6003 32.3961 75.751 32.2419 75.8601 32.0483C75.9723 31.8547 76.0268 31.6349 76.0268 31.3888C76.0268 31.1427 75.9723 30.9196 75.8601 30.726C75.7478 30.5324 75.6003 30.3782 75.4111 30.2633C75.2219 30.1485 75.0167 30.0927 74.789 30.0927H73.2625V32.6816Z" fill="#B1B1B1"/>
<path id="Vector_19" d="M80.8822 36.5929C80.4236 36.5929 80.0067 36.4715 79.6315 36.232C79.2562 35.9925 78.9548 35.6676 78.7303 35.264C78.5058 34.8604 78.3936 34.4109 78.3936 33.9187C78.3936 33.5447 78.4577 33.1969 78.586 32.872C78.7143 32.5472 78.8939 32.265 79.1216 32.0189C79.3492 31.7728 79.6122 31.5793 79.9137 31.4414C80.2151 31.3036 80.5358 31.2314 80.8789 31.2314C81.2542 31.2314 81.5973 31.3102 81.9116 31.4644C82.2259 31.6186 82.492 31.8319 82.7165 32.1075C82.941 32.3831 83.1078 32.7014 83.22 33.0624C83.3322 33.4266 83.3707 33.8137 83.3419 34.2272H79.2851C79.3236 34.5159 79.4166 34.7719 79.5641 34.9983C79.7084 35.2247 79.8976 35.4018 80.1221 35.5331C80.3498 35.6643 80.6032 35.7332 80.8789 35.7365C81.1772 35.7365 81.4466 35.6578 81.6903 35.5003C81.9308 35.3428 82.1264 35.1262 82.2772 34.8506L83.127 35.054C82.9282 35.5036 82.6267 35.8743 82.2259 36.1598C81.825 36.4453 81.376 36.5896 80.8789 36.5896L80.8822 36.5929ZM79.2595 33.5578H82.5017C82.476 33.2723 82.3862 33.0131 82.2323 32.7769C82.0783 32.5406 81.8859 32.3536 81.6518 32.2092C81.4177 32.0682 81.1612 31.996 80.8822 31.996C80.6032 31.996 80.3498 32.0649 80.1157 32.206C79.8816 32.3471 79.6924 32.5308 79.5417 32.767C79.3909 33.0033 79.2979 33.2658 79.2595 33.5578Z" fill="#B1B1B1"/>
<path id="Vector_20" d="M86.3626 36.5567C86.0933 36.5468 85.8335 36.4943 85.5802 36.4025C85.3268 36.3106 85.1055 36.1826 84.9131 36.0218C84.7207 35.8611 84.5828 35.674 84.4994 35.464L85.2146 35.149C85.2659 35.2639 85.3525 35.3722 85.4839 35.4739C85.6122 35.5756 85.7629 35.6576 85.9297 35.7167C86.0997 35.779 86.2696 35.8086 86.4428 35.8086C86.6256 35.8086 86.7956 35.779 86.9559 35.7232C87.1163 35.6675 87.2445 35.5789 87.3472 35.4673C87.4466 35.3525 87.4979 35.2179 87.4979 35.0572C87.4979 34.8865 87.4434 34.7553 87.3311 34.6569C87.2189 34.5617 87.081 34.483 86.9142 34.4272C86.7475 34.3714 86.5775 34.3189 86.4043 34.2664C86.0644 34.1778 85.7565 34.0728 85.4904 33.9481C85.2242 33.8234 85.0093 33.6659 84.8554 33.4756C84.7015 33.2853 84.6245 33.0392 84.6245 32.7406C84.6245 32.4257 84.7111 32.1533 84.881 31.9203C85.051 31.6907 85.2755 31.5102 85.5545 31.3855C85.8335 31.2608 86.1317 31.1985 86.4492 31.1985C86.8501 31.1985 87.2157 31.2871 87.5492 31.4643C87.8795 31.6414 88.1264 31.881 88.29 32.1828L87.6198 32.5831C87.562 32.4617 87.4787 32.3535 87.36 32.2616C87.2445 32.1697 87.1131 32.0943 86.9623 32.0418C86.8148 31.986 86.6609 31.9597 86.5037 31.9564C86.3113 31.9499 86.1317 31.9761 85.965 32.0319C85.7982 32.091 85.6635 32.1763 85.5609 32.2944C85.4583 32.4125 85.4102 32.5569 85.4102 32.7308C85.4102 32.9047 85.4647 33.0294 85.5705 33.118C85.6796 33.2066 85.8175 33.2755 85.9938 33.328C86.1702 33.3805 86.3562 33.4395 86.5615 33.5084C86.8629 33.6069 87.1451 33.7217 87.4049 33.8497C87.6646 33.9777 87.8795 34.1384 88.0399 34.332C88.2002 34.5256 88.2804 34.7651 88.2772 35.0506C88.2772 35.3623 88.1874 35.6347 88.0046 35.8676C87.8218 36.1006 87.5877 36.2778 87.2959 36.3992C87.004 36.5206 86.6962 36.5764 86.3626 36.5632V36.5567Z" fill="#B1B1B1"/>
<path id="Vector_21" d="M90.1566 30.5457C90.0251 30.5457 89.9128 30.503 89.823 30.4144C89.7333 30.3258 89.6884 30.2175 89.6884 30.083C89.6884 29.9485 89.7333 29.8402 89.823 29.7516C89.9128 29.663 90.0219 29.6204 90.1502 29.6204C90.2784 29.6204 90.3875 29.663 90.4773 29.7516C90.567 29.8402 90.6119 29.9485 90.6119 30.083C90.6119 30.2175 90.5671 30.3258 90.4805 30.4144C90.3939 30.503 90.2848 30.5457 90.1534 30.5457H90.1566ZM89.73 31.3758H90.5638V36.4616H89.73V31.3758Z" fill="#B1B1B1"/>
<path id="Vector_22" d="M96.3554 28.8328H97.1892V36.4615H96.3554V35.5986C96.1855 35.8972 95.9578 36.1367 95.6756 36.3204C95.3902 36.5042 95.0566 36.5961 94.6718 36.5961C94.3094 36.5961 93.9727 36.5272 93.6584 36.3893C93.3441 36.2515 93.0651 36.0579 92.8246 35.8119C92.5841 35.5658 92.3949 35.2836 92.2602 34.9587C92.1255 34.6372 92.055 34.2894 92.055 33.9219C92.055 33.5544 92.1223 33.2066 92.2602 32.8818C92.3949 32.5569 92.5841 32.2747 92.8246 32.0286C93.0651 31.7826 93.3409 31.5922 93.6584 31.4512C93.9727 31.3133 94.3126 31.2412 94.6718 31.2412C95.0566 31.2412 95.3902 31.333 95.6756 31.5168C95.961 31.7005 96.1887 31.9401 96.3554 32.2386V28.836V28.8328ZM94.6782 35.7659C95.0053 35.7659 95.2907 35.6839 95.5313 35.5198C95.7718 35.3558 95.9578 35.1326 96.0893 34.8505C96.2207 34.5683 96.2849 34.2599 96.2849 33.9186C96.2849 33.5774 96.2175 33.2591 96.0861 32.9802C95.9546 32.7013 95.7654 32.4782 95.5281 32.3141C95.2875 32.15 95.0053 32.068 94.6814 32.068C94.3575 32.068 94.0561 32.15 93.7899 32.3174C93.5237 32.4847 93.3089 32.7078 93.1517 32.9867C92.9914 33.2657 92.9144 33.5774 92.9144 33.9186C92.9144 34.2599 92.9946 34.5716 93.1581 34.8505C93.3217 35.1294 93.5366 35.3525 93.8059 35.5165C94.0753 35.6806 94.3672 35.7626 94.6846 35.7626L94.6782 35.7659Z" fill="#B1B1B1"/>
<path id="Vector_23" d="M101.166 36.5929C100.707 36.5929 100.29 36.4715 99.9152 36.232C99.54 35.9925 99.2385 35.6676 99.014 35.264C98.7896 34.8604 98.6773 34.4109 98.6773 33.9187C98.6773 33.5447 98.7414 33.1969 98.8697 32.872C98.998 32.5472 99.1776 32.265 99.4053 32.0189C99.633 31.7728 99.8959 31.5793 100.197 31.4414C100.499 31.3036 100.82 31.2314 101.163 31.2314C101.538 31.2314 101.881 31.3102 102.195 31.4644C102.51 31.6186 102.776 31.8319 103 32.1075C103.225 32.3831 103.391 32.7014 103.504 33.0624C103.616 33.4266 103.654 33.8137 103.626 34.2272H99.5688C99.6073 34.5159 99.7003 34.7719 99.8478 34.9983C99.9921 35.2247 100.181 35.4018 100.406 35.5331C100.634 35.6643 100.887 35.7332 101.163 35.7365C101.461 35.7365 101.73 35.6578 101.974 35.5003C102.218 35.3428 102.41 35.1262 102.561 34.8506L103.411 35.054C103.212 35.5036 102.914 35.8743 102.513 36.1598C102.112 36.4453 101.663 36.5896 101.166 36.5896V36.5929ZM99.5464 33.5578H102.789C102.763 33.2723 102.673 33.0131 102.519 32.7769C102.365 32.5406 102.173 32.3536 101.939 32.2092C101.705 32.0682 101.448 31.996 101.169 31.996C100.89 31.996 100.637 32.0649 100.403 32.206C100.172 32.3438 99.9793 32.5308 99.8286 32.767C99.6779 33.0033 99.5849 33.2658 99.5464 33.5578Z" fill="#B1B1B1"/>
<path id="Vector_24" d="M109.526 33.2982V36.4613H108.693V33.4853C108.693 33.2261 108.632 32.9931 108.51 32.7831C108.388 32.5731 108.224 32.4058 108.016 32.2811C107.807 32.1564 107.583 32.094 107.33 32.094C107.076 32.094 106.852 32.1564 106.647 32.2811C106.438 32.4058 106.275 32.5731 106.153 32.7831C106.031 32.9931 105.97 33.2261 105.97 33.4853V36.4613H105.136V31.3755H105.97V32.012C106.146 31.7758 106.368 31.5855 106.637 31.4444C106.906 31.3033 107.198 31.2344 107.512 31.2344C107.884 31.2344 108.221 31.3262 108.529 31.51C108.837 31.6937 109.081 31.9431 109.26 32.2548C109.44 32.5665 109.53 32.9143 109.53 33.2982H109.526Z" fill="#B1B1B1"/>
<path id="Vector_25" d="M114.542 35.1197L115.289 35.5298C115.065 35.8514 114.779 36.1106 114.433 36.3042C114.086 36.4978 113.711 36.5929 113.307 36.5929C112.849 36.5929 112.432 36.4715 112.057 36.232C111.681 35.9925 111.38 35.6676 111.155 35.264C110.931 34.8604 110.819 34.4109 110.819 33.9187C110.819 33.5447 110.883 33.1969 111.011 32.872C111.139 32.5472 111.319 32.265 111.547 32.0189C111.774 31.7728 112.037 31.5793 112.339 31.4414C112.64 31.3036 112.961 31.2314 113.304 31.2314C113.708 31.2314 114.083 31.3266 114.43 31.5202C114.776 31.7138 115.061 31.973 115.286 32.2978L114.539 32.7113C114.378 32.5111 114.192 32.3569 113.971 32.2486C113.75 32.1403 113.528 32.0846 113.301 32.0846C112.993 32.0846 112.714 32.1699 112.464 32.3372C112.214 32.5045 112.015 32.7277 111.871 33.0066C111.723 33.2855 111.652 33.5873 111.652 33.9155C111.652 34.2436 111.726 34.5454 111.874 34.8244C112.021 35.1033 112.22 35.3231 112.47 35.4872C112.72 35.6545 112.999 35.7365 113.304 35.7365C113.548 35.7365 113.779 35.6775 113.997 35.5626C114.212 35.4478 114.394 35.2968 114.542 35.1164V35.1197Z" fill="#B1B1B1"/>
<path id="Vector_26" d="M118.968 36.5929C118.509 36.5929 118.092 36.4715 117.717 36.232C117.342 35.9925 117.04 35.6676 116.816 35.264C116.591 34.8604 116.479 34.4109 116.479 33.9187C116.479 33.5447 116.543 33.1969 116.671 32.872C116.8 32.5472 116.979 32.265 117.207 32.0189C117.435 31.7728 117.698 31.5793 117.999 31.4414C118.3 31.3036 118.621 31.2314 118.964 31.2314C119.34 31.2314 119.683 31.3102 119.997 31.4644C120.311 31.6186 120.577 31.8319 120.802 32.1075C121.026 32.3831 121.193 32.7014 121.305 33.0624C121.418 33.4266 121.456 33.8137 121.427 34.2272H117.37C117.409 34.5159 117.502 34.7719 117.649 34.9983C117.797 35.2247 117.983 35.4018 118.207 35.5331C118.435 35.6643 118.689 35.7332 118.964 35.7365C119.263 35.7365 119.532 35.6578 119.776 35.5003C120.016 35.3428 120.212 35.1262 120.363 34.8506L121.212 35.054C121.014 35.5036 120.715 35.8743 120.314 36.1598C119.914 36.4453 119.465 36.5896 118.968 36.5896V36.5929ZM117.345 33.5578H120.587C120.561 33.2723 120.472 33.0131 120.318 32.7769C120.164 32.5406 119.971 32.3536 119.737 32.2092C119.503 32.0682 119.247 31.996 118.968 31.996C118.689 31.996 118.435 32.0649 118.201 32.206C117.967 32.3471 117.778 32.5308 117.627 32.767C117.476 33.0033 117.383 33.2658 117.345 33.5578Z" fill="#B1B1B1"/>
<path id="Vector_27" d="M124.448 36.5567C124.179 36.5468 123.919 36.4943 123.666 36.4025C123.412 36.3106 123.191 36.1826 122.999 36.0218C122.809 35.8611 122.668 35.674 122.585 35.464L123.3 35.149C123.351 35.2639 123.438 35.3722 123.569 35.4739C123.698 35.5756 123.848 35.6576 124.018 35.7167C124.188 35.779 124.358 35.8086 124.532 35.8086C124.714 35.8086 124.884 35.779 125.045 35.7232C125.205 35.6675 125.333 35.5789 125.436 35.4673C125.539 35.3525 125.587 35.2179 125.587 35.0572C125.587 34.8865 125.532 34.7553 125.42 34.6569C125.308 34.5617 125.17 34.483 125.003 34.4272C124.836 34.3714 124.666 34.3189 124.493 34.2664C124.153 34.1778 123.845 34.0728 123.579 33.9481C123.313 33.8234 123.098 33.6659 122.944 33.4756C122.79 33.2853 122.713 33.0392 122.713 32.7406C122.713 32.4257 122.8 32.1533 122.97 31.9203C123.14 31.6874 123.364 31.5102 123.643 31.3855C123.922 31.2608 124.22 31.1985 124.538 31.1985C124.939 31.1985 125.304 31.2871 125.638 31.4643C125.968 31.6414 126.215 31.881 126.379 32.1828L125.708 32.5831C125.651 32.4617 125.567 32.3535 125.449 32.2616C125.333 32.1697 125.199 32.0943 125.051 32.0418C124.904 31.9893 124.75 31.9597 124.592 31.9564C124.4 31.9499 124.22 31.9761 124.054 32.0319C123.887 32.091 123.752 32.1763 123.65 32.2944C123.547 32.4125 123.499 32.5569 123.499 32.7308C123.499 32.9047 123.553 33.0294 123.659 33.118C123.765 33.2066 123.909 33.2755 124.083 33.328C124.256 33.3805 124.445 33.4395 124.65 33.5084C124.952 33.6069 125.234 33.7217 125.497 33.8497C125.76 33.9777 125.968 34.1384 126.132 34.332C126.292 34.5256 126.372 34.7651 126.369 35.0506C126.369 35.3623 126.279 35.6347 126.097 35.8676C125.914 36.1006 125.68 36.2778 125.388 36.3992C125.099 36.5206 124.788 36.5764 124.455 36.5632L124.448 36.5567Z" fill="#B1B1B1"/>
<path id="Vector_28" d="M135.826 36.4615H134.749L132.552 33.3739L132.029 34.0137V36.4615H131.195V29.3413H132.029V32.6881L134.768 29.3413H135.855L133.097 32.7045L135.826 36.4648V36.4615Z" fill="#B1B1B1"/>
<path id="Vector_29" d="M141.628 33.2985V36.4615H140.794V33.4855C140.794 33.2263 140.733 32.9933 140.611 32.7833C140.489 32.5733 140.326 32.406 140.117 32.2813C139.909 32.1566 139.684 32.0943 139.431 32.0943C139.178 32.0943 138.953 32.1566 138.748 32.2813C138.539 32.406 138.376 32.5733 138.254 32.7833C138.132 32.9933 138.071 33.2263 138.071 33.4855V36.4615H137.237V28.8328H138.071V32.0122C138.248 31.776 138.469 31.5857 138.738 31.4446C139.008 31.3035 139.299 31.2346 139.614 31.2346C139.986 31.2346 140.322 31.3265 140.63 31.5102C140.938 31.694 141.182 31.9433 141.361 32.255C141.541 32.5668 141.631 32.9146 141.631 33.2985H141.628Z" fill="#B1B1B1"/>
<path id="Vector_30" d="M147.214 31.3755H148.048V36.4613H147.214L147.179 35.6016C147.021 35.8969 146.807 36.1365 146.534 36.3202C146.261 36.504 145.934 36.5958 145.556 36.5958C145.177 36.5958 144.85 36.5269 144.533 36.3858C144.215 36.2448 143.933 36.0512 143.689 35.8018C143.446 35.5524 143.257 35.267 143.122 34.9388C142.987 34.6107 142.917 34.2629 142.917 33.8856C142.917 33.5082 142.984 33.1801 143.115 32.8586C143.247 32.537 143.433 32.2548 143.67 32.012C143.908 31.7692 144.18 31.5789 144.494 31.4411C144.805 31.3033 145.139 31.2344 145.498 31.2344C145.889 31.2344 146.233 31.3295 146.528 31.5166C146.823 31.7036 147.06 31.9497 147.243 32.245L147.214 31.3755ZM145.543 35.7657C145.87 35.7657 146.156 35.6837 146.396 35.5196C146.637 35.3556 146.823 35.1324 146.954 34.8502C147.086 34.5681 147.15 34.2596 147.15 33.9184C147.15 33.5771 147.082 33.2589 146.951 32.98C146.819 32.7011 146.63 32.4779 146.393 32.3139C146.156 32.1498 145.87 32.0678 145.546 32.0678C145.222 32.0678 144.921 32.1498 144.652 32.3172C144.382 32.4845 144.171 32.7076 144.013 32.9865C143.856 33.2654 143.776 33.5771 143.776 33.9184C143.776 34.2596 143.856 34.5713 144.02 34.8502C144.183 35.1291 144.398 35.3523 144.664 35.5163C144.934 35.6804 145.226 35.7624 145.543 35.7624V35.7657Z" fill="#B1B1B1"/>
<path id="Vector_31" d="M151.829 36.5929C151.37 36.5929 150.953 36.4715 150.578 36.232C150.203 35.9925 149.901 35.6676 149.677 35.264C149.452 34.8604 149.34 34.4109 149.34 33.9187C149.34 33.5447 149.404 33.1969 149.533 32.872C149.661 32.5472 149.84 32.265 150.068 32.0189C150.296 31.7728 150.559 31.5793 150.86 31.4414C151.162 31.3036 151.482 31.2314 151.826 31.2314C152.284 31.2314 152.701 31.3528 153.076 31.5924C153.451 31.8319 153.753 32.1567 153.977 32.5636C154.202 32.9705 154.314 33.42 154.314 33.9155C154.314 34.2862 154.25 34.6308 154.122 34.9523C153.993 35.2739 153.814 35.5593 153.586 35.8054C153.358 36.0515 153.096 36.2451 152.797 36.3829C152.499 36.5207 152.175 36.5896 151.832 36.5896L151.829 36.5929ZM151.829 35.7398C152.14 35.7398 152.422 35.6545 152.672 35.4872C152.922 35.3198 153.118 35.0967 153.262 34.8211C153.407 34.5454 153.477 34.2436 153.477 33.9187C153.477 33.5939 153.403 33.2822 153.256 33.0033C153.108 32.7244 152.91 32.5045 152.663 32.3372C152.412 32.1699 152.137 32.0878 151.829 32.0878C151.521 32.0878 151.239 32.1731 150.989 32.3405C150.738 32.5078 150.543 32.7309 150.398 33.0099C150.251 33.2888 150.18 33.5906 150.18 33.9187C150.18 34.2469 150.254 34.5651 150.405 34.8408C150.552 35.1164 150.754 35.3362 151.008 35.497C151.261 35.6578 151.534 35.7398 151.832 35.7398H151.829Z" fill="#B1B1B1"/>
<path id="Vector_32" d="M162.056 29.3413H163.04L160.683 33.2426V36.4615H159.849V33.2426L157.492 29.3413H158.477L160.266 32.3075L162.056 29.3413Z" fill="#B1B1B1"/>
<path id="Vector_33" d="M167.138 31.3755H167.972V36.4613H167.138L167.103 35.6016C166.946 35.8969 166.731 36.1365 166.459 36.3202C166.186 36.504 165.859 36.5958 165.481 36.5958C165.102 36.5958 164.775 36.5269 164.457 36.3858C164.14 36.2448 163.858 36.0512 163.614 35.8018C163.37 35.5524 163.181 35.267 163.046 34.9388C162.912 34.6107 162.841 34.2629 162.841 33.8856C162.841 33.5082 162.909 33.1801 163.04 32.8586C163.172 32.537 163.358 32.2548 163.595 32.012C163.832 31.7692 164.105 31.5789 164.419 31.4411C164.73 31.3033 165.064 31.2344 165.423 31.2344C165.814 31.2344 166.157 31.3295 166.452 31.5166C166.747 31.7036 166.985 31.9497 167.167 32.245L167.138 31.3755ZM165.468 35.7657C165.795 35.7657 166.08 35.6837 166.321 35.5196C166.561 35.3556 166.747 35.1324 166.879 34.8502C167.01 34.5681 167.074 34.2596 167.074 33.9184C167.074 33.5771 167.007 33.2589 166.876 32.98C166.744 32.7011 166.555 32.4779 166.318 32.3139C166.08 32.1498 165.795 32.0678 165.471 32.0678C165.147 32.0678 164.846 32.1498 164.576 32.3172C164.307 32.4845 164.095 32.7076 163.938 32.9865C163.781 33.2654 163.701 33.5771 163.701 33.9184C163.701 34.2596 163.781 34.5713 163.944 34.8502C164.108 35.1291 164.323 35.3523 164.589 35.5163C164.858 35.6804 165.15 35.7624 165.468 35.7624V35.7657Z" fill="#B1B1B1"/>
<path id="Vector_34" d="M169.99 30.5457C169.858 30.5457 169.746 30.503 169.656 30.4144C169.566 30.3258 169.522 30.2175 169.522 30.083C169.522 29.9485 169.566 29.8402 169.656 29.7516C169.746 29.663 169.855 29.6204 169.983 29.6204C170.112 29.6204 170.221 29.663 170.31 29.7516C170.4 29.8402 170.445 29.9485 170.445 30.083C170.445 30.2175 170.4 30.3258 170.314 30.4144C170.227 30.503 170.118 30.5457 169.99 30.5457ZM169.563 31.3758H170.397V36.4616H169.563V31.3758Z" fill="#B1B1B1"/>
</g>
</g>
</g>
</g>
</g>
<defs>
<linearGradient id="paint0_linear_51_9018" x1="36.5926" y1="16.278" x2="4.22989" y2="16.278" gradientUnits="userSpaceOnUse">
<stop stop-color="#F0EEEA"/>
<stop offset="0.65" stop-color="#B1B1B1"/>
</linearGradient>
<linearGradient id="paint1_linear_51_9018" x1="32.0836" y1="9.71109" x2="21.4475" y2="9.71109" gradientUnits="userSpaceOnUse">
<stop stop-color="#F0EEEA"/>
<stop offset="1" stop-color="#B1B1B1"/>
</linearGradient>
<linearGradient id="paint2_linear_51_9018" x1="26.5746" y1="11.0936" x2="18.1203" y2="11.0936" gradientUnits="userSpaceOnUse">
<stop stop-color="#F0EEEA"/>
<stop offset="1" stop-color="#B1B1B1"/>
</linearGradient>
<linearGradient id="paint3_linear_51_9018" x1="22.1929" y1="12.4942" x2="16.3568" y2="12.4942" gradientUnits="userSpaceOnUse">
<stop stop-color="#F0EEEA"/>
<stop offset="1" stop-color="#B1B1B1"/>
</linearGradient>
</defs>
</svg>
