<svg width="138" height="32" viewBox="0 0 138 32" fill="none" xmlns="http://www.w3.org/2000/svg">
<path d="M4.82956 18.3905C3.82054 16.8691 1.66536 16.204 0 15.9012C2.11844 15.256 4.68261 16.6483 6.35777 17.7874C8.72112 19.3931 10.8518 21.2272 13.4233 22.5302C17.1067 24.399 22.9404 26.645 26.2246 22.9446C26.4646 22.6741 26.8638 22.0313 27.2238 21.9842C27.5838 21.937 27.7651 21.8824 28.1055 21.7633C29.0876 21.4183 29.9447 20.6986 29.9594 19.5694C29.9864 17.4623 27.9267 15.4396 26.4401 14.2856C24.3658 12.6798 22.2547 10.9823 20.5501 8.96705C19.5901 7.83038 19.0831 6.55721 19.0782 5.0433C19.0709 2.46469 21.1134 0.692679 23.4914 0.178944C26.2123 -0.406764 29.0998 0.484207 31.1889 2.28352C31.5244 2.57141 31.7938 2.97347 31.8917 3.40778C31.9701 3.75276 31.9285 4.11262 31.7913 4.43525C31.686 4.68344 31.1546 5.14505 31.326 5.32374C31.8183 5.835 32.2836 6.381 32.6901 6.96422C32.8934 7.25708 33.4983 7.97928 33.2804 8.41857C33.0648 8.8504 31.7521 7.08583 31.6689 6.99152C30.6182 5.79281 29.4549 4.67103 28.1398 3.77509C26.4475 2.62601 24.4147 1.93359 22.5216 3.09756C21.0105 4.02575 20.9395 5.8623 21.7844 7.22978C23.102 9.36662 25.1788 10.7366 27.0597 12.2976C29.1365 14.02 31.3138 16.0874 32.144 18.7479C32.7318 20.6266 32.8126 22.7783 32.2444 24.667C31.784 26.2032 30.8509 27.531 29.5896 28.4989C28.5341 29.308 26.7977 29.2931 25.5168 29.3998C23.3812 29.576 21.2236 29.5264 19.1027 29.2162C18.5345 29.1318 17.9027 29.0896 17.3859 28.829C17.1116 28.6925 16.8496 28.5237 16.5753 28.3922C16.3598 28.288 16.1491 28.1688 15.9434 28.0447C13.5801 26.64 11.7678 24.6422 9.73504 22.823C7.39863 20.7333 4.35689 18.3284 1.14126 18.0654C2.3609 17.9413 3.64421 18.0505 4.82221 18.3979" fill="#00A0AF"/>
<path d="M11.0624 28.9979C8.917 29.2262 7.63124 29.5191 7.63124 29.8367C7.63124 30.5763 14.5817 31.1744 23.1534 31.1744C31.7251 31.1744 38.678 30.5763 38.678 29.8367C38.678 29.5216 37.4045 29.2312 35.2812 29.0029C38.3695 29.2883 40.2773 29.6854 40.2773 30.1197C40.2773 30.9933 32.6093 31.7031 23.151 31.7031C13.6927 31.7031 6.0271 30.9933 6.0271 30.1197C6.0271 29.6804 7.95207 29.2858 11.0648 29.0004L11.0624 28.9979Z" fill="#95A3AB"/>
<path d="M13.3916 28.7051C11.6944 28.8664 10.678 29.0724 10.678 29.2958C10.678 29.8145 16.1738 30.2364 22.9552 30.2364C29.7367 30.2364 35.2324 29.8145 35.2324 29.2958C35.2324 29.0749 34.2258 28.8689 32.5458 28.7076C34.9875 28.9086 36.4985 29.1866 36.4985 29.4918C36.4985 30.1073 30.4347 30.6037 22.9528 30.6037C15.4709 30.6037 9.40698 30.1049 9.40698 29.4918C9.40698 29.1841 10.9303 28.9037 13.3916 28.7051Z" fill="#95A3AB"/>
<path d="M21.2923 24.3966C24.8459 24.4958 26.7023 21.3787 26.7023 21.3787C28.9163 16.7774 25.5464 14.6952 25.5464 14.6952C23.9839 13.3227 17.4938 12.9951 17.4938 12.9951C9.02741 11.9478 8.25105 0.754807 8.25105 0.754807C7.00938 1.40008 6.6861 3.33093 6.6861 3.33093C6.26976 10.074 14.7852 15.0674 14.7852 15.0674C6.32854 11.7368 5.19462 3.60393 5.19462 3.60393C4.19785 4.65125 4.23214 6.04603 4.23214 6.04603C3.83784 12.5385 14.359 17.7155 14.359 17.7155C3.89662 14.2633 3.10557 7.29935 3.10557 7.29935C3.10557 7.29935 1.76838 10.5654 4.2003 14.1392C4.2003 14.1392 5.65994 16.5441 9.37028 19.3163C9.37028 19.3163 15.0864 23.9399 21.2923 24.3941V24.3966Z" fill="url(#paint0_linear_51_5350)"/>
<path d="M27.829 16.3605C27.829 16.3605 29.0585 18.336 27.3833 21.406C27.3833 21.406 31.701 20.8799 27.829 16.3605Z" fill="#00A0AF"/>
<path d="M29.9131 14.2435C29.9131 14.2435 34.5908 18.5221 33.3957 23.5949C33.3957 23.5949 38.2424 20.5895 36.5035 17.3358C36.5035 17.3358 35.088 14.9011 29.9106 14.2435H29.9131Z" fill="#00A0AF"/>
<path d="M24.0059 13.1863C24.0059 13.1863 21.1675 12.675 20.6434 12.6154C20.6434 12.6154 14.3272 7.59225 16.2522 3.37317C16.2522 3.37317 16.7567 2.22905 17.5135 1.7997C17.5135 1.7997 16.2375 7.75853 24.0059 13.1863Z" fill="url(#paint1_linear_51_5350)"/>
<path d="M19.8084 12.5732C19.8084 12.5732 18.3193 12.4466 17.3324 12.3076C17.3324 12.3076 12.2554 8.76113 13.5706 5.87974C13.5706 5.87974 13.8131 5.23944 14.4351 4.56686C14.4351 4.56686 14.2808 8.43849 19.8084 12.5732Z" fill="url(#paint2_linear_51_5350)"/>
<path d="M12.3725 7.00646C12.3725 7.00646 11.5056 8.53774 12.3946 9.66449C12.3946 9.66449 13.8077 11.6276 16.4527 12.2977C16.4527 12.2977 12.6223 9.89281 12.3701 7.00398L12.3725 7.00646Z" fill="url(#paint3_linear_51_5350)"/>
<path d="M55.2656 4.26161L53.779 5.47273C53.3872 5.06075 53.0272 4.74805 52.7088 4.54702C52.3904 4.34599 51.9275 4.24424 51.3251 4.24424C50.6638 4.24424 50.1275 4.39315 49.7185 4.69593C49.307 4.99623 49.1013 5.38835 49.1013 5.86486C49.1013 6.27684 49.2825 6.64167 49.6425 6.95686C50.0001 7.27453 50.6124 7.6195 51.4769 7.99674C52.3414 8.37646 53.0149 8.72639 53.4949 9.05151C53.9774 9.37415 54.3741 9.73401 54.6827 10.1237C54.9913 10.5183 55.2215 10.9302 55.3709 11.367C55.5227 11.8014 55.5987 12.2605 55.5987 12.7444C55.5987 13.8786 55.1921 14.8441 54.379 15.6432C53.5635 16.4399 52.5814 16.8419 51.4279 16.8419C50.2744 16.8419 49.3046 16.5317 48.44 15.9038C47.5804 15.2809 46.9143 14.3452 46.4539 13.0993L48.2907 12.5732C48.9593 14.107 49.983 14.8714 51.3618 14.8714C52.0328 14.8714 52.5888 14.6679 53.0296 14.2658C53.4729 13.8588 53.6982 13.35 53.6982 12.732C53.6982 12.3623 53.5806 11.99 53.3504 11.6177C53.1153 11.2454 52.8288 10.9352 52.481 10.6945C52.1381 10.4537 51.5847 10.1733 50.8352 9.86306C50.0809 9.54787 49.5005 9.25998 49.094 9.00187C48.6874 8.7388 48.3372 8.43106 48.0384 8.07119C47.7445 7.71133 47.5241 7.35395 47.387 6.99657C47.2498 6.63671 47.1812 6.25699 47.1812 5.84997C47.1812 4.8771 47.5682 4.04073 48.3421 3.35327C49.116 2.66829 50.054 2.32083 51.161 2.32083C51.8932 2.32083 52.6353 2.48215 53.3872 2.8023C54.139 3.12246 54.766 3.61386 55.2656 4.26657V4.26161Z" fill="#43525A"/>
<path d="M64.9812 4.58174L68.5862 12.9653L71.9708 5.0384H73.5505L68.5838 16.7327L64.9787 8.32928L61.3713 16.7327L56.3948 5.0384H57.9793L61.386 13.0547L64.9787 4.58422L64.9812 4.58174Z" fill="#43525A"/>
<path d="M77.6184 4.58174L82.9133 16.3778H81.3067L80.0087 13.4691H75.2527L73.9669 16.3778H72.375L77.6209 4.58174H77.6184ZM77.616 8.12825L75.8233 12.1786H79.4283L77.616 8.12825Z" fill="#43525A"/>
<path d="M84.2307 4.56445L92.5135 13.1962V5.02111H94.0466V16.904L85.7614 8.30951V16.3804H84.2332V4.56445H84.2307Z" fill="#43525A"/>
<path d="M102.797 2.74274H104.612V14.5338H108.996V16.3753H102.797V2.74274Z" fill="#43525A"/>
<path d="M114.8 4.58174L120.092 16.3778H118.488L117.188 13.4691H112.434L111.146 16.3778H109.552L114.8 4.58174ZM114.797 8.12825L113.005 12.1786H116.61L114.797 8.12825Z" fill="#43525A"/>
<path d="M121.501 5.02109H123.029V9.6323L127.783 5.02109H129.916L124.499 10.2875L129.95 16.3779H127.998L123.024 10.836V16.3779H121.496V5.02109H121.501Z" fill="#43525A"/>
<path d="M131.789 5.02109H138V6.57222H133.305V9.40893H138V10.9402H133.305V14.8416H138V16.3779H131.789V5.02109Z" fill="#43525A"/>
<path d="M54.8152 27.4591V22.0735H56.6838C56.9679 22.0735 57.2226 22.143 57.4528 22.2845C57.683 22.4259 57.8643 22.617 57.999 22.8553C58.1337 23.096 58.2022 23.3616 58.2022 23.6569C58.2022 23.915 58.1508 24.1508 58.0504 24.3642C57.95 24.5777 57.8104 24.7539 57.6341 24.8978C57.4577 25.0418 57.2594 25.1386 57.0365 25.1932L58.3271 27.4591H57.59L56.3214 25.2478H55.4519V27.4591H54.8152ZM55.4544 24.6H56.6201C56.7916 24.6 56.9508 24.5578 57.0953 24.4709C57.2398 24.3841 57.3549 24.2674 57.4381 24.121C57.5239 23.9746 57.5655 23.8083 57.5655 23.6222C57.5655 23.436 57.5239 23.2673 57.4381 23.1208C57.3524 22.9744 57.2398 22.8578 57.0953 22.7709C56.9508 22.684 56.794 22.6419 56.6201 22.6419H55.4544V24.6Z" fill="#95A3AB"/>
<path d="M61.2733 27.5585C60.9231 27.5585 60.6047 27.4666 60.3181 27.2855C60.0316 27.1043 59.8014 26.8586 59.63 26.5533C59.4585 26.2481 59.3728 25.9081 59.3728 25.5358C59.3728 25.2529 59.4218 24.9898 59.5197 24.7441C59.6177 24.4984 59.7549 24.2849 59.9287 24.0988C60.1026 23.9127 60.3034 23.7662 60.5337 23.662C60.7639 23.5578 61.0088 23.5032 61.2708 23.5032C61.5574 23.5032 61.8194 23.5627 62.0594 23.6794C62.2994 23.796 62.5027 23.9573 62.6741 24.1658C62.8456 24.3743 62.9729 24.615 63.0587 24.888C63.1444 25.1635 63.1738 25.4564 63.1517 25.7691H60.0536C60.083 25.9875 60.1541 26.1811 60.2667 26.3523C60.3769 26.5235 60.5214 26.6576 60.6929 26.7568C60.8667 26.8561 61.0602 26.9082 61.2708 26.9107C61.4986 26.9107 61.7043 26.8511 61.8904 26.732C62.0741 26.6129 62.2235 26.4491 62.3386 26.2406L62.9876 26.3945C62.8358 26.7345 62.6056 27.0149 62.2994 27.2309C61.9933 27.4468 61.6504 27.556 61.2708 27.556L61.2733 27.5585ZM60.0341 25.2628H62.5101C62.4905 25.0469 62.4219 24.8508 62.3043 24.6721C62.1868 24.4934 62.0398 24.352 61.8611 24.2428C61.6823 24.136 61.4863 24.0814 61.2733 24.0814C61.0602 24.0814 60.8667 24.1336 60.688 24.2403C60.5092 24.347 60.3647 24.486 60.2496 24.6647C60.1345 24.8434 60.0634 25.0419 60.0341 25.2628Z" fill="#95A3AB"/>
<path d="M65.4588 27.5311C65.2531 27.5236 65.0547 27.4839 64.8612 27.4144C64.6677 27.3449 64.4988 27.2481 64.3518 27.1265C64.2049 27.0049 64.0996 26.8635 64.0359 26.7046L64.582 26.4664C64.6212 26.5532 64.6873 26.6351 64.7878 26.7121C64.8857 26.789 65.0008 26.8511 65.1282 26.8957C65.258 26.9429 65.3878 26.9652 65.52 26.9652C65.6596 26.9652 65.7894 26.9429 65.9119 26.9007C66.0343 26.8585 66.1323 26.7915 66.2107 26.7071C66.2866 26.6202 66.3258 26.5185 66.3258 26.3969C66.3258 26.2678 66.2841 26.1686 66.1984 26.0941C66.1127 26.0221 66.0074 25.9626 65.88 25.9204C65.7527 25.8782 65.6229 25.8385 65.4906 25.7988C65.231 25.7318 64.9959 25.6523 64.7926 25.558C64.5894 25.4637 64.4253 25.3446 64.3077 25.2007C64.1902 25.0567 64.1314 24.8706 64.1314 24.6447C64.1314 24.4065 64.1975 24.2005 64.3273 24.0243C64.4571 23.8505 64.6286 23.714 64.8416 23.6197C65.0547 23.5254 65.2825 23.4783 65.5249 23.4783C65.8311 23.4783 66.1102 23.5453 66.365 23.6793C66.6172 23.8133 66.8058 23.9945 66.9307 24.2228L66.4188 24.5256C66.3747 24.4338 66.3111 24.3519 66.2205 24.2824C66.1323 24.2129 66.0319 24.1558 65.9168 24.1161C65.8041 24.0739 65.6866 24.0541 65.5666 24.0516C65.4196 24.0466 65.2825 24.0665 65.1551 24.1087C65.0278 24.1533 64.9249 24.2179 64.8465 24.3072C64.7682 24.3965 64.7314 24.5057 64.7314 24.6373C64.7314 24.7688 64.7731 24.8631 64.8539 24.9301C64.9371 24.9971 65.0425 25.0493 65.1772 25.089C65.3119 25.1287 65.4539 25.1734 65.6106 25.2255C65.8408 25.2999 66.0564 25.3868 66.2547 25.4836C66.4531 25.5804 66.6172 25.702 66.7397 25.8484C66.8621 25.9948 66.9233 26.176 66.9209 26.3919C66.9209 26.6277 66.8523 26.8337 66.7127 27.0099C66.5731 27.1861 66.3943 27.3201 66.1715 27.4119C65.9486 27.5038 65.7135 27.546 65.4588 27.536V27.5311Z" fill="#95A3AB"/>
<path d="M68.3561 22.9843C68.2557 22.9843 68.17 22.9521 68.1014 22.8851C68.0328 22.818 67.9985 22.7361 67.9985 22.6344C67.9985 22.5326 68.0328 22.4507 68.1014 22.3837C68.17 22.3167 68.2532 22.2845 68.3512 22.2845C68.4492 22.2845 68.5324 22.3167 68.601 22.3837C68.6696 22.4507 68.7039 22.5326 68.7039 22.6344C68.7039 22.7361 68.6696 22.818 68.6035 22.8851C68.5373 22.9521 68.4541 22.9843 68.3537 22.9843H68.3561ZM68.0304 23.6122H68.6671V27.459H68.0304V23.6122Z" fill="#95A3AB"/>
<path d="M73.0901 21.6889H73.7269V27.4591H73.0901V26.8064C72.9603 27.0322 72.7864 27.2134 72.5709 27.3524C72.3529 27.4914 72.0982 27.5609 71.8043 27.5609C71.5276 27.5609 71.2704 27.5088 71.0304 27.4045C70.7904 27.3003 70.5774 27.1539 70.3937 26.9677C70.21 26.7816 70.0655 26.5681 69.9627 26.3224C69.8598 26.0792 69.8059 25.8162 69.8059 25.5382C69.8059 25.2602 69.8573 24.9972 69.9627 24.7515C70.0655 24.5058 70.21 24.2923 70.3937 24.1062C70.5774 23.9201 70.788 23.7761 71.0304 23.6694C71.2704 23.5652 71.5301 23.5106 71.8043 23.5106C72.0982 23.5106 72.3529 23.58 72.5709 23.719C72.7889 23.858 72.9628 24.0392 73.0901 24.265V21.6914V21.6889ZM71.8092 26.933C72.059 26.933 72.277 26.8709 72.4607 26.7468C72.6444 26.6227 72.7864 26.454 72.8868 26.2405C72.9872 26.0271 73.0362 25.7938 73.0362 25.5357C73.0362 25.2776 72.9848 25.0369 72.8844 24.8259C72.784 24.615 72.6395 24.4462 72.4582 24.3221C72.2746 24.198 72.059 24.136 71.8117 24.136C71.5643 24.136 71.3341 24.198 71.1309 24.3246C70.9276 24.4512 70.7635 24.6199 70.6435 24.8309C70.521 25.0418 70.4623 25.2776 70.4623 25.5357C70.4623 25.7938 70.5235 26.0296 70.6484 26.2405C70.7733 26.4515 70.9374 26.6203 71.1431 26.7444C71.3488 26.8684 71.5717 26.9305 71.8141 26.9305L71.8092 26.933Z" fill="#95A3AB"/>
<path d="M76.7638 27.5585C76.4135 27.5585 76.0952 27.4666 75.8086 27.2855C75.5221 27.1043 75.2919 26.8586 75.1204 26.5533C74.949 26.2481 74.8633 25.9081 74.8633 25.5358C74.8633 25.2529 74.9123 24.9898 75.0102 24.7441C75.1082 24.4984 75.2453 24.2849 75.4192 24.0988C75.5931 23.9127 75.7939 23.7662 76.0241 23.662C76.2544 23.5578 76.4993 23.5032 76.7613 23.5032C77.0478 23.5032 77.3099 23.5627 77.5499 23.6794C77.7899 23.796 77.9932 23.9573 78.1646 24.1658C78.3361 24.3743 78.4634 24.615 78.5491 24.888C78.6348 25.1635 78.6642 25.4564 78.6422 25.7691H75.5441C75.5735 25.9875 75.6445 26.1811 75.7572 26.3523C75.8674 26.5235 76.0119 26.6576 76.1833 26.7568C76.3572 26.8561 76.5507 26.9082 76.7613 26.9107C76.9891 26.9107 77.1948 26.8511 77.3809 26.732C77.567 26.6129 77.714 26.4491 77.8291 26.2406L78.4781 26.3945C78.3263 26.7345 78.0985 27.0149 77.7924 27.2309C77.4862 27.4468 77.1434 27.556 76.7638 27.556V27.5585ZM75.527 25.2628H78.003C77.9834 25.0469 77.9148 24.8508 77.7973 24.6721C77.6797 24.4934 77.5328 24.352 77.354 24.2428C77.1752 24.136 76.9793 24.0814 76.7662 24.0814C76.5531 24.0814 76.3597 24.1336 76.1809 24.2403C76.0045 24.3445 75.8576 24.486 75.7425 24.6647C75.6274 24.8434 75.5564 25.0419 75.527 25.2628Z" fill="#95A3AB"/>
<path d="M83.1484 25.0666V27.4591H82.5117V25.2081C82.5117 25.012 82.4651 24.8358 82.3721 24.677C82.279 24.5181 82.1541 24.3916 81.9949 24.2973C81.8357 24.2029 81.6643 24.1558 81.4708 24.1558C81.2773 24.1558 81.1059 24.2029 80.9492 24.2973C80.79 24.3916 80.6651 24.5181 80.572 24.677C80.4789 24.8358 80.4324 25.012 80.4324 25.2081V27.4591H79.7957V23.6123H80.4324V24.0937C80.5671 23.9151 80.7361 23.7711 80.9418 23.6644C81.1475 23.5577 81.3704 23.5056 81.6104 23.5056C81.8945 23.5056 82.1517 23.575 82.3868 23.714C82.6219 23.853 82.808 24.0416 82.9451 24.2774C83.0823 24.5132 83.1509 24.7762 83.1509 25.0666H83.1484Z" fill="#95A3AB"/>
<path d="M86.9786 26.4441L87.5493 26.7543C87.3778 26.9976 87.1598 27.1936 86.8953 27.3401C86.6308 27.4865 86.3443 27.5585 86.0357 27.5585C85.6855 27.5585 85.3671 27.4666 85.0806 27.2855C84.794 27.1043 84.5638 26.8586 84.3924 26.5533C84.221 26.2481 84.1353 25.9081 84.1353 25.5358C84.1353 25.2529 84.1842 24.9898 84.2822 24.7441C84.3802 24.4984 84.5173 24.2849 84.6912 24.0988C84.8651 23.9127 85.0659 23.7662 85.2961 23.662C85.5263 23.5578 85.7712 23.5032 86.0333 23.5032C86.3419 23.5032 86.6284 23.5751 86.8929 23.7216C87.1574 23.868 87.3754 24.0641 87.5468 24.3098L86.9762 24.6225C86.8537 24.4711 86.7117 24.3544 86.5427 24.2725C86.3737 24.1906 86.2047 24.1484 86.0308 24.1484C85.7957 24.1484 85.5827 24.213 85.3916 24.3395C85.2006 24.4661 85.0488 24.6349 84.9385 24.8458C84.8259 25.0568 84.772 25.2851 84.772 25.5333C84.772 25.7815 84.8283 26.0098 84.941 26.2208C85.0536 26.4317 85.2055 26.598 85.3965 26.7221C85.5875 26.8487 85.8006 26.9107 86.0333 26.9107C86.2194 26.9107 86.3957 26.866 86.5623 26.7792C86.7264 26.6923 86.866 26.5781 86.9786 26.4416V26.4441Z" fill="#95A3AB"/>
<path d="M90.3585 27.5585C90.0083 27.5585 89.6899 27.4666 89.4033 27.2855C89.1168 27.1043 88.8866 26.8586 88.7152 26.5533C88.5437 26.2481 88.458 25.9081 88.458 25.5358C88.458 25.2529 88.507 24.9898 88.605 24.7441C88.7029 24.4984 88.8401 24.2849 89.0139 24.0988C89.1878 23.9127 89.3887 23.7662 89.6189 23.662C89.8491 23.5578 90.094 23.5032 90.356 23.5032C90.6426 23.5032 90.9046 23.5627 91.1446 23.6794C91.3846 23.796 91.5879 23.9573 91.7594 24.1658C91.9308 24.3743 92.0581 24.615 92.1438 24.888C92.2296 25.1635 92.259 25.4564 92.2369 25.7691H89.1388C89.1682 25.9875 89.2393 26.1811 89.3519 26.3523C89.4646 26.5235 89.6066 26.6576 89.7781 26.7568C89.9519 26.8561 90.1454 26.9082 90.356 26.9107C90.5838 26.9107 90.7895 26.8511 90.9756 26.732C91.1593 26.6129 91.3087 26.4491 91.4238 26.2406L92.0728 26.3945C91.921 26.7345 91.6932 27.0149 91.3871 27.2309C91.081 27.4468 90.7381 27.556 90.3585 27.556V27.5585ZM89.1193 25.2628H91.5953C91.5757 25.0469 91.5071 24.8508 91.3895 24.6721C91.272 24.4934 91.125 24.352 90.9463 24.2428C90.7675 24.136 90.5716 24.0814 90.3585 24.0814C90.1454 24.0814 89.9519 24.1336 89.7732 24.2403C89.5944 24.347 89.4499 24.486 89.3348 24.6647C89.2197 24.8434 89.1486 25.0419 89.1193 25.2628Z" fill="#95A3AB"/>
<path d="M94.5438 27.5311C94.338 27.5236 94.1397 27.4839 93.9462 27.4144C93.7527 27.3449 93.5837 27.2481 93.4368 27.1265C93.2923 27.0049 93.1845 26.8635 93.1208 26.7046L93.667 26.4664C93.7062 26.5532 93.7723 26.6351 93.8727 26.7121C93.9707 26.789 94.0858 26.8511 94.2156 26.8957C94.3454 26.9429 94.4752 26.9652 94.6074 26.9652C94.747 26.9652 94.8768 26.9429 94.9993 26.9007C95.1217 26.8585 95.2197 26.7915 95.2981 26.7071C95.3764 26.6202 95.4132 26.5185 95.4132 26.3969C95.4132 26.2678 95.3715 26.1686 95.2858 26.0941C95.2001 26.0221 95.0948 25.9626 94.9674 25.9204C94.8401 25.8782 94.7103 25.8385 94.578 25.7988C94.3184 25.7318 94.0833 25.6523 93.8801 25.558C93.6768 25.4637 93.5127 25.3446 93.3951 25.2007C93.2776 25.0567 93.2188 24.8706 93.2188 24.6447C93.2188 24.4065 93.2849 24.2005 93.4147 24.0243C93.5445 23.8481 93.716 23.714 93.929 23.6197C94.1421 23.5254 94.3699 23.4783 94.6123 23.4783C94.9185 23.4783 95.1977 23.5453 95.4524 23.6793C95.7046 23.8133 95.8932 23.9945 96.0181 24.2228L95.5062 24.5256C95.4622 24.4338 95.3985 24.3519 95.3079 24.2824C95.2197 24.2129 95.1168 24.1558 95.0042 24.1161C94.8915 24.0764 94.774 24.0541 94.654 24.0516C94.507 24.0466 94.3699 24.0665 94.2425 24.1087C94.1152 24.1533 94.0123 24.2179 93.9339 24.3072C93.8556 24.3965 93.8188 24.5057 93.8188 24.6373C93.8188 24.7688 93.8605 24.8631 93.9413 24.9301C94.0221 24.9971 94.1323 25.0493 94.2646 25.089C94.3968 25.1287 94.5413 25.1734 94.698 25.2255C94.9283 25.2999 95.1438 25.3868 95.3446 25.4836C95.5454 25.5804 95.7046 25.702 95.8295 25.8484C95.952 25.9948 96.0132 26.176 96.0107 26.3919C96.0107 26.6277 95.9422 26.8337 95.8026 27.0099C95.663 27.1861 95.4842 27.3201 95.2613 27.4119C95.0409 27.5038 94.8034 27.546 94.5487 27.536L94.5438 27.5311Z" fill="#95A3AB"/>
<path d="M103.233 27.4591H102.41L100.732 25.1237L100.333 25.6076V27.4591H99.6965V22.0735H100.333V24.605L102.425 22.0735H103.255L101.149 24.6174L103.233 27.4615V27.4591Z" fill="#95A3AB"/>
<path d="M107.663 25.0667V27.4591H107.027V25.2081C107.027 25.0121 106.98 24.8358 106.887 24.677C106.794 24.5182 106.669 24.3916 106.51 24.2973C106.351 24.203 106.179 24.1558 105.986 24.1558C105.792 24.1558 105.621 24.203 105.464 24.2973C105.305 24.3916 105.18 24.5182 105.087 24.677C104.994 24.8358 104.947 25.0121 104.947 25.2081V27.4591H104.311V21.6889H104.947V24.0938C105.082 23.9151 105.251 23.7711 105.457 23.6644C105.662 23.5577 105.885 23.5056 106.125 23.5056C106.409 23.5056 106.667 23.5751 106.902 23.7141C107.137 23.853 107.323 24.0417 107.46 24.2774C107.597 24.5132 107.666 24.7763 107.666 25.0667H107.663Z" fill="#95A3AB"/>
<path d="M111.93 23.6123H112.566V27.4591H111.93L111.903 26.8088C111.783 27.0322 111.619 27.2134 111.41 27.3524C111.202 27.4913 110.953 27.5608 110.664 27.5608C110.375 27.5608 110.125 27.5087 109.882 27.402C109.64 27.2953 109.424 27.1489 109.238 26.9602C109.052 26.7716 108.908 26.5557 108.805 26.3075C108.702 26.0593 108.648 25.7963 108.648 25.5109C108.648 25.2255 108.699 24.9773 108.8 24.7341C108.9 24.4908 109.042 24.2774 109.223 24.0937C109.405 23.9101 109.613 23.7661 109.853 23.6619C110.09 23.5577 110.345 23.5056 110.619 23.5056C110.918 23.5056 111.18 23.5775 111.406 23.719C111.631 23.8605 111.812 24.0466 111.952 24.27L111.93 23.6123ZM110.654 26.9329C110.904 26.9329 111.122 26.8709 111.305 26.7468C111.489 26.6227 111.631 26.4539 111.731 26.2405C111.832 26.0271 111.881 25.7938 111.881 25.5357C111.881 25.2776 111.829 25.0368 111.729 24.8259C111.628 24.6149 111.484 24.4462 111.303 24.3221C111.122 24.198 110.904 24.1359 110.656 24.1359C110.409 24.1359 110.179 24.198 109.973 24.3246C109.767 24.4511 109.606 24.6199 109.486 24.8308C109.366 25.0418 109.304 25.2776 109.304 25.5357C109.304 25.7938 109.366 26.0296 109.49 26.2405C109.615 26.4515 109.779 26.6202 109.983 26.7443C110.188 26.8684 110.411 26.9305 110.654 26.9305V26.9329Z" fill="#95A3AB"/>
<path d="M115.454 27.5585C115.104 27.5585 114.785 27.4666 114.499 27.2855C114.212 27.1043 113.982 26.8586 113.811 26.5533C113.639 26.2481 113.553 25.9081 113.553 25.5358C113.553 25.2529 113.602 24.9898 113.7 24.7441C113.798 24.4984 113.936 24.2849 114.109 24.0988C114.283 23.9127 114.484 23.7662 114.714 23.662C114.945 23.5578 115.189 23.5032 115.451 23.5032C115.802 23.5032 116.12 23.595 116.407 23.7762C116.693 23.9573 116.923 24.203 117.095 24.5108C117.266 24.8185 117.352 25.1585 117.352 25.5333C117.352 25.8137 117.303 26.0743 117.205 26.3176C117.107 26.5608 116.97 26.7767 116.796 26.9628C116.622 27.149 116.421 27.2954 116.194 27.3996C115.966 27.5039 115.718 27.556 115.456 27.556L115.454 27.5585ZM115.454 26.9132C115.692 26.9132 115.907 26.8487 116.098 26.7221C116.289 26.5955 116.438 26.4268 116.549 26.2183C116.659 26.0098 116.713 25.7815 116.713 25.5358C116.713 25.2901 116.656 25.0543 116.544 24.8434C116.431 24.6324 116.279 24.4661 116.091 24.3395C115.9 24.213 115.689 24.1509 115.454 24.1509C115.219 24.1509 115.003 24.2155 114.812 24.342C114.621 24.4686 114.472 24.6374 114.362 24.8483C114.249 25.0593 114.195 25.2876 114.195 25.5358C114.195 25.784 114.251 26.0247 114.367 26.2332C114.479 26.4416 114.634 26.6079 114.827 26.7295C115.02 26.8511 115.229 26.9132 115.456 26.9132H115.454Z" fill="#95A3AB"/>
<path d="M123.264 22.0735H124.016L122.216 25.0244V27.4591H121.579V25.0244L119.779 22.0735H120.531L121.898 24.3171L123.264 22.0735Z" fill="#95A3AB"/>
<path d="M127.146 23.6123H127.783V27.4591H127.146L127.119 26.8088C126.999 27.0322 126.835 27.2134 126.627 27.3524C126.418 27.4913 126.169 27.5608 125.88 27.5608C125.591 27.5608 125.341 27.5087 125.098 27.402C124.856 27.2953 124.64 27.1489 124.454 26.9602C124.268 26.7716 124.124 26.5557 124.021 26.3075C123.918 26.0593 123.864 25.7963 123.864 25.5109C123.864 25.2255 123.915 24.9773 124.016 24.7341C124.116 24.4908 124.258 24.2774 124.44 24.0937C124.621 23.9101 124.829 23.7661 125.069 23.6619C125.307 23.5577 125.561 23.5056 125.836 23.5056C126.134 23.5056 126.396 23.5775 126.622 23.719C126.847 23.8605 127.028 24.0466 127.168 24.27L127.146 23.6123ZM125.87 26.9329C126.12 26.9329 126.338 26.8709 126.521 26.7468C126.705 26.6227 126.847 26.4539 126.947 26.2405C127.048 26.0271 127.097 25.7938 127.097 25.5357C127.097 25.2776 127.045 25.0368 126.945 24.8259C126.845 24.6149 126.7 24.4462 126.519 24.3221C126.338 24.198 126.12 24.1359 125.872 24.1359C125.625 24.1359 125.395 24.198 125.189 24.3246C124.983 24.4511 124.822 24.6199 124.702 24.8308C124.582 25.0418 124.52 25.2776 124.52 25.5357C124.52 25.7938 124.582 26.0296 124.706 26.2405C124.831 26.4515 124.995 26.6202 125.199 26.7443C125.404 26.8684 125.627 26.9305 125.87 26.9305V26.9329Z" fill="#95A3AB"/>
<path d="M129.323 22.9843C129.223 22.9843 129.137 22.9521 129.068 22.8851C129 22.818 128.966 22.7361 128.966 22.6344C128.966 22.5326 129 22.4507 129.068 22.3837C129.137 22.3167 129.22 22.2845 129.318 22.2845C129.416 22.2845 129.499 22.3167 129.568 22.3837C129.637 22.4507 129.671 22.5326 129.671 22.6344C129.671 22.7361 129.637 22.818 129.57 22.8851C129.504 22.9521 129.421 22.9843 129.323 22.9843ZM128.997 23.6122H129.634V27.459H128.997V23.6122Z" fill="#95A3AB"/>
<defs>
<linearGradient id="paint0_linear_51_5350" x1="27.4566" y1="12.5757" x2="2.74066" y2="12.5757" gradientUnits="userSpaceOnUse">
<stop stop-color="#00A0AF"/>
<stop offset="0.65" stop-color="#A0D5B5"/>
</linearGradient>
<linearGradient id="paint1_linear_51_5350" x1="24.0059" y1="7.49298" x2="15.8873" y2="7.49298" gradientUnits="userSpaceOnUse">
<stop stop-color="#00A0AF"/>
<stop offset="1" stop-color="#A0D5B5"/>
</linearGradient>
<linearGradient id="paint2_linear_51_5350" x1="19.8084" y1="8.57003" x2="13.3526" y2="8.57003" gradientUnits="userSpaceOnUse">
<stop stop-color="#00A0AF"/>
<stop offset="1" stop-color="#A0D5B5"/>
</linearGradient>
<linearGradient id="paint3_linear_51_5350" x1="16.4551" y1="9.65208" x2="11.9954" y2="9.65208" gradientUnits="userSpaceOnUse">
<stop stop-color="#00A0AF"/>
<stop offset="1" stop-color="#A0D5B5"/>
</linearGradient>
</defs>
</svg>
