<?xml version="1.0" standalone="no"?>
<!DOCTYPE svg PUBLIC "-//W3C//DTD SVG 20010904//EN"
 "http://www.w3.org/TR/2001/REC-SVG-20010904/DTD/svg10.dtd">
<svg version="1.0" xmlns="http://www.w3.org/2000/svg"
 width="1024.000000pt" height="1024.000000pt" viewBox="0 0 1024.000000 1024.000000"
 preserveAspectRatio="xMidYMid meet">
<metadata>
Created by potrace 1.14, written by Peter Selinger 2001-2017
</metadata>
<g transform="translate(0.000000,1024.000000) scale(0.100000,-0.100000)"
fill="#000000" stroke="none">
<path d="M20 7560 c0 -3 22 -15 48 -28 83 -39 165 -129 224 -246 30 -58 52
-114 243 -606 45 -118 99 -255 118 -305 19 -49 89 -229 155 -400 66 -170 164
-422 217 -560 53 -137 140 -360 192 -495 52 -135 133 -344 181 -465 47 -121
91 -236 98 -255 7 -19 32 -84 56 -145 l44 -110 68 0 67 0 75 195 c41 107 79
204 84 215 5 11 23 58 40 105 18 47 51 135 75 195 24 61 93 243 155 405 62
162 118 309 125 325 8 17 91 232 185 480 95 247 176 458 181 470 9 22 14 36
199 520 68 176 136 347 153 380 73 147 174 267 260 305 23 11 38 20 32 21 -40
5 -465 3 -465 -3 0 -4 9 -9 20 -13 74 -24 108 -214 64 -364 -9 -31 -173 -465
-366 -966 -193 -500 -363 -944 -378 -985 -15 -41 -112 -293 -215 -560 -103
-267 -200 -523 -216 -570 l-28 -85 -1 50 c-2 94 -27 217 -67 330 -28 80 -550
1449 -564 1480 -9 21 -311 810 -429 1120 -61 161 -82 226 -96 290 -9 41 -6
132 5 167 7 20 30 53 52 72 21 20 39 37 39 38 0 2 -142 3 -315 3 -173 0 -315
-2 -315 -5z"/>
<path d="M5084 7562 c-15 -2 -27 -20 -47 -70 -14 -37 -145 -380 -292 -762
-147 -382 -298 -776 -337 -875 -38 -99 -89 -232 -113 -295 -347 -920 -523
-1355 -583 -1443 -39 -58 -115 -127 -164 -150 l-51 -24 237 -1 c130 0 236 2
236 5 0 3 -11 14 -25 25 -66 51 -92 169 -70 315 5 40 126 372 183 505 l16 36
992 0 993 -1 39 -116 c136 -395 148 -439 151 -554 3 -98 -21 -153 -87 -199
-21 -15 0 -16 293 -16 l316 0 -52 28 c-109 57 -183 156 -255 337 -19 48 -39
97 -44 108 -5 11 -97 250 -206 530 -108 281 -233 602 -276 715 -44 113 -106
273 -138 355 -87 227 -346 895 -396 1022 -24 62 -58 150 -76 195 -18 46 -33
85 -33 88 -1 3 -7 19 -14 35 -6 17 -26 66 -42 110 -17 44 -35 84 -40 89 -9 10
-73 14 -115 8z m11 -119 c1 -94 31 -230 83 -368 58 -154 286 -736 302 -770 5
-11 41 -103 81 -205 39 -102 105 -270 146 -375 41 -104 106 -271 145 -370 39
-99 96 -244 128 -323 31 -78 55 -144 51 -146 -10 -6 -1923 2 -1929 8 -4 5 149
414 188 501 10 22 356 919 426 1105 24 63 48 124 53 135 5 11 35 88 66 170 32
83 63 164 70 180 7 17 36 91 64 165 29 74 56 144 61 155 5 11 19 52 31 90 31
99 34 104 34 48z"/>
<path d="M7815 7551 c17 -10 38 -27 47 -37 16 -19 61 -114 53 -114 -2 0 1 -15
7 -32 12 -39 19 -3116 6 -3188 -14 -84 -18 -100 -38 -136 -26 -46 -49 -69 -84
-88 -25 -13 112 -14 1203 -14 l1231 0 0 227 -1 226 -24 -73 c-40 -116 -92
-185 -185 -244 -44 -28 -107 -57 -140 -63 -9 -2 -65 -15 -90 -22 -14 -3 -411
-7 -883 -9 l-857 -2 20 25 c18 24 26 44 46 128 5 17 9 422 11 900 9 2438 7
2326 26 2381 23 70 56 116 97 136 34 18 29 18 -220 18 -252 0 -255 0 -225 -19z"/>
<path d="M4307 2987 c-9 -15 -17 -29 -17 -32 0 -3 -27 -67 -61 -141 -47 -105
-58 -138 -48 -145 10 -6 20 10 39 59 l25 67 62 0 61 1 27 -66 c22 -55 30 -65
51 -65 13 0 24 1 24 2 0 1 -25 60 -56 130 -57 131 -65 151 -81 192 l-9 24 -17
-26z m29 -112 c13 -31 24 -57 24 -59 0 -4 -90 1 -95 6 -3 3 1 20 8 39 8 19 17
42 20 52 10 27 16 21 43 -38z"/>
<path d="M5150 2945 c-17 -38 -35 -79 -40 -90 -88 -192 -89 -194 -68 -186 13
5 29 29 43 67 l22 59 61 -1 c34 0 64 -3 67 -6 3 -3 14 -29 24 -59 16 -46 24
-55 47 -57 19 -3 25 0 21 10 -3 7 -31 72 -62 143 -32 72 -63 144 -70 160 l-14
30 -31 -70z m48 -66 c12 -29 20 -54 17 -57 -6 -6 -84 -7 -90 0 -6 5 37 108 44
108 4 0 16 -23 29 -51z"/>
<path d="M5539 2880 c0 -74 -2 -151 -4 -170 -3 -31 10 -55 25 -45 3 2 5 60 4
129 -2 69 -1 126 1 126 3 0 62 -62 186 -193 l64 -69 2 171 c2 141 0 171 -12
171 -11 0 -13 -22 -11 -112 2 -62 1 -119 -2 -126 -4 -11 -48 33 -210 208 l-42
45 -1 -135z"/>
<path d="M3723 2988 c12 -30 79 -196 91 -223 7 -16 19 -44 25 -62 19 -48 39
-50 58 -5 8 20 21 51 28 67 31 69 95 224 95 230 0 4 -7 5 -16 3 -10 -2 -31
-45 -58 -118 -68 -183 -63 -179 -103 -74 -20 49 -41 103 -48 119 -7 17 -16 40
-20 53 -4 15 -14 22 -32 22 -16 0 -23 -4 -20 -12z"/>
<path d="M4673 2833 l2 -167 84 0 c57 0 86 4 89 12 3 9 -16 12 -66 12 l-69 0
1 155 c1 153 1 155 -21 155 -22 0 -22 -1 -20 -167z"/>
<path d="M6026 2993 c-16 -16 -2 -24 37 -20 24 3 49 2 55 -1 7 -5 10 -57 9
-154 -2 -145 -2 -147 21 -151 l22 -4 0 157 0 158 50 -4 c40 -3 50 -1 50 11 0
12 -20 15 -119 14 -65 0 -122 -3 -125 -6z"/>
<path d="M6479 2998 c-2 -9 -3 -330 -1 -333 2 -1 12 -1 22 2 18 5 19 18 22
169 l3 164 -22 0 c-13 0 -23 -1 -24 -2z"/>
</g>
</svg>
